ISO-10303-21;
HEADER;
FILE_DESCRIPTION(('Open CASCADE Model'),'2;1');
FILE_NAME('Open CASCADE Shape Model','2026-09-21T15:56:51',('Author'),(
    'Open CASCADE'),'Open CASCADE STEP processor 7.9','Open CASCADE 7.9'
  ,'Unknown');
FILE_SCHEMA(('AUTOMOTIVE_DESIGN { 1 0 10303 214 1 1 1 1 }'));
ENDSEC;
DATA;
#1 = APPLICATION_PROTOCOL_DEFINITION('international standard',
  'automotive_design',2000,#2);
#2 = APPLICATION_CONTEXT(
  'core data for automotive mechanical design processes');
#3 = SHAPE_DEFINITION_REPRESENTATION(#4,#10);
#4 = PRODUCT_DEFINITION_SHAPE('','',#5);
#5 = PRODUCT_DEFINITION('design','',#6,#9);
#6 = PRODUCT_DEFINITION_FORMATION('','',#7);
#7 = PRODUCT('Open CASCADE STEP translator 7.9 27',
  'Open CASCADE STEP translator 7.9 27','',(#8));
#8 = PRODUCT_CONTEXT('',#2,'mechanical');
#9 = PRODUCT_DEFINITION_CONTEXT('part definition',#2,'design');
#10 = ADVANCED_BREP_SHAPE_REPRESENTATION('',(#11,#15),#1180);
#11 = AXIS2_PLACEMENT_3D('',#12,#13,#14);
#12 = CARTESIAN_POINT('',(0.,0.,0.));
#13 = DIRECTION('',(0.,0.,1.));
#14 = DIRECTION('',(1.,0.,-0.));
#15 = MANIFOLD_SOLID_BREP('',#16);
#16 = CLOSED_SHELL('',(#17,#168,#244,#417,#466,#493,#547,#554,#858,#942,
    #992,#1049,#1148,#1175));
#17 = ADVANCED_FACE('',(#18,#137),#32,.F.);
#18 = FACE_BOUND('',#19,.F.);
#19 = EDGE_LOOP('',(#20,#55,#83,#111));
#20 = ORIENTED_EDGE('',*,*,#21,.F.);
#21 = EDGE_CURVE('',#22,#24,#26,.T.);
#22 = VERTEX_POINT('',#23);
#23 = CARTESIAN_POINT('',(-15.,-8.,-6.));
#24 = VERTEX_POINT('',#25);
#25 = CARTESIAN_POINT('',(-15.,-8.,6.));
#26 = SURFACE_CURVE('',#27,(#31,#43),.PCURVE_S1.);
#27 = LINE('',#28,#29);
#28 = CARTESIAN_POINT('',(-15.,-8.,-6.));
#29 = VECTOR('',#30,1.);
#30 = DIRECTION('',(0.,0.,1.));
#31 = PCURVE('',#32,#37);
#32 = PLANE('',#33);
#33 = AXIS2_PLACEMENT_3D('',#34,#35,#36);
#34 = CARTESIAN_POINT('',(-15.,-8.,-6.));
#35 = DIRECTION('',(1.,0.,-0.));
#36 = DIRECTION('',(0.,0.,1.));
#37 = DEFINITIONAL_REPRESENTATION('',(#38),#42);
#38 = LINE('',#39,#40);
#39 = CARTESIAN_POINT('',(0.,0.));
#40 = VECTOR('',#41,1.);
#41 = DIRECTION('',(1.,0.));
#42 = ( GEOMETRIC_REPRESENTATION_CONTEXT(2) 
PARAMETRIC_REPRESENTATION_CONTEXT() REPRESENTATION_CONTEXT('2D SPACE',''
  ) );
#43 = PCURVE('',#44,#49);
#44 = PLANE('',#45);
#45 = AXIS2_PLACEMENT_3D('',#46,#47,#48);
#46 = CARTESIAN_POINT('',(-15.,-8.,-6.));
#47 = DIRECTION('',(-0.,1.,0.));
#48 = DIRECTION('',(0.,0.,1.));
#49 = DEFINITIONAL_REPRESENTATION('',(#50),#54);
#50 = LINE('',#51,#52);
#51 = CARTESIAN_POINT('',(0.,0.));
#52 = VECTOR('',#53,1.);
#53 = DIRECTION('',(1.,0.));
#54 = ( GEOMETRIC_REPRESENTATION_CONTEXT(2) 
PARAMETRIC_REPRESENTATION_CONTEXT() REPRESENTATION_CONTEXT('2D SPACE',''
  ) );
#55 = ORIENTED_EDGE('',*,*,#56,.T.);
#56 = EDGE_CURVE('',#22,#57,#59,.T.);
#57 = VERTEX_POINT('',#58);
#58 = CARTESIAN_POINT('',(-15.,8.,-6.));
#59 = SURFACE_CURVE('',#60,(#64,#71),.PCURVE_S1.);
#60 = LINE('',#61,#62);
#61 = CARTESIAN_POINT('',(-15.,-8.,-6.));
#62 = VECTOR('',#63,1.);
#63 = DIRECTION('',(-0.,1.,0.));
#64 = PCURVE('',#32,#65);
#65 = DEFINITIONAL_REPRESENTATION('',(#66),#70);
#66 = LINE('',#67,#68);
#67 = CARTESIAN_POINT('',(0.,0.));
#68 = VECTOR('',#69,1.);
#69 = DIRECTION('',(0.,-1.));
#70 = ( GEOMETRIC_REPRESENTATION_CONTEXT(2) 
PARAMETRIC_REPRESENTATION_CONTEXT() REPRESENTATION_CONTEXT('2D SPACE',''
  ) );
#71 = PCURVE('',#72,#77);
#72 = PLANE('',#73);
#73 = AXIS2_PLACEMENT_3D('',#74,#75,#76);
#74 = CARTESIAN_POINT('',(-15.,-8.,-6.));
#75 = DIRECTION('',(0.,0.,1.));
#76 = DIRECTION('',(1.,0.,-0.));
#77 = DEFINITIONAL_REPRESENTATION('',(#78),#82);
#78 = LINE('',#79,#80);
#79 = CARTESIAN_POINT('',(0.,0.));
#80 = VECTOR('',#81,1.);
#81 = DIRECTION('',(0.,1.));
#82 = ( GEOMETRIC_REPRESENTATION_CONTEXT(2) 
PARAMETRIC_REPRESENTATION_CONTEXT() REPRESENTATION_CONTEXT('2D SPACE',''
  ) );
#83 = ORIENTED_EDGE('',*,*,#84,.T.);
#84 = EDGE_CURVE('',#57,#85,#87,.T.);
#85 = VERTEX_POINT('',#86);
#86 = CARTESIAN_POINT('',(-15.,8.,6.));
#87 = SURFACE_CURVE('',#88,(#92,#99),.PCURVE_S1.);
#88 = LINE('',#89,#90);
#89 = CARTESIAN_POINT('',(-15.,8.,-6.));
#90 = VECTOR('',#91,1.);
#91 = DIRECTION('',(0.,0.,1.));
#92 = PCURVE('',#32,#93);
#93 = DEFINITIONAL_REPRESENTATION('',(#94),#98);
#94 = LINE('',#95,#96);
#95 = CARTESIAN_POINT('',(0.,-16.));
#96 = VECTOR('',#97,1.);
#97 = DIRECTION('',(1.,0.));
#98 = ( GEOMETRIC_REPRESENTATION_CONTEXT(2) 
PARAMETRIC_REPRESENTATION_CONTEXT() REPRESENTATION_CONTEXT('2D SPACE',''
  ) );
#99 = PCURVE('',#100,#105);
#100 = PLANE('',#101);
#101 = AXIS2_PLACEMENT_3D('',#102,#103,#104);
#102 = CARTESIAN_POINT('',(-15.,8.,-6.));
#103 = DIRECTION('',(-0.,1.,0.));
#104 = DIRECTION('',(0.,0.,1.));
#105 = DEFINITIONAL_REPRESENTATION('',(#106),#110);
#106 = LINE('',#107,#108);
#107 = CARTESIAN_POINT('',(0.,0.));
#108 = VECTOR('',#109,1.);
#109 = DIRECTION('',(1.,0.));
#110 = ( GEOMETRIC_REPRESENTATION_CONTEXT(2) 
PARAMETRIC_REPRESENTATION_CONTEXT() REPRESENTATION_CONTEXT('2D SPACE',''
  ) );
#111 = ORIENTED_EDGE('',*,*,#112,.F.);
#112 = EDGE_CURVE('',#24,#85,#113,.T.);
#113 = SURFACE_CURVE('',#114,(#118,#125),.PCURVE_S1.);
#114 = LINE('',#115,#116);
#115 = CARTESIAN_POINT('',(-15.,-8.,6.));
#116 = VECTOR('',#117,1.);
#117 = DIRECTION('',(-0.,1.,0.));
#118 = PCURVE('',#32,#119);
#119 = DEFINITIONAL_REPRESENTATION('',(#120),#124);
#120 = LINE('',#121,#122);
#121 = CARTESIAN_POINT('',(12.,0.));
#122 = VECTOR('',#123,1.);
#123 = DIRECTION('',(0.,-1.));
#124 = ( GEOMETRIC_REPRESENTATION_CONTEXT(2) 
PARAMETRIC_REPRESENTATION_CONTEXT() REPRESENTATION_CONTEXT('2D SPACE',''
  ) );
#125 = PCURVE('',#126,#131);
#126 = PLANE('',#127);
#127 = AXIS2_PLACEMENT_3D('',#128,#129,#130);
#128 = CARTESIAN_POINT('',(-15.,-8.,6.));
#129 = DIRECTION('',(0.,0.,1.));
#130 = DIRECTION('',(1.,0.,-0.));
#131 = DEFINITIONAL_REPRESENTATION('',(#132),#136);
#132 = LINE('',#133,#134);
#133 = CARTESIAN_POINT('',(0.,0.));
#134 = VECTOR('',#135,1.);
#135 = DIRECTION('',(0.,1.));
#136 = ( GEOMETRIC_REPRESENTATION_CONTEXT(2) 
PARAMETRIC_REPRESENTATION_CONTEXT() REPRESENTATION_CONTEXT('2D SPACE',''
  ) );
#137 = FACE_BOUND('',#138,.F.);
#138 = EDGE_LOOP('',(#139));
#139 = ORIENTED_EDGE('',*,*,#140,.F.);
#140 = EDGE_CURVE('',#141,#141,#143,.T.);
#141 = VERTEX_POINT('',#142);
#142 = CARTESIAN_POINT('',(-15.,1.004210375301E-15,4.1));
#143 = SURFACE_CURVE('',#144,(#149,#156),.PCURVE_S1.);
#144 = CIRCLE('',#145,4.1);
#145 = AXIS2_PLACEMENT_3D('',#146,#147,#148);
#146 = CARTESIAN_POINT('',(-15.,0.,0.));
#147 = DIRECTION('',(1.,0.,0.));
#148 = DIRECTION('',(-0.,0.,1.));
#149 = PCURVE('',#32,#150);
#150 = DEFINITIONAL_REPRESENTATION('',(#151),#155);
#151 = CIRCLE('',#152,4.1);
#152 = AXIS2_PLACEMENT_2D('',#153,#154);
#153 = CARTESIAN_POINT('',(6.,-8.));
#154 = DIRECTION('',(1.,0.));
#155 = ( GEOMETRIC_REPRESENTATION_CONTEXT(2) 
PARAMETRIC_REPRESENTATION_CONTEXT() REPRESENTATION_CONTEXT('2D SPACE',''
  ) );
#156 = PCURVE('',#157,#162);
#157 = CYLINDRICAL_SURFACE('',#158,4.1);
#158 = AXIS2_PLACEMENT_3D('',#159,#160,#161);
#159 = CARTESIAN_POINT('',(-15.,0.,0.));
#160 = DIRECTION('',(1.,0.,0.));
#161 = DIRECTION('',(-0.,0.,1.));
#162 = DEFINITIONAL_REPRESENTATION('',(#163),#167);
#163 = LINE('',#164,#165);
#164 = CARTESIAN_POINT('',(0.,0.));
#165 = VECTOR('',#166,1.);
#166 = DIRECTION('',(1.,0.));
#167 = ( GEOMETRIC_REPRESENTATION_CONTEXT(2) 
PARAMETRIC_REPRESENTATION_CONTEXT() REPRESENTATION_CONTEXT('2D SPACE',''
  ) );
#168 = ADVANCED_FACE('',(#169),#44,.F.);
#169 = FACE_BOUND('',#170,.F.);
#170 = EDGE_LOOP('',(#171,#194,#195,#218));
#171 = ORIENTED_EDGE('',*,*,#172,.F.);
#172 = EDGE_CURVE('',#22,#173,#175,.T.);
#173 = VERTEX_POINT('',#174);
#174 = CARTESIAN_POINT('',(15.,-8.,-6.));
#175 = SURFACE_CURVE('',#176,(#180,#187),.PCURVE_S1.);
#176 = LINE('',#177,#178);
#177 = CARTESIAN_POINT('',(-15.,-8.,-6.));
#178 = VECTOR('',#179,1.);
#179 = DIRECTION('',(1.,0.,-0.));
#180 = PCURVE('',#44,#181);
#181 = DEFINITIONAL_REPRESENTATION('',(#182),#186);
#182 = LINE('',#183,#184);
#183 = CARTESIAN_POINT('',(0.,0.));
#184 = VECTOR('',#185,1.);
#185 = DIRECTION('',(0.,1.));
#186 = ( GEOMETRIC_REPRESENTATION_CONTEXT(2) 
PARAMETRIC_REPRESENTATION_CONTEXT() REPRESENTATION_CONTEXT('2D SPACE',''
  ) );
#187 = PCURVE('',#72,#188);
#188 = DEFINITIONAL_REPRESENTATION('',(#189),#193);
#189 = LINE('',#190,#191);
#190 = CARTESIAN_POINT('',(0.,0.));
#191 = VECTOR('',#192,1.);
#192 = DIRECTION('',(1.,0.));
#193 = ( GEOMETRIC_REPRESENTATION_CONTEXT(2) 
PARAMETRIC_REPRESENTATION_CONTEXT() REPRESENTATION_CONTEXT('2D SPACE',''
  ) );
#194 = ORIENTED_EDGE('',*,*,#21,.T.);
#195 = ORIENTED_EDGE('',*,*,#196,.T.);
#196 = EDGE_CURVE('',#24,#197,#199,.T.);
#197 = VERTEX_POINT('',#198);
#198 = CARTESIAN_POINT('',(15.,-8.,6.));
#199 = SURFACE_CURVE('',#200,(#204,#211),.PCURVE_S1.);
#200 = LINE('',#201,#202);
#201 = CARTESIAN_POINT('',(-15.,-8.,6.));
#202 = VECTOR('',#203,1.);
#203 = DIRECTION('',(1.,0.,-0.));
#204 = PCURVE('',#44,#205);
#205 = DEFINITIONAL_REPRESENTATION('',(#206),#210);
#206 = LINE('',#207,#208);
#207 = CARTESIAN_POINT('',(12.,0.));
#208 = VECTOR('',#209,1.);
#209 = DIRECTION('',(0.,1.));
#210 = ( GEOMETRIC_REPRESENTATION_CONTEXT(2) 
PARAMETRIC_REPRESENTATION_CONTEXT() REPRESENTATION_CONTEXT('2D SPACE',''
  ) );
#211 = PCURVE('',#126,#212);
#212 = DEFINITIONAL_REPRESENTATION('',(#213),#217);
#213 = LINE('',#214,#215);
#214 = CARTESIAN_POINT('',(0.,0.));
#215 = VECTOR('',#216,1.);
#216 = DIRECTION('',(1.,0.));
#217 = ( GEOMETRIC_REPRESENTATION_CONTEXT(2) 
PARAMETRIC_REPRESENTATION_CONTEXT() REPRESENTATION_CONTEXT('2D SPACE',''
  ) );
#218 = ORIENTED_EDGE('',*,*,#219,.F.);
#219 = EDGE_CURVE('',#173,#197,#220,.T.);
#220 = SURFACE_CURVE('',#221,(#225,#232),.PCURVE_S1.);
#221 = LINE('',#222,#223);
#222 = CARTESIAN_POINT('',(15.,-8.,-6.));
#223 = VECTOR('',#224,1.);
#224 = DIRECTION('',(0.,0.,1.));
#225 = PCURVE('',#44,#226);
#226 = DEFINITIONAL_REPRESENTATION('',(#227),#231);
#227 = LINE('',#228,#229);
#228 = CARTESIAN_POINT('',(0.,30.));
#229 = VECTOR('',#230,1.);
#230 = DIRECTION('',(1.,0.));
#231 = ( GEOMETRIC_REPRESENTATION_CONTEXT(2) 
PARAMETRIC_REPRESENTATION_CONTEXT() REPRESENTATION_CONTEXT('2D SPACE',''
  ) );
#232 = PCURVE('',#233,#238);
#233 = PLANE('',#234);
#234 = AXIS2_PLACEMENT_3D('',#235,#236,#237);
#235 = CARTESIAN_POINT('',(15.,-8.,-6.));
#236 = DIRECTION('',(1.,0.,-0.));
#237 = DIRECTION('',(0.,0.,1.));
#238 = DEFINITIONAL_REPRESENTATION('',(#239),#243);
#239 = LINE('',#240,#241);
#240 = CARTESIAN_POINT('',(0.,0.));
#241 = VECTOR('',#242,1.);
#242 = DIRECTION('',(1.,0.));
#243 = ( GEOMETRIC_REPRESENTATION_CONTEXT(2) 
PARAMETRIC_REPRESENTATION_CONTEXT() REPRESENTATION_CONTEXT('2D SPACE',''
  ) );
#244 = ADVANCED_FACE('',(#245,#293),#126,.T.);
#245 = FACE_BOUND('',#246,.T.);
#246 = EDGE_LOOP('',(#247,#248,#249,#272));
#247 = ORIENTED_EDGE('',*,*,#112,.F.);
#248 = ORIENTED_EDGE('',*,*,#196,.T.);
#249 = ORIENTED_EDGE('',*,*,#250,.T.);
#250 = EDGE_CURVE('',#197,#251,#253,.T.);
#251 = VERTEX_POINT('',#252);
#252 = CARTESIAN_POINT('',(15.,8.,6.));
#253 = SURFACE_CURVE('',#254,(#258,#265),.PCURVE_S1.);
#254 = LINE('',#255,#256);
#255 = CARTESIAN_POINT('',(15.,-8.,6.));
#256 = VECTOR('',#257,1.);
#257 = DIRECTION('',(-0.,1.,0.));
#258 = PCURVE('',#126,#259);
#259 = DEFINITIONAL_REPRESENTATION('',(#260),#264);
#260 = LINE('',#261,#262);
#261 = CARTESIAN_POINT('',(30.,0.));
#262 = VECTOR('',#263,1.);
#263 = DIRECTION('',(0.,1.));
#264 = ( GEOMETRIC_REPRESENTATION_CONTEXT(2) 
PARAMETRIC_REPRESENTATION_CONTEXT() REPRESENTATION_CONTEXT('2D SPACE',''
  ) );
#265 = PCURVE('',#233,#266);
#266 = DEFINITIONAL_REPRESENTATION('',(#267),#271);
#267 = LINE('',#268,#269);
#268 = CARTESIAN_POINT('',(12.,0.));
#269 = VECTOR('',#270,1.);
#270 = DIRECTION('',(0.,-1.));
#271 = ( GEOMETRIC_REPRESENTATION_CONTEXT(2) 
PARAMETRIC_REPRESENTATION_CONTEXT() REPRESENTATION_CONTEXT('2D SPACE',''
  ) );
#272 = ORIENTED_EDGE('',*,*,#273,.F.);
#273 = EDGE_CURVE('',#85,#251,#274,.T.);
#274 = SURFACE_CURVE('',#275,(#279,#286),.PCURVE_S1.);
#275 = LINE('',#276,#277);
#276 = CARTESIAN_POINT('',(-15.,8.,6.));
#277 = VECTOR('',#278,1.);
#278 = DIRECTION('',(1.,0.,-0.));
#279 = PCURVE('',#126,#280);
#280 = DEFINITIONAL_REPRESENTATION('',(#281),#285);
#281 = LINE('',#282,#283);
#282 = CARTESIAN_POINT('',(0.,16.));
#283 = VECTOR('',#284,1.);
#284 = DIRECTION('',(1.,0.));
#285 = ( GEOMETRIC_REPRESENTATION_CONTEXT(2) 
PARAMETRIC_REPRESENTATION_CONTEXT() REPRESENTATION_CONTEXT('2D SPACE',''
  ) );
#286 = PCURVE('',#100,#287);
#287 = DEFINITIONAL_REPRESENTATION('',(#288),#292);
#288 = LINE('',#289,#290);
#289 = CARTESIAN_POINT('',(12.,0.));
#290 = VECTOR('',#291,1.);
#291 = DIRECTION('',(0.,1.));
#292 = ( GEOMETRIC_REPRESENTATION_CONTEXT(2) 
PARAMETRIC_REPRESENTATION_CONTEXT() REPRESENTATION_CONTEXT('2D SPACE',''
  ) );
#293 = FACE_BOUND('',#294,.T.);
#294 = EDGE_LOOP('',(#295,#330,#358,#391));
#295 = ORIENTED_EDGE('',*,*,#296,.T.);
#296 = EDGE_CURVE('',#297,#299,#301,.T.);
#297 = VERTEX_POINT('',#298);
#298 = CARTESIAN_POINT('',(-4.5,-2.5,6.));
#299 = VERTEX_POINT('',#300);
#300 = CARTESIAN_POINT('',(-4.5,2.5,6.));
#301 = SURFACE_CURVE('',#302,(#307,#318),.PCURVE_S1.);
#302 = CIRCLE('',#303,2.5);
#303 = AXIS2_PLACEMENT_3D('',#304,#305,#306);
#304 = CARTESIAN_POINT('',(-4.5,2.22044604925E-16,6.));
#305 = DIRECTION('',(0.,-0.,-1.));
#306 = DIRECTION('',(0.,-1.,0.));
#307 = PCURVE('',#126,#308);
#308 = DEFINITIONAL_REPRESENTATION('',(#309),#317);
#309 = ( BOUNDED_CURVE() B_SPLINE_CURVE(2,(#310,#311,#312,#313,#314,#315
,#316),.UNSPECIFIED.,.T.,.F.) B_SPLINE_CURVE_WITH_KNOTS((1,2,2,2,2,1),(
    -2.094395102393,0.,2.094395102393,4.188790204786,6.28318530718,
8.377580409573),.UNSPECIFIED.) CURVE() GEOMETRIC_REPRESENTATION_ITEM() 
RATIONAL_B_SPLINE_CURVE((1.,0.5,1.,0.5,1.,0.5,1.)) REPRESENTATION_ITEM(
  '') );
#310 = CARTESIAN_POINT('',(10.5,5.5));
#311 = CARTESIAN_POINT('',(6.169872981078,5.5));
#312 = CARTESIAN_POINT('',(8.334936490539,9.25));
#313 = CARTESIAN_POINT('',(10.5,13.));
#314 = CARTESIAN_POINT('',(12.665063509461,9.25));
#315 = CARTESIAN_POINT('',(14.830127018922,5.5));
#316 = CARTESIAN_POINT('',(10.5,5.5));
#317 = ( GEOMETRIC_REPRESENTATION_CONTEXT(2) 
PARAMETRIC_REPRESENTATION_CONTEXT() REPRESENTATION_CONTEXT('2D SPACE',''
  ) );
#318 = PCURVE('',#319,#324);
#319 = CYLINDRICAL_SURFACE('',#320,2.5);
#320 = AXIS2_PLACEMENT_3D('',#321,#322,#323);
#321 = CARTESIAN_POINT('',(-4.5,2.22044604925E-16,0.));
#322 = DIRECTION('',(0.,-0.,-1.));
#323 = DIRECTION('',(0.,-1.,0.));
#324 = DEFINITIONAL_REPRESENTATION('',(#325),#329);
#325 = LINE('',#326,#327);
#326 = CARTESIAN_POINT('',(0.,-6.));
#327 = VECTOR('',#328,1.);
#328 = DIRECTION('',(1.,0.));
#329 = ( GEOMETRIC_REPRESENTATION_CONTEXT(2) 
PARAMETRIC_REPRESENTATION_CONTEXT() REPRESENTATION_CONTEXT('2D SPACE',''
  ) );
#330 = ORIENTED_EDGE('',*,*,#331,.T.);
#331 = EDGE_CURVE('',#299,#332,#334,.T.);
#332 = VERTEX_POINT('',#333);
#333 = CARTESIAN_POINT('',(8.5,2.5,6.));
#334 = SURFACE_CURVE('',#335,(#339,#346),.PCURVE_S1.);
#335 = LINE('',#336,#337);
#336 = CARTESIAN_POINT('',(-4.5,2.5,6.));
#337 = VECTOR('',#338,1.);
#338 = DIRECTION('',(1.,0.,0.));
#339 = PCURVE('',#126,#340);
#340 = DEFINITIONAL_REPRESENTATION('',(#341),#345);
#341 = LINE('',#342,#343);
#342 = CARTESIAN_POINT('',(10.5,10.5));
#343 = VECTOR('',#344,1.);
#344 = DIRECTION('',(1.,0.));
#345 = ( GEOMETRIC_REPRESENTATION_CONTEXT(2) 
PARAMETRIC_REPRESENTATION_CONTEXT() REPRESENTATION_CONTEXT('2D SPACE',''
  ) );
#346 = PCURVE('',#347,#352);
#347 = PLANE('',#348);
#348 = AXIS2_PLACEMENT_3D('',#349,#350,#351);
#349 = CARTESIAN_POINT('',(-4.5,2.5,0.));
#350 = DIRECTION('',(0.,1.,0.));
#351 = DIRECTION('',(1.,0.,0.));
#352 = DEFINITIONAL_REPRESENTATION('',(#353),#357);
#353 = LINE('',#354,#355);
#354 = CARTESIAN_POINT('',(0.,-6.));
#355 = VECTOR('',#356,1.);
#356 = DIRECTION('',(1.,0.));
#357 = ( GEOMETRIC_REPRESENTATION_CONTEXT(2) 
PARAMETRIC_REPRESENTATION_CONTEXT() REPRESENTATION_CONTEXT('2D SPACE',''
  ) );
#358 = ORIENTED_EDGE('',*,*,#359,.T.);
#359 = EDGE_CURVE('',#332,#360,#362,.T.);
#360 = VERTEX_POINT('',#361);
#361 = CARTESIAN_POINT('',(8.5,-2.5,6.));
#362 = SURFACE_CURVE('',#363,(#368,#379),.PCURVE_S1.);
#363 = CIRCLE('',#364,2.5);
#364 = AXIS2_PLACEMENT_3D('',#365,#366,#367);
#365 = CARTESIAN_POINT('',(8.5,-2.22044604925E-16,6.));
#366 = DIRECTION('',(0.,0.,-1.));
#367 = DIRECTION('',(0.,1.,0.));
#368 = PCURVE('',#126,#369);
#369 = DEFINITIONAL_REPRESENTATION('',(#370),#378);
#370 = ( BOUNDED_CURVE() B_SPLINE_CURVE(2,(#371,#372,#373,#374,#375,#376
,#377),.UNSPECIFIED.,.T.,.F.) B_SPLINE_CURVE_WITH_KNOTS((1,2,2,2,2,1),(
    -2.094395102393,0.,2.094395102393,4.188790204786,6.28318530718,
8.377580409573),.UNSPECIFIED.) CURVE() GEOMETRIC_REPRESENTATION_ITEM() 
RATIONAL_B_SPLINE_CURVE((1.,0.5,1.,0.5,1.,0.5,1.)) REPRESENTATION_ITEM(
  '') );
#371 = CARTESIAN_POINT('',(23.5,10.5));
#372 = CARTESIAN_POINT('',(27.830127018922,10.5));
#373 = CARTESIAN_POINT('',(25.665063509461,6.75));
#374 = CARTESIAN_POINT('',(23.5,3.));
#375 = CARTESIAN_POINT('',(21.334936490539,6.75));
#376 = CARTESIAN_POINT('',(19.169872981078,10.5));
#377 = CARTESIAN_POINT('',(23.5,10.5));
#378 = ( GEOMETRIC_REPRESENTATION_CONTEXT(2) 
PARAMETRIC_REPRESENTATION_CONTEXT() REPRESENTATION_CONTEXT('2D SPACE',''
  ) );
#379 = PCURVE('',#380,#385);
#380 = CYLINDRICAL_SURFACE('',#381,2.5);
#381 = AXIS2_PLACEMENT_3D('',#382,#383,#384);
#382 = CARTESIAN_POINT('',(8.5,-2.22044604925E-16,0.));
#383 = DIRECTION('',(0.,0.,-1.));
#384 = DIRECTION('',(0.,1.,0.));
#385 = DEFINITIONAL_REPRESENTATION('',(#386),#390);
#386 = LINE('',#387,#388);
#387 = CARTESIAN_POINT('',(0.,-6.));
#388 = VECTOR('',#389,1.);
#389 = DIRECTION('',(1.,0.));
#390 = ( GEOMETRIC_REPRESENTATION_CONTEXT(2) 
PARAMETRIC_REPRESENTATION_CONTEXT() REPRESENTATION_CONTEXT('2D SPACE',''
  ) );
#391 = ORIENTED_EDGE('',*,*,#392,.T.);
#392 = EDGE_CURVE('',#360,#297,#393,.T.);
#393 = SURFACE_CURVE('',#394,(#398,#405),.PCURVE_S1.);
#394 = LINE('',#395,#396);
#395 = CARTESIAN_POINT('',(8.5,-2.5,6.));
#396 = VECTOR('',#397,1.);
#397 = DIRECTION('',(-1.,0.,0.));
#398 = PCURVE('',#126,#399);
#399 = DEFINITIONAL_REPRESENTATION('',(#400),#404);
#400 = LINE('',#401,#402);
#401 = CARTESIAN_POINT('',(23.5,5.5));
#402 = VECTOR('',#403,1.);
#403 = DIRECTION('',(-1.,0.));
#404 = ( GEOMETRIC_REPRESENTATION_CONTEXT(2) 
PARAMETRIC_REPRESENTATION_CONTEXT() REPRESENTATION_CONTEXT('2D SPACE',''
  ) );
#405 = PCURVE('',#406,#411);
#406 = PLANE('',#407);
#407 = AXIS2_PLACEMENT_3D('',#408,#409,#410);
#408 = CARTESIAN_POINT('',(8.5,-2.5,0.));
#409 = DIRECTION('',(0.,-1.,0.));
#410 = DIRECTION('',(-1.,0.,0.));
#411 = DEFINITIONAL_REPRESENTATION('',(#412),#416);
#412 = LINE('',#413,#414);
#413 = CARTESIAN_POINT('',(0.,-6.));
#414 = VECTOR('',#415,1.);
#415 = DIRECTION('',(1.,0.));
#416 = ( GEOMETRIC_REPRESENTATION_CONTEXT(2) 
PARAMETRIC_REPRESENTATION_CONTEXT() REPRESENTATION_CONTEXT('2D SPACE',''
  ) );
#417 = ADVANCED_FACE('',(#418),#72,.F.);
#418 = FACE_BOUND('',#419,.F.);
#419 = EDGE_LOOP('',(#420,#421,#422,#445));
#420 = ORIENTED_EDGE('',*,*,#56,.F.);
#421 = ORIENTED_EDGE('',*,*,#172,.T.);
#422 = ORIENTED_EDGE('',*,*,#423,.T.);
#423 = EDGE_CURVE('',#173,#424,#426,.T.);
#424 = VERTEX_POINT('',#425);
#425 = CARTESIAN_POINT('',(15.,8.,-6.));
#426 = SURFACE_CURVE('',#427,(#431,#438),.PCURVE_S1.);
#427 = LINE('',#428,#429);
#428 = CARTESIAN_POINT('',(15.,-8.,-6.));
#429 = VECTOR('',#430,1.);
#430 = DIRECTION('',(-0.,1.,0.));
#431 = PCURVE('',#72,#432);
#432 = DEFINITIONAL_REPRESENTATION('',(#433),#437);
#433 = LINE('',#434,#435);
#434 = CARTESIAN_POINT('',(30.,0.));
#435 = VECTOR('',#436,1.);
#436 = DIRECTION('',(0.,1.));
#437 = ( GEOMETRIC_REPRESENTATION_CONTEXT(2) 
PARAMETRIC_REPRESENTATION_CONTEXT() REPRESENTATION_CONTEXT('2D SPACE',''
  ) );
#438 = PCURVE('',#233,#439);
#439 = DEFINITIONAL_REPRESENTATION('',(#440),#444);
#440 = LINE('',#441,#442);
#441 = CARTESIAN_POINT('',(0.,0.));
#442 = VECTOR('',#443,1.);
#443 = DIRECTION('',(0.,-1.));
#444 = ( GEOMETRIC_REPRESENTATION_CONTEXT(2) 
PARAMETRIC_REPRESENTATION_CONTEXT() REPRESENTATION_CONTEXT('2D SPACE',''
  ) );
#445 = ORIENTED_EDGE('',*,*,#446,.F.);
#446 = EDGE_CURVE('',#57,#424,#447,.T.);
#447 = SURFACE_CURVE('',#448,(#452,#459),.PCURVE_S1.);
#448 = LINE('',#449,#450);
#449 = CARTESIAN_POINT('',(-15.,8.,-6.));
#450 = VECTOR('',#451,1.);
#451 = DIRECTION('',(1.,0.,-0.));
#452 = PCURVE('',#72,#453);
#453 = DEFINITIONAL_REPRESENTATION('',(#454),#458);
#454 = LINE('',#455,#456);
#455 = CARTESIAN_POINT('',(0.,16.));
#456 = VECTOR('',#457,1.);
#457 = DIRECTION('',(1.,0.));
#458 = ( GEOMETRIC_REPRESENTATION_CONTEXT(2) 
PARAMETRIC_REPRESENTATION_CONTEXT() REPRESENTATION_CONTEXT('2D SPACE',''
  ) );
#459 = PCURVE('',#100,#460);
#460 = DEFINITIONAL_REPRESENTATION('',(#461),#465);
#461 = LINE('',#462,#463);
#462 = CARTESIAN_POINT('',(0.,0.));
#463 = VECTOR('',#464,1.);
#464 = DIRECTION('',(0.,1.));
#465 = ( GEOMETRIC_REPRESENTATION_CONTEXT(2) 
PARAMETRIC_REPRESENTATION_CONTEXT() REPRESENTATION_CONTEXT('2D SPACE',''
  ) );
#466 = ADVANCED_FACE('',(#467),#100,.T.);
#467 = FACE_BOUND('',#468,.T.);
#468 = EDGE_LOOP('',(#469,#470,#471,#472));
#469 = ORIENTED_EDGE('',*,*,#446,.F.);
#470 = ORIENTED_EDGE('',*,*,#84,.T.);
#471 = ORIENTED_EDGE('',*,*,#273,.T.);
#472 = ORIENTED_EDGE('',*,*,#473,.F.);
#473 = EDGE_CURVE('',#424,#251,#474,.T.);
#474 = SURFACE_CURVE('',#475,(#479,#486),.PCURVE_S1.);
#475 = LINE('',#476,#477);
#476 = CARTESIAN_POINT('',(15.,8.,-6.));
#477 = VECTOR('',#478,1.);
#478 = DIRECTION('',(0.,0.,1.));
#479 = PCURVE('',#100,#480);
#480 = DEFINITIONAL_REPRESENTATION('',(#481),#485);
#481 = LINE('',#482,#483);
#482 = CARTESIAN_POINT('',(0.,30.));
#483 = VECTOR('',#484,1.);
#484 = DIRECTION('',(1.,0.));
#485 = ( GEOMETRIC_REPRESENTATION_CONTEXT(2) 
PARAMETRIC_REPRESENTATION_CONTEXT() REPRESENTATION_CONTEXT('2D SPACE',''
  ) );
#486 = PCURVE('',#233,#487);
#487 = DEFINITIONAL_REPRESENTATION('',(#488),#492);
#488 = LINE('',#489,#490);
#489 = CARTESIAN_POINT('',(0.,-16.));
#490 = VECTOR('',#491,1.);
#491 = DIRECTION('',(1.,0.));
#492 = ( GEOMETRIC_REPRESENTATION_CONTEXT(2) 
PARAMETRIC_REPRESENTATION_CONTEXT() REPRESENTATION_CONTEXT('2D SPACE',''
  ) );
#493 = ADVANCED_FACE('',(#494),#157,.F.);
#494 = FACE_BOUND('',#495,.F.);
#495 = EDGE_LOOP('',(#496,#524,#545,#546));
#496 = ORIENTED_EDGE('',*,*,#497,.F.);
#497 = EDGE_CURVE('',#498,#498,#500,.T.);
#498 = VERTEX_POINT('',#499);
#499 = CARTESIAN_POINT('',(-8.,1.004210375301E-15,4.1));
#500 = SURFACE_CURVE('',#501,(#506,#513),.PCURVE_S1.);
#501 = CIRCLE('',#502,4.1);
#502 = AXIS2_PLACEMENT_3D('',#503,#504,#505);
#503 = CARTESIAN_POINT('',(-8.,0.,0.));
#504 = DIRECTION('',(1.,0.,0.));
#505 = DIRECTION('',(-0.,0.,1.));
#506 = PCURVE('',#157,#507);
#507 = DEFINITIONAL_REPRESENTATION('',(#508),#512);
#508 = LINE('',#509,#510);
#509 = CARTESIAN_POINT('',(0.,7.));
#510 = VECTOR('',#511,1.);
#511 = DIRECTION('',(1.,0.));
#512 = ( GEOMETRIC_REPRESENTATION_CONTEXT(2) 
PARAMETRIC_REPRESENTATION_CONTEXT() REPRESENTATION_CONTEXT('2D SPACE',''
  ) );
#513 = PCURVE('',#514,#519);
#514 = CONICAL_SURFACE('',#515,4.1,0.1840058941);
#515 = AXIS2_PLACEMENT_3D('',#516,#517,#518);
#516 = CARTESIAN_POINT('',(-8.,0.,0.));
#517 = DIRECTION('',(-1.,-0.,-0.));
#518 = DIRECTION('',(-0.,0.,1.));
#519 = DEFINITIONAL_REPRESENTATION('',(#520),#523);
#520 = B_SPLINE_CURVE_WITH_KNOTS('',1,(#521,#522),.UNSPECIFIED.,.F.,.F.,
  (2,2),(0.,6.28318530718),.PIECEWISE_BEZIER_KNOTS.);
#521 = CARTESIAN_POINT('',(0.,0.));
#522 = CARTESIAN_POINT('',(-6.28318530718,0.));
#523 = ( GEOMETRIC_REPRESENTATION_CONTEXT(2) 
PARAMETRIC_REPRESENTATION_CONTEXT() REPRESENTATION_CONTEXT('2D SPACE',''
  ) );
#524 = ORIENTED_EDGE('',*,*,#525,.F.);
#525 = EDGE_CURVE('',#141,#498,#526,.T.);
#526 = SEAM_CURVE('',#527,(#531,#538),.PCURVE_S1.);
#527 = LINE('',#528,#529);
#528 = CARTESIAN_POINT('',(-15.,1.004210375301E-15,4.1));
#529 = VECTOR('',#530,1.);
#530 = DIRECTION('',(1.,0.,0.));
#531 = PCURVE('',#157,#532);
#532 = DEFINITIONAL_REPRESENTATION('',(#533),#537);
#533 = LINE('',#534,#535);
#534 = CARTESIAN_POINT('',(6.28318530718,-0.));
#535 = VECTOR('',#536,1.);
#536 = DIRECTION('',(0.,1.));
#537 = ( GEOMETRIC_REPRESENTATION_CONTEXT(2) 
PARAMETRIC_REPRESENTATION_CONTEXT() REPRESENTATION_CONTEXT('2D SPACE',''
  ) );
#538 = PCURVE('',#157,#539);
#539 = DEFINITIONAL_REPRESENTATION('',(#540),#544);
#540 = LINE('',#541,#542);
#541 = CARTESIAN_POINT('',(0.,-0.));
#542 = VECTOR('',#543,1.);
#543 = DIRECTION('',(0.,1.));
#544 = ( GEOMETRIC_REPRESENTATION_CONTEXT(2) 
PARAMETRIC_REPRESENTATION_CONTEXT() REPRESENTATION_CONTEXT('2D SPACE',''
  ) );
#545 = ORIENTED_EDGE('',*,*,#140,.T.);
#546 = ORIENTED_EDGE('',*,*,#525,.T.);
#547 = ADVANCED_FACE('',(#548),#233,.T.);
#548 = FACE_BOUND('',#549,.T.);
#549 = EDGE_LOOP('',(#550,#551,#552,#553));
#550 = ORIENTED_EDGE('',*,*,#219,.F.);
#551 = ORIENTED_EDGE('',*,*,#423,.T.);
#552 = ORIENTED_EDGE('',*,*,#473,.T.);
#553 = ORIENTED_EDGE('',*,*,#250,.F.);
#554 = ADVANCED_FACE('',(#555),#319,.F.);
#555 = FACE_BOUND('',#556,.F.);
#556 = EDGE_LOOP('',(#557,#687,#708,#709,#732));
#557 = ORIENTED_EDGE('',*,*,#558,.F.);
#558 = EDGE_CURVE('',#559,#561,#563,.T.);
#559 = VERTEX_POINT('',#560);
#560 = CARTESIAN_POINT('',(-4.5,-2.5,2.375482813173));
#561 = VERTEX_POINT('',#562);
#562 = CARTESIAN_POINT('',(-7.,9.586262999992E-16,3.913888888889));
#563 = SURFACE_CURVE('',#564,(#603,#645),.PCURVE_S1.);
#564 = B_SPLINE_CURVE_WITH_KNOTS('',7,(#565,#566,#567,#568,#569,#570,
    #571,#572,#573,#574,#575,#576,#577,#578,#579,#580,#581,#582,#583,
    #584,#585,#586,#587,#588,#589,#590,#591,#592,#593,#594,#595,#596,
    #597,#598,#599,#600,#601,#602),.UNSPECIFIED.,.F.,.F.,(8,6,6,6,6,6,8)
  ,(0.,0.120772546688,0.35752141642,0.673041220674,0.783348806652,
    0.867356926976,1.),.UNSPECIFIED.);
#565 = CARTESIAN_POINT('',(-4.5,-2.5,2.375482813173));
#566 = CARTESIAN_POINT('',(-4.563321332738,-2.5,2.392591421321));
#567 = CARTESIAN_POINT('',(-4.626180944425,-2.49812878539,2.411469201081
    ));
#568 = CARTESIAN_POINT('',(-4.688519416568,-2.49443575252,2.431992180966
    ));
#569 = CARTESIAN_POINT('',(-4.750292479276,-2.488970838737,
    2.454029513717));
#570 = CARTESIAN_POINT('',(-4.811468974247,-2.481781992886,
    2.477449170791));
#571 = CARTESIAN_POINT('',(-4.872028817764,-2.472912645811,
    2.502123636856));
#572 = CARTESIAN_POINT('',(-5.049445178407,-2.441789770726,
    2.578534471981));
#573 = CARTESIAN_POINT('',(-5.164476272018,-2.414869745563,
    2.633486177801));
#574 = CARTESIAN_POINT('',(-5.277056891121,-2.381909243387,
    2.691928865634));
#575 = CARTESIAN_POINT('',(-5.387193999369,-2.343072624416,
    2.753098078637));
#576 = CARTESIAN_POINT('',(-5.494894278789,-2.298436852832,
    2.816341609986));
#577 = CARTESIAN_POINT('',(-5.60016216679,-2.247978133387,2.881113256853
    ));
#578 = CARTESIAN_POINT('',(-5.84005520576,-2.116293021271,3.034681353312
    ));
#579 = CARTESIAN_POINT('',(-5.972559638318,-2.030545215079,
    3.124150864435));
#580 = CARTESIAN_POINT('',(-6.100689172737,-1.933858477314,
    3.214330551236));
#581 = CARTESIAN_POINT('',(-6.224115755918,-1.825563255395,
    3.304183395786));
#582 = CARTESIAN_POINT('',(-6.342098415116,-1.704779461166,
    3.392461334116));
#583 = CARTESIAN_POINT('',(-6.453550459139,-1.570544556359,
    3.477725446239));
#584 = CARTESIAN_POINT('',(-6.592855590423,-1.368935777706,
    3.586169474986));
#585 = CARTESIAN_POINT('',(-6.627915483237,-1.314887368193,
    3.613645320416));
#586 = CARTESIAN_POINT('',(-6.661869763642,-1.258959178498,
    3.640418804263));
#587 = CARTESIAN_POINT('',(-6.694619646363,-1.201102159333,
    3.666388255425));
#588 = CARTESIAN_POINT('',(-6.726048613091,-1.141277639018,
    3.691437905958));
#589 = CARTESIAN_POINT('',(-6.756023972512,-1.079460045697,
    3.715438920113));
#590 = CARTESIAN_POINT('',(-6.806007850071,-0.967035237118,
    3.755623222291));
#591 = CARTESIAN_POINT('',(-6.826687065062,-0.917272828523,
    3.772304757051));
#592 = CARTESIAN_POINT('',(-6.846370488125,-0.866350991691,
    3.788232482889));
#593 = CARTESIAN_POINT('',(-6.864984845964,-0.814279690707,
    3.803337548015));
#594 = CARTESIAN_POINT('',(-6.882451711157,-0.761082877416,
    3.817547009365));
#595 = CARTESIAN_POINT('',(-6.898690044146,-0.706801103022,
    3.830786048367));
#596 = CARTESIAN_POINT('',(-6.937190116797,-0.564168203621,
    3.862233896623));
#597 = CARTESIAN_POINT('',(-6.957510316,-0.474236363287,3.878893908681)
  );
#598 = CARTESIAN_POINT('',(-6.974232385347,-0.382009734451,
    3.892644883506));
#599 = CARTESIAN_POINT('',(-6.987041611756,-0.287896015693,
    3.903199930056));
#600 = CARTESIAN_POINT('',(-6.995682260855,-0.192410373467,
    3.910327378819));
#601 = CARTESIAN_POINT('',(-7.,-9.618823799434E-02,3.913888888889));
#602 = CARTESIAN_POINT('',(-7.,0.,3.913888888889));
#603 = PCURVE('',#319,#604);
#604 = DEFINITIONAL_REPRESENTATION('',(#605),#644);
#605 = B_SPLINE_CURVE_WITH_KNOTS('',7,(#606,#607,#608,#609,#610,#611,
    #612,#613,#614,#615,#616,#617,#618,#619,#620,#621,#622,#623,#624,
    #625,#626,#627,#628,#629,#630,#631,#632,#633,#634,#635,#636,#637,
    #638,#639,#640,#641,#642,#643),.UNSPECIFIED.,.F.,.F.,(8,6,6,6,6,6,8)
  ,(0.,0.120772546688,0.35752141642,0.673041220674,0.783348806652,
    0.867356926976,1.),.UNSPECIFIED.);
#606 = CARTESIAN_POINT('',(0.,-2.375482813173));
#607 = CARTESIAN_POINT('',(2.532853309532E-02,-2.392591421321));
#608 = CARTESIAN_POINT('',(5.047235969785E-02,-2.411469201081));
#609 = CARTESIAN_POINT('',(7.543432269801E-02,-2.431992180966));
#610 = CARTESIAN_POINT('',(0.100221421854,-2.454029513717));
#611 = CARTESIAN_POINT('',(0.124844337052,-2.477449170791));
#612 = CARTESIAN_POINT('',(0.149316951567,-2.502123636856));
#613 = CARTESIAN_POINT('',(0.221367154484,-2.578534471981));
#614 = CARTESIAN_POINT('',(0.268548184664,-2.633486177801));
#615 = CARTESIAN_POINT('',(0.315358239344,-2.691928865634));
#616 = CARTESIAN_POINT('',(0.361949474532,-2.753098078637));
#617 = CARTESIAN_POINT('',(0.40847394797,-2.816341609986));
#618 = CARTESIAN_POINT('',(0.455097907508,-2.881113256853));
#619 = CARTESIAN_POINT('',(0.564561792986,-3.034681353312));
#620 = CARTESIAN_POINT('',(0.627528194646,-3.124150864435));
#621 = CARTESIAN_POINT('',(0.691467178697,-3.214330551235));
#622 = CARTESIAN_POINT('',(0.756810593679,-3.304183395786));
#623 = CARTESIAN_POINT('',(0.824010783472,-3.392461334116));
#624 = CARTESIAN_POINT('',(0.893528011323,-3.477725446239));
#625 = CARTESIAN_POINT('',(0.991550065358,-3.586169474986));
#626 = CARTESIAN_POINT('',(1.017308617183,-3.613645320416));
#627 = CARTESIAN_POINT('',(1.043461082217,-3.640418804263));
#628 = CARTESIAN_POINT('',(1.070031401779,-3.666388255425));
#629 = CARTESIAN_POINT('',(1.097040401908,-3.691437905958));
#630 = CARTESIAN_POINT('',(1.124506020802,-3.715438920113));
#631 = CARTESIAN_POINT('',(1.173720206724,-3.755623222291));
#632 = CARTESIAN_POINT('',(1.195268997176,-3.772304757051));
#633 = CARTESIAN_POINT('',(1.217095414236,-3.788232482889));
#634 = CARTESIAN_POINT('',(1.239201546943,-3.803337548015));
#635 = CARTESIAN_POINT('',(1.26158546049,-3.817547009365));
#636 = CARTESIAN_POINT('',(1.284240589994,-3.830786048367));
#637 = CARTESIAN_POINT('',(1.343335631527,-3.862233896623));
#638 = CARTESIAN_POINT('',(1.380183544736,-3.878893908681));
#639 = CARTESIAN_POINT('',(1.417620095991,-3.892644883506));
#640 = CARTESIAN_POINT('',(1.455544818106,-3.903199930056));
#641 = CARTESIAN_POINT('',(1.493832205784,-3.910327378819));
#642 = CARTESIAN_POINT('',(1.532321031597,-3.913888888889));
#643 = CARTESIAN_POINT('',(1.570796326795,-3.913888888889));
#644 = ( GEOMETRIC_REPRESENTATION_CONTEXT(2) 
PARAMETRIC_REPRESENTATION_CONTEXT() REPRESENTATION_CONTEXT('2D SPACE',''
  ) );
#645 = PCURVE('',#514,#646);
#646 = DEFINITIONAL_REPRESENTATION('',(#647),#686);
#647 = B_SPLINE_CURVE_WITH_KNOTS('',7,(#648,#649,#650,#651,#652,#653,
    #654,#655,#656,#657,#658,#659,#660,#661,#662,#663,#664,#665,#666,
    #667,#668,#669,#670,#671,#672,#673,#674,#675,#676,#677,#678,#679,
    #680,#681,#682,#683,#684,#685),.UNSPECIFIED.,.F.,.F.,(8,6,6,6,6,6,8)
  ,(0.,0.120772546688,0.35752141642,0.673041220674,0.783348806652,
    0.867356926976,1.),.UNSPECIFIED.);
#648 = CARTESIAN_POINT('',(-0.810932070397,-3.5));
#649 = CARTESIAN_POINT('',(-0.807335684865,-3.436678667262));
#650 = CARTESIAN_POINT('',(-0.803022309951,-3.373819055575));
#651 = CARTESIAN_POINT('',(-0.798037765566,-3.311480583432));
#652 = CARTESIAN_POINT('',(-0.792427761996,-3.249707520724));
#653 = CARTESIAN_POINT('',(-0.786236270999,-3.188531025753));
#654 = CARTESIAN_POINT('',(-0.779503896883,-3.127971182236));
#655 = CARTESIAN_POINT('',(-0.758078376816,-2.950554821593));
#656 = CARTESIAN_POINT('',(-0.74195399103,-2.835523727982));
#657 = CARTESIAN_POINT('',(-0.724156483099,-2.722943108879));
#658 = CARTESIAN_POINT('',(-0.704887580748,-2.612806000631));
#659 = CARTESIAN_POINT('',(-0.684292803415,-2.505105721211));
#660 = CARTESIAN_POINT('',(-0.662462924047,-2.39983783321));
#661 = CARTESIAN_POINT('',(-0.608736925471,-2.15994479424));
#662 = CARTESIAN_POINT('',(-0.575960956655,-2.027440361682));
#663 = CARTESIAN_POINT('',(-0.541160097768,-1.899310827263));
#664 = CARTESIAN_POINT('',(-0.50430448702,-1.775884244082));
#665 = CARTESIAN_POINT('',(-0.465297107563,-1.657901584884));
#666 = CARTESIAN_POINT('',(-0.423991694357,-1.546449540861));
#667 = CARTESIAN_POINT('',(-0.364626645482,-1.407144409577));
#668 = CARTESIAN_POINT('',(-0.348929180181,-1.372084516763));
#669 = CARTESIAN_POINT('',(-0.332900181785,-1.338130236358));
#670 = CARTESIAN_POINT('',(-0.316529139237,-1.305380353637));
#671 = CARTESIAN_POINT('',(-0.299807266358,-1.273951386909));
#672 = CARTESIAN_POINT('',(-0.282727572237,-1.243976027488));
#673 = CARTESIAN_POINT('',(-0.252000954459,-1.193992149929));
#674 = CARTESIAN_POINT('',(-0.238507453092,-1.173312934938));
#675 = CARTESIAN_POINT('',(-0.224802936466,-1.153629511875));
#676 = CARTESIAN_POINT('',(-0.210888126542,-1.135015154036));
#677 = CARTESIAN_POINT('',(-0.196766404841,-1.117548288843));
#678 = CARTESIAN_POINT('',(-0.182444258993,-1.101309955854));
#679 = CARTESIAN_POINT('',(-0.145017438007,-1.062809883203));
#680 = CARTESIAN_POINT('',(-0.121615403558,-1.042489684));
#681 = CARTESIAN_POINT('',(-9.778548670781E-02,-1.025767614653));
#682 = CARTESIAN_POINT('',(-7.360300098287E-02,-1.012958388244));
#683 = CARTESIAN_POINT('',(-4.916090667421E-02,-1.004317739145));
#684 = CARTESIAN_POINT('',(-2.457612894107E-02,-1.));
#685 = CARTESIAN_POINT('',(0.,-1.));
#686 = ( GEOMETRIC_REPRESENTATION_CONTEXT(2) 
PARAMETRIC_REPRESENTATION_CONTEXT() REPRESENTATION_CONTEXT('2D SPACE',''
  ) );
#687 = ORIENTED_EDGE('',*,*,#688,.T.);
#688 = EDGE_CURVE('',#559,#297,#689,.T.);
#689 = SURFACE_CURVE('',#690,(#694,#701),.PCURVE_S1.);
#690 = LINE('',#691,#692);
#691 = CARTESIAN_POINT('',(-4.5,-2.5,0.));
#692 = VECTOR('',#693,1.);
#693 = DIRECTION('',(0.,0.,1.));
#694 = PCURVE('',#319,#695);
#695 = DEFINITIONAL_REPRESENTATION('',(#696),#700);
#696 = LINE('',#697,#698);
#697 = CARTESIAN_POINT('',(0.,0.));
#698 = VECTOR('',#699,1.);
#699 = DIRECTION('',(0.,-1.));
#700 = ( GEOMETRIC_REPRESENTATION_CONTEXT(2) 
PARAMETRIC_REPRESENTATION_CONTEXT() REPRESENTATION_CONTEXT('2D SPACE',''
  ) );
#701 = PCURVE('',#406,#702);
#702 = DEFINITIONAL_REPRESENTATION('',(#703),#707);
#703 = LINE('',#704,#705);
#704 = CARTESIAN_POINT('',(13.,0.));
#705 = VECTOR('',#706,1.);
#706 = DIRECTION('',(0.,-1.));
#707 = ( GEOMETRIC_REPRESENTATION_CONTEXT(2) 
PARAMETRIC_REPRESENTATION_CONTEXT() REPRESENTATION_CONTEXT('2D SPACE',''
  ) );
#708 = ORIENTED_EDGE('',*,*,#296,.T.);
#709 = ORIENTED_EDGE('',*,*,#710,.F.);
#710 = EDGE_CURVE('',#711,#299,#713,.T.);
#711 = VERTEX_POINT('',#712);
#712 = CARTESIAN_POINT('',(-4.5,2.5,2.375482813173));
#713 = SURFACE_CURVE('',#714,(#718,#725),.PCURVE_S1.);
#714 = LINE('',#715,#716);
#715 = CARTESIAN_POINT('',(-4.5,2.5,0.));
#716 = VECTOR('',#717,1.);
#717 = DIRECTION('',(0.,0.,1.));
#718 = PCURVE('',#319,#719);
#719 = DEFINITIONAL_REPRESENTATION('',(#720),#724);
#720 = LINE('',#721,#722);
#721 = CARTESIAN_POINT('',(3.14159265359,0.));
#722 = VECTOR('',#723,1.);
#723 = DIRECTION('',(0.,-1.));
#724 = ( GEOMETRIC_REPRESENTATION_CONTEXT(2) 
PARAMETRIC_REPRESENTATION_CONTEXT() REPRESENTATION_CONTEXT('2D SPACE',''
  ) );
#725 = PCURVE('',#347,#726);
#726 = DEFINITIONAL_REPRESENTATION('',(#727),#731);
#727 = LINE('',#728,#729);
#728 = CARTESIAN_POINT('',(0.,0.));
#729 = VECTOR('',#730,1.);
#730 = DIRECTION('',(0.,-1.));
#731 = ( GEOMETRIC_REPRESENTATION_CONTEXT(2) 
PARAMETRIC_REPRESENTATION_CONTEXT() REPRESENTATION_CONTEXT('2D SPACE',''
  ) );
#732 = ORIENTED_EDGE('',*,*,#733,.F.);
#733 = EDGE_CURVE('',#561,#711,#734,.T.);
#734 = SURFACE_CURVE('',#735,(#774,#816),.PCURVE_S1.);
#735 = B_SPLINE_CURVE_WITH_KNOTS('',7,(#736,#737,#738,#739,#740,#741,
    #742,#743,#744,#745,#746,#747,#748,#749,#750,#751,#752,#753,#754,
    #755,#756,#757,#758,#759,#760,#761,#762,#763,#764,#765,#766,#767,
    #768,#769,#770,#771,#772,#773),.UNSPECIFIED.,.F.,.F.,(8,6,6,6,6,6,8)
  ,(0.,0.132227586174,0.215758442891,0.326465768178,0.64190479087,
    0.887609926912,1.),.UNSPECIFIED.);
#736 = CARTESIAN_POINT('',(-7.,6.896375503161E-17,3.913888888889));
#737 = CARTESIAN_POINT('',(-7.,9.589273808995E-02,3.913888888889));
#738 = CARTESIAN_POINT('',(-6.995708742437,0.191814991861,3.910349221569
    ));
#739 = CARTESIAN_POINT('',(-6.987121813182,0.287005705044,3.903266088134
    ));
#740 = CARTESIAN_POINT('',(-6.974391620545,0.380837464738,3.892776097182
    ));
#741 = CARTESIAN_POINT('',(-6.957770361505,0.472800331553,3.879107750841
    ));
#742 = CARTESIAN_POINT('',(-6.937568997078,0.562488351455,3.86254453885)
  );
#743 = CARTESIAN_POINT('',(-6.899326758454,0.704611842923,3.831305418792
    ));
#744 = CARTESIAN_POINT('',(-6.883224473323,0.758622905074,3.818176300441
    ));
#745 = CARTESIAN_POINT('',(-6.86590511684,0.811562715443,3.804085491906)
  );
#746 = CARTESIAN_POINT('',(-6.847448413784,0.863390927005,3.789106584446
    ));
#747 = CARTESIAN_POINT('',(-6.827931584938,0.914083514167,3.773311380042
    ));
#748 = CARTESIAN_POINT('',(-6.807426853737,0.963630220924,3.756767717236
    ));
#749 = CARTESIAN_POINT('',(-6.757599560414,1.076181147524,3.716701020468
    ));
#750 = CARTESIAN_POINT('',(-6.727581503601,1.138312823288,3.692660761693
    ));
#751 = CARTESIAN_POINT('',(-6.696094252193,1.198436091405,3.667559384834
    ));
#752 = CARTESIAN_POINT('',(-6.663272475533,1.256576292844,3.641527560804
    ));
#753 = CARTESIAN_POINT('',(-6.629234425496,1.312772243672,3.614682693167
    ));
#754 = CARTESIAN_POINT('',(-6.594080319377,1.367073424277,3.587127844079
    ));
#755 = CARTESIAN_POINT('',(-6.454775495807,1.569022418927,3.478665247137
    ));
#756 = CARTESIAN_POINT('',(-6.343416459299,1.703356692568,3.393454391329
    ));
#757 = CARTESIAN_POINT('',(-6.225519982328,1.824236973069,3.305218677067
    ));
#758 = CARTESIAN_POINT('',(-6.102175696469,1.932626218059,3.215398500845
    ));
#759 = CARTESIAN_POINT('',(-5.974126881055,2.029405739089,3.125242430901
    ));
#760 = CARTESIAN_POINT('',(-5.841703119027,2.115246780271,3.035786786407
    ));
#761 = CARTESIAN_POINT('',(-5.598037476998,2.249253198113,2.879714345912
    ));
#762 = CARTESIAN_POINT('',(-5.488731774389,2.301471093234,2.81251431338)
  );
#763 = CARTESIAN_POINT('',(-5.376805353267,2.347424556107,2.746971823982
    ));
#764 = CARTESIAN_POINT('',(-5.26225145245,2.387135570092,2.683698183309)
  );
#765 = CARTESIAN_POINT('',(-5.145062948107,2.420509223995,2.623431442477
    ));
#766 = CARTESIAN_POINT('',(-5.025235660749,2.447350294274,2.567042068178
    ));
#767 = CARTESIAN_POINT('',(-4.846760881695,2.476485052232,2.491938069936
    ));
#768 = CARTESIAN_POINT('',(-4.790206879676,2.484193867481,2.469387684609
    ));
#769 = CARTESIAN_POINT('',(-4.73312339479,2.490437034062,2.447954288792)
  );
#770 = CARTESIAN_POINT('',(-4.675527934387,2.495178726366,2.427741295955
    ));
#771 = CARTESIAN_POINT('',(-4.617447751958,2.49837981127,2.408855495499)
  );
#772 = CARTESIAN_POINT('',(-4.558921352852,2.5,2.391402603454));
#773 = CARTESIAN_POINT('',(-4.5,2.5,2.375482813173));
#774 = PCURVE('',#319,#775);
#775 = DEFINITIONAL_REPRESENTATION('',(#776),#815);
#776 = B_SPLINE_CURVE_WITH_KNOTS('',7,(#777,#778,#779,#780,#781,#782,
    #783,#784,#785,#786,#787,#788,#789,#790,#791,#792,#793,#794,#795,
    #796,#797,#798,#799,#800,#801,#802,#803,#804,#805,#806,#807,#808,
    #809,#810,#811,#812,#813,#814),.UNSPECIFIED.,.F.,.F.,(8,6,6,6,6,6,8)
  ,(0.,0.132227586174,0.215758442891,0.326465768178,0.64190479087,
    0.887609926912,1.),.UNSPECIFIED.);
#777 = CARTESIAN_POINT('',(1.570796326795,-3.913888888889));
#778 = CARTESIAN_POINT('',(1.609153422031,-3.913888888889));
#779 = CARTESIAN_POINT('',(1.647522294449,-3.910349221569));
#780 = CARTESIAN_POINT('',(1.685690857828,-3.903266088134));
#781 = CARTESIAN_POINT('',(1.723500189013,-3.892776097182));
#782 = CARTESIAN_POINT('',(1.760826215428,-3.879107750841));
#783 = CARTESIAN_POINT('',(1.797568792991,-3.86254453885));
#784 = CARTESIAN_POINT('',(1.856440253842,-3.831305418792));
#785 = CARTESIAN_POINT('',(1.878976187554,-3.818176300441));
#786 = CARTESIAN_POINT('',(1.901244230983,-3.804085491906));
#787 = CARTESIAN_POINT('',(1.923237791679,-3.789106584446));
#788 = CARTESIAN_POINT('',(1.944954833741,-3.773311380042));
#789 = CARTESIAN_POINT('',(1.96639728223,-3.756767717236));
#790 = CARTESIAN_POINT('',(2.015632180809,-3.716701020468));
#791 = CARTESIAN_POINT('',(2.043218119914,-3.692660761693));
#792 = CARTESIAN_POINT('',(2.070343484823,-3.667559384834));
#793 = CARTESIAN_POINT('',(2.097026272914,-3.641527560804));
#794 = CARTESIAN_POINT('',(2.123287460639,-3.614682693167));
#795 = CARTESIAN_POINT('',(2.149151225162,-3.587127844079));
#796 = CARTESIAN_POINT('',(2.247285199145,-3.478665247137));
#797 = CARTESIAN_POINT('',(2.316809142043,-3.393454391329));
#798 = CARTESIAN_POINT('',(2.384012792622,-3.305218677068));
#799 = CARTESIAN_POINT('',(2.44935628974,-3.215398500845));
#800 = CARTESIAN_POINT('',(2.513291948681,-3.125242430901));
#801 = CARTESIAN_POINT('',(2.576251629111,-3.035786786407));
#802 = CARTESIAN_POINT('',(2.687485196079,-2.879714345912));
#803 = CARTESIAN_POINT('',(2.735861448792,-2.81251431338));
#804 = CARTESIAN_POINT('',(2.784136990124,-2.746971823982));
#805 = CARTESIAN_POINT('',(2.832497058878,-2.683698183309));
#806 = CARTESIAN_POINT('',(2.881110134351,-2.623431442477));
#807 = CARTESIAN_POINT('',(2.930144764918,-2.567042068178));
#808 = CARTESIAN_POINT('',(3.00247963162,-2.491938069936));
#809 = CARTESIAN_POINT('',(3.025302516593,-2.469387684609));
#810 = CARTESIAN_POINT('',(3.048259043723,-2.447954288792));
#811 = CARTESIAN_POINT('',(3.071360083505,-2.427741295955));
#812 = CARTESIAN_POINT('',(3.094613566887,-2.408855495499));
#813 = CARTESIAN_POINT('',(3.118024112449,-2.391402603454));
#814 = CARTESIAN_POINT('',(3.14159265359,-2.375482813173));
#815 = ( GEOMETRIC_REPRESENTATION_CONTEXT(2) 
PARAMETRIC_REPRESENTATION_CONTEXT() REPRESENTATION_CONTEXT('2D SPACE',''
  ) );
#816 = PCURVE('',#514,#817);
#817 = DEFINITIONAL_REPRESENTATION('',(#818),#857);
#818 = B_SPLINE_CURVE_WITH_KNOTS('',7,(#819,#820,#821,#822,#823,#824,
    #825,#826,#827,#828,#829,#830,#831,#832,#833,#834,#835,#836,#837,
    #838,#839,#840,#841,#842,#843,#844,#845,#846,#847,#848,#849,#850,
    #851,#852,#853,#854,#855,#856),.UNSPECIFIED.,.F.,.F.,(8,6,6,6,6,6,8)
  ,(0.,0.132227586174,0.215758442891,0.326465768178,0.64190479087,
    0.887609926912,1.),.UNSPECIFIED.);
#819 = CARTESIAN_POINT('',(-6.28318530718,-1.));
#820 = CARTESIAN_POINT('',(-6.258684678569,-1.));
#821 = CARTESIAN_POINT('',(-6.234176521035,-1.004291257563));
#822 = CARTESIAN_POINT('',(-6.209810197681,-1.012878186818));
#823 = CARTESIAN_POINT('',(-6.185701026259,-1.025608379455));
#824 = CARTESIAN_POINT('',(-6.161940942314,-1.042229638495));
#825 = CARTESIAN_POINT('',(-6.138604971214,-1.062431002922));
#826 = CARTESIAN_POINT('',(-6.10131777545,-1.100673241546));
#827 = CARTESIAN_POINT('',(-6.087069997655,-1.116775526677));
#828 = CARTESIAN_POINT('',(-6.073020141081,-1.13409488316));
#829 = CARTESIAN_POINT('',(-6.059174676376,-1.152551586216));
#830 = CARTESIAN_POINT('',(-6.045537017382,-1.172068415062));
#831 = CARTESIAN_POINT('',(-6.032107959083,-1.192573146263));
#832 = CARTESIAN_POINT('',(-6.001362592039,-1.242400439586));
#833 = CARTESIAN_POINT('',(-5.984204778433,-1.272418496399));
#834 = CARTESIAN_POINT('',(-5.967407628163,-1.303905747807));
#835 = CARTESIAN_POINT('',(-5.950964159763,-1.336727524467));
#836 = CARTESIAN_POINT('',(-5.934865535305,-1.370765574504));
#837 = CARTESIAN_POINT('',(-5.919101138832,-1.405919680623));
#838 = CARTESIAN_POINT('',(-5.859658295618,-1.545224504193));
#839 = CARTESIAN_POINT('',(-5.818340225685,-1.656583540701));
#840 = CARTESIAN_POINT('',(-5.779320733687,-1.774480017672));
#841 = CARTESIAN_POINT('',(-5.742453261645,-1.897824303531));
#842 = CARTESIAN_POINT('',(-5.707640280679,-2.025873118945));
#843 = CARTESIAN_POINT('',(-5.67485119024,-2.158296880973));
#844 = CARTESIAN_POINT('',(-5.620220633147,-2.401962523002));
#845 = CARTESIAN_POINT('',(-5.597594453278,-2.511268225611));
#846 = CARTESIAN_POINT('',(-5.576298636527,-2.623194646733));
#847 = CARTESIAN_POINT('',(-5.556436057908,-2.73774854755));
#848 = CARTESIAN_POINT('',(-5.53817389879,-2.854937051893));
#849 = CARTESIAN_POINT('',(-5.521745057277,-2.974764339251));
#850 = CARTESIAN_POINT('',(-5.500916684169,-3.153239118305));
#851 = CARTESIAN_POINT('',(-5.494828255279,-3.209793120324));
#852 = CARTESIAN_POINT('',(-5.489217938681,-3.26687660521));
#853 = CARTESIAN_POINT('',(-5.484119013327,-3.324472065613));
#854 = CARTESIAN_POINT('',(-5.47956727525,-3.382552248042));
#855 = CARTESIAN_POINT('',(-5.475599721952,-3.441078647148));
#856 = CARTESIAN_POINT('',(-5.472253236783,-3.5));
#857 = ( GEOMETRIC_REPRESENTATION_CONTEXT(2) 
PARAMETRIC_REPRESENTATION_CONTEXT() REPRESENTATION_CONTEXT('2D SPACE',''
  ) );
#858 = ADVANCED_FACE('',(#859),#406,.F.);
#859 = FACE_BOUND('',#860,.F.);
#860 = EDGE_LOOP('',(#861,#891,#912,#913,#914));
#861 = ORIENTED_EDGE('',*,*,#862,.F.);
#862 = EDGE_CURVE('',#863,#865,#867,.T.);
#863 = VERTEX_POINT('',#864);
#864 = CARTESIAN_POINT('',(8.5,-2.5,0.));
#865 = VERTEX_POINT('',#866);
#866 = CARTESIAN_POINT('',(0.597014925373,-2.5,0.));
#867 = SURFACE_CURVE('',#868,(#872,#879),.PCURVE_S1.);
#868 = LINE('',#869,#870);
#869 = CARTESIAN_POINT('',(8.5,-2.5,0.));
#870 = VECTOR('',#871,1.);
#871 = DIRECTION('',(-1.,0.,0.));
#872 = PCURVE('',#406,#873);
#873 = DEFINITIONAL_REPRESENTATION('',(#874),#878);
#874 = LINE('',#875,#876);
#875 = CARTESIAN_POINT('',(0.,-0.));
#876 = VECTOR('',#877,1.);
#877 = DIRECTION('',(1.,0.));
#878 = ( GEOMETRIC_REPRESENTATION_CONTEXT(2) 
PARAMETRIC_REPRESENTATION_CONTEXT() REPRESENTATION_CONTEXT('2D SPACE',''
  ) );
#879 = PCURVE('',#880,#885);
#880 = PLANE('',#881);
#881 = AXIS2_PLACEMENT_3D('',#882,#883,#884);
#882 = CARTESIAN_POINT('',(2.,6.498866485611E-17,0.));
#883 = DIRECTION('',(-0.,-0.,-1.));
#884 = DIRECTION('',(-1.,0.,0.));
#885 = DEFINITIONAL_REPRESENTATION('',(#886),#890);
#886 = LINE('',#887,#888);
#887 = CARTESIAN_POINT('',(-6.5,-2.5));
#888 = VECTOR('',#889,1.);
#889 = DIRECTION('',(1.,0.));
#890 = ( GEOMETRIC_REPRESENTATION_CONTEXT(2) 
PARAMETRIC_REPRESENTATION_CONTEXT() REPRESENTATION_CONTEXT('2D SPACE',''
  ) );
#891 = ORIENTED_EDGE('',*,*,#892,.T.);
#892 = EDGE_CURVE('',#863,#360,#893,.T.);
#893 = SURFACE_CURVE('',#894,(#898,#905),.PCURVE_S1.);
#894 = LINE('',#895,#896);
#895 = CARTESIAN_POINT('',(8.5,-2.5,0.));
#896 = VECTOR('',#897,1.);
#897 = DIRECTION('',(0.,0.,1.));
#898 = PCURVE('',#406,#899);
#899 = DEFINITIONAL_REPRESENTATION('',(#900),#904);
#900 = LINE('',#901,#902);
#901 = CARTESIAN_POINT('',(0.,-0.));
#902 = VECTOR('',#903,1.);
#903 = DIRECTION('',(0.,-1.));
#904 = ( GEOMETRIC_REPRESENTATION_CONTEXT(2) 
PARAMETRIC_REPRESENTATION_CONTEXT() REPRESENTATION_CONTEXT('2D SPACE',''
  ) );
#905 = PCURVE('',#380,#906);
#906 = DEFINITIONAL_REPRESENTATION('',(#907),#911);
#907 = LINE('',#908,#909);
#908 = CARTESIAN_POINT('',(3.14159265359,0.));
#909 = VECTOR('',#910,1.);
#910 = DIRECTION('',(0.,-1.));
#911 = ( GEOMETRIC_REPRESENTATION_CONTEXT(2) 
PARAMETRIC_REPRESENTATION_CONTEXT() REPRESENTATION_CONTEXT('2D SPACE',''
  ) );
#912 = ORIENTED_EDGE('',*,*,#392,.T.);
#913 = ORIENTED_EDGE('',*,*,#688,.F.);
#914 = ORIENTED_EDGE('',*,*,#915,.T.);
#915 = EDGE_CURVE('',#559,#865,#916,.T.);
#916 = SURFACE_CURVE('',#917,(#922,#929),.PCURVE_S1.);
#917 = HYPERBOLA('',#918,13.432835820896,2.5);
#918 = AXIS2_PLACEMENT_3D('',#919,#920,#921);
#919 = CARTESIAN_POINT('',(14.029850746269,-2.5,0.));
#920 = DIRECTION('',(0.,-1.,0.));
#921 = DIRECTION('',(-1.,-0.,0.));
#922 = PCURVE('',#406,#923);
#923 = DEFINITIONAL_REPRESENTATION('',(#924),#928);
#924 = ( BOUNDED_CURVE() B_SPLINE_CURVE(2,(#925,#926,#927),
.UNSPECIFIED.,.F.,.F.) B_SPLINE_CURVE_WITH_KNOTS((3,3),(-0.940845475796,
0.237753749152),.PIECEWISE_BEZIER_KNOTS.) CURVE() 
GEOMETRIC_REPRESENTATION_ITEM() RATIONAL_B_SPLINE_CURVE((1.,
1.17872051571,1.)) REPRESENTATION_ITEM('') );
#925 = CARTESIAN_POINT('',(14.3,-2.714811284167));
#926 = CARTESIAN_POINT('',(6.577739157028,-0.761061825234));
#927 = CARTESIAN_POINT('',(8.284434768912,0.6));
#928 = ( GEOMETRIC_REPRESENTATION_CONTEXT(2) 
PARAMETRIC_REPRESENTATION_CONTEXT() REPRESENTATION_CONTEXT('2D SPACE',''
  ) );
#929 = PCURVE('',#514,#930);
#930 = DEFINITIONAL_REPRESENTATION('',(#931),#941);
#931 = B_SPLINE_CURVE_WITH_KNOTS('',8,(#932,#933,#934,#935,#936,#937,
    #938,#939,#940),.UNSPECIFIED.,.F.,.F.,(9,9),(-0.940845475796,
    0.237753749152),.PIECEWISE_BEZIER_KNOTS.);
#932 = CARTESIAN_POINT('',(-0.744228905877,-2.2));
#933 = CARTESIAN_POINT('',(-0.844027500492,-4.349035095418));
#934 = CARTESIAN_POINT('',(-0.956185046032,-6.006185056479));
#935 = CARTESIAN_POINT('',(-1.08098942835,-7.242526217877));
#936 = CARTESIAN_POINT('',(-1.217630547094,-8.106360409021));
#937 = CARTESIAN_POINT('',(-1.363906347545,-8.628145667534));
#938 = CARTESIAN_POINT('',(-1.514198794769,-8.822813671522));
#939 = CARTESIAN_POINT('',(-1.663084442458,-8.690523127708));
#940 = CARTESIAN_POINT('',(-1.806341307516,-8.215565231088));
#941 = ( GEOMETRIC_REPRESENTATION_CONTEXT(2) 
PARAMETRIC_REPRESENTATION_CONTEXT() REPRESENTATION_CONTEXT('2D SPACE',''
  ) );
#942 = ADVANCED_FACE('',(#943),#380,.F.);
#943 = FACE_BOUND('',#944,.F.);
#944 = EDGE_LOOP('',(#945,#968,#969,#970));
#945 = ORIENTED_EDGE('',*,*,#946,.T.);
#946 = EDGE_CURVE('',#947,#332,#949,.T.);
#947 = VERTEX_POINT('',#948);
#948 = CARTESIAN_POINT('',(8.5,2.5,0.));
#949 = SURFACE_CURVE('',#950,(#954,#961),.PCURVE_S1.);
#950 = LINE('',#951,#952);
#951 = CARTESIAN_POINT('',(8.5,2.5,0.));
#952 = VECTOR('',#953,1.);
#953 = DIRECTION('',(0.,0.,1.));
#954 = PCURVE('',#380,#955);
#955 = DEFINITIONAL_REPRESENTATION('',(#956),#960);
#956 = LINE('',#957,#958);
#957 = CARTESIAN_POINT('',(0.,0.));
#958 = VECTOR('',#959,1.);
#959 = DIRECTION('',(0.,-1.));
#960 = ( GEOMETRIC_REPRESENTATION_CONTEXT(2) 
PARAMETRIC_REPRESENTATION_CONTEXT() REPRESENTATION_CONTEXT('2D SPACE',''
  ) );
#961 = PCURVE('',#347,#962);
#962 = DEFINITIONAL_REPRESENTATION('',(#963),#967);
#963 = LINE('',#964,#965);
#964 = CARTESIAN_POINT('',(13.,0.));
#965 = VECTOR('',#966,1.);
#966 = DIRECTION('',(0.,-1.));
#967 = ( GEOMETRIC_REPRESENTATION_CONTEXT(2) 
PARAMETRIC_REPRESENTATION_CONTEXT() REPRESENTATION_CONTEXT('2D SPACE',''
  ) );
#968 = ORIENTED_EDGE('',*,*,#359,.T.);
#969 = ORIENTED_EDGE('',*,*,#892,.F.);
#970 = ORIENTED_EDGE('',*,*,#971,.F.);
#971 = EDGE_CURVE('',#947,#863,#972,.T.);
#972 = SURFACE_CURVE('',#973,(#978,#985),.PCURVE_S1.);
#973 = CIRCLE('',#974,2.5);
#974 = AXIS2_PLACEMENT_3D('',#975,#976,#977);
#975 = CARTESIAN_POINT('',(8.5,-2.22044604925E-16,0.));
#976 = DIRECTION('',(0.,0.,-1.));
#977 = DIRECTION('',(0.,1.,0.));
#978 = PCURVE('',#380,#979);
#979 = DEFINITIONAL_REPRESENTATION('',(#980),#984);
#980 = LINE('',#981,#982);
#981 = CARTESIAN_POINT('',(0.,0.));
#982 = VECTOR('',#983,1.);
#983 = DIRECTION('',(1.,0.));
#984 = ( GEOMETRIC_REPRESENTATION_CONTEXT(2) 
PARAMETRIC_REPRESENTATION_CONTEXT() REPRESENTATION_CONTEXT('2D SPACE',''
  ) );
#985 = PCURVE('',#880,#986);
#986 = DEFINITIONAL_REPRESENTATION('',(#987),#991);
#987 = CIRCLE('',#988,2.5);
#988 = AXIS2_PLACEMENT_2D('',#989,#990);
#989 = CARTESIAN_POINT('',(-6.5,-2.870332697811E-16));
#990 = DIRECTION('',(0.,1.));
#991 = ( GEOMETRIC_REPRESENTATION_CONTEXT(2) 
PARAMETRIC_REPRESENTATION_CONTEXT() REPRESENTATION_CONTEXT('2D SPACE',''
  ) );
#992 = ADVANCED_FACE('',(#993),#347,.F.);
#993 = FACE_BOUND('',#994,.F.);
#994 = EDGE_LOOP('',(#995,#1025,#1026,#1027,#1028));
#995 = ORIENTED_EDGE('',*,*,#996,.T.);
#996 = EDGE_CURVE('',#997,#711,#999,.T.);
#997 = VERTEX_POINT('',#998);
#998 = CARTESIAN_POINT('',(0.597014925373,2.5,0.));
#999 = SURFACE_CURVE('',#1000,(#1005,#1012),.PCURVE_S1.);
#1000 = HYPERBOLA('',#1001,13.432835820896,2.5);
#1001 = AXIS2_PLACEMENT_3D('',#1002,#1003,#1004);
#1002 = CARTESIAN_POINT('',(14.029850746269,2.5,0.));
#1003 = DIRECTION('',(0.,1.,0.));
#1004 = DIRECTION('',(-1.,0.,0.));
#1005 = PCURVE('',#347,#1006);
#1006 = DEFINITIONAL_REPRESENTATION('',(#1007),#1011);
#1007 = ( BOUNDED_CURVE() B_SPLINE_CURVE(2,(#1008,#1009,#1010),
.UNSPECIFIED.,.F.,.F.) B_SPLINE_CURVE_WITH_KNOTS((3,3),(-0.237753749152,
0.940845475796),.PIECEWISE_BEZIER_KNOTS.) CURVE() 
GEOMETRIC_REPRESENTATION_ITEM() RATIONAL_B_SPLINE_CURVE((1.,
1.17872051571,1.)) REPRESENTATION_ITEM('') );
#1008 = CARTESIAN_POINT('',(4.715565231088,0.6));
#1009 = CARTESIAN_POINT('',(6.422260842972,-0.761061825234));
#1010 = CARTESIAN_POINT('',(-1.3,-2.714811284167));
#1011 = ( GEOMETRIC_REPRESENTATION_CONTEXT(2) 
PARAMETRIC_REPRESENTATION_CONTEXT() REPRESENTATION_CONTEXT('2D SPACE',''
  ) );
#1012 = PCURVE('',#514,#1013);
#1013 = DEFINITIONAL_REPRESENTATION('',(#1014),#1024);
#1014 = B_SPLINE_CURVE_WITH_KNOTS('',8,(#1015,#1016,#1017,#1018,#1019,
    #1020,#1021,#1022,#1023),.UNSPECIFIED.,.F.,.F.,(9,9),(
    -0.237753749152,0.940845475796),.PIECEWISE_BEZIER_KNOTS.);
#1015 = CARTESIAN_POINT('',(-4.476843999664,-8.215565231088));
#1016 = CARTESIAN_POINT('',(-4.620100864722,-8.690523127708));
#1017 = CARTESIAN_POINT('',(-4.768986512408,-8.822813671525));
#1018 = CARTESIAN_POINT('',(-4.919278959642,-8.628145667527));
#1019 = CARTESIAN_POINT('',(-5.065554760076,-8.106360409029));
#1020 = CARTESIAN_POINT('',(-5.202195878832,-7.242526217877));
#1021 = CARTESIAN_POINT('',(-5.327000261141,-6.006185056484));
#1022 = CARTESIAN_POINT('',(-5.439157806687,-4.349035095418));
#1023 = CARTESIAN_POINT('',(-5.538956401303,-2.2));
#1024 = ( GEOMETRIC_REPRESENTATION_CONTEXT(2) 
PARAMETRIC_REPRESENTATION_CONTEXT() REPRESENTATION_CONTEXT('2D SPACE',''
  ) );
#1025 = ORIENTED_EDGE('',*,*,#710,.T.);
#1026 = ORIENTED_EDGE('',*,*,#331,.T.);
#1027 = ORIENTED_EDGE('',*,*,#946,.F.);
#1028 = ORIENTED_EDGE('',*,*,#1029,.F.);
#1029 = EDGE_CURVE('',#997,#947,#1030,.T.);
#1030 = SURFACE_CURVE('',#1031,(#1035,#1042),.PCURVE_S1.);
#1031 = LINE('',#1032,#1033);
#1032 = CARTESIAN_POINT('',(-4.5,2.5,0.));
#1033 = VECTOR('',#1034,1.);
#1034 = DIRECTION('',(1.,0.,0.));
#1035 = PCURVE('',#347,#1036);
#1036 = DEFINITIONAL_REPRESENTATION('',(#1037),#1041);
#1037 = LINE('',#1038,#1039);
#1038 = CARTESIAN_POINT('',(0.,0.));
#1039 = VECTOR('',#1040,1.);
#1040 = DIRECTION('',(1.,0.));
#1041 = ( GEOMETRIC_REPRESENTATION_CONTEXT(2) 
PARAMETRIC_REPRESENTATION_CONTEXT() REPRESENTATION_CONTEXT('2D SPACE',''
  ) );
#1042 = PCURVE('',#880,#1043);
#1043 = DEFINITIONAL_REPRESENTATION('',(#1044),#1048);
#1044 = LINE('',#1045,#1046);
#1045 = CARTESIAN_POINT('',(6.5,2.5));
#1046 = VECTOR('',#1047,1.);
#1047 = DIRECTION('',(-1.,0.));
#1048 = ( GEOMETRIC_REPRESENTATION_CONTEXT(2) 
PARAMETRIC_REPRESENTATION_CONTEXT() REPRESENTATION_CONTEXT('2D SPACE',''
  ) );
#1049 = ADVANCED_FACE('',(#1050),#514,.F.);
#1050 = FACE_BOUND('',#1051,.F.);
#1051 = EDGE_LOOP('',(#1052,#1083,#1102,#1103,#1104,#1125,#1126,#1127,
    #1128,#1129));
#1052 = ORIENTED_EDGE('',*,*,#1053,.F.);
#1053 = EDGE_CURVE('',#1054,#1056,#1058,.T.);
#1054 = VERTEX_POINT('',#1055);
#1055 = CARTESIAN_POINT('',(10.,-0.75,4.592425496803E-17));
#1056 = VERTEX_POINT('',#1057);
#1057 = CARTESIAN_POINT('',(10.,0.75,-1.377727649041E-16));
#1058 = SURFACE_CURVE('',#1059,(#1064,#1071),.PCURVE_S1.);
#1059 = CIRCLE('',#1060,0.75);
#1060 = AXIS2_PLACEMENT_3D('',#1061,#1062,#1063);
#1061 = CARTESIAN_POINT('',(10.,0.,0.));
#1062 = DIRECTION('',(1.,0.,0.));
#1063 = DIRECTION('',(-0.,0.,1.));
#1064 = PCURVE('',#514,#1065);
#1065 = DEFINITIONAL_REPRESENTATION('',(#1066),#1070);
#1066 = LINE('',#1067,#1068);
#1067 = CARTESIAN_POINT('',(-0.,-18.));
#1068 = VECTOR('',#1069,1.);
#1069 = DIRECTION('',(-1.,-0.));
#1070 = ( GEOMETRIC_REPRESENTATION_CONTEXT(2) 
PARAMETRIC_REPRESENTATION_CONTEXT() REPRESENTATION_CONTEXT('2D SPACE',''
  ) );
#1071 = PCURVE('',#1072,#1077);
#1072 = PLANE('',#1073);
#1073 = AXIS2_PLACEMENT_3D('',#1074,#1075,#1076);
#1074 = CARTESIAN_POINT('',(10.,0.,0.));
#1075 = DIRECTION('',(1.,0.,0.));
#1076 = DIRECTION('',(-0.,0.,1.));
#1077 = DEFINITIONAL_REPRESENTATION('',(#1078),#1082);
#1078 = CIRCLE('',#1079,0.75);
#1079 = AXIS2_PLACEMENT_2D('',#1080,#1081);
#1080 = CARTESIAN_POINT('',(0.,0.));
#1081 = DIRECTION('',(1.,0.));
#1082 = ( GEOMETRIC_REPRESENTATION_CONTEXT(2) 
PARAMETRIC_REPRESENTATION_CONTEXT() REPRESENTATION_CONTEXT('2D SPACE',''
  ) );
#1083 = ORIENTED_EDGE('',*,*,#1084,.T.);
#1084 = EDGE_CURVE('',#1054,#865,#1085,.T.);
#1085 = SURFACE_CURVE('',#1086,(#1090,#1096),.PCURVE_S1.);
#1086 = LINE('',#1087,#1088);
#1087 = CARTESIAN_POINT('',(14.029850746269,0.,0.));
#1088 = VECTOR('',#1089,1.);
#1089 = DIRECTION('',(-0.983118627243,-0.18296930007,0.));
#1090 = PCURVE('',#514,#1091);
#1091 = DEFINITIONAL_REPRESENTATION('',(#1092),#1095);
#1092 = B_SPLINE_CURVE_WITH_KNOTS('',1,(#1093,#1094),.UNSPECIFIED.,.F.,
  .F.,(2,2),(4.099048308718,16.396193234871),.PIECEWISE_BEZIER_KNOTS.);
#1093 = CARTESIAN_POINT('',(-1.570796326795,-18.));
#1094 = CARTESIAN_POINT('',(-1.570796326795,-5.910447761194));
#1095 = ( GEOMETRIC_REPRESENTATION_CONTEXT(2) 
PARAMETRIC_REPRESENTATION_CONTEXT() REPRESENTATION_CONTEXT('2D SPACE',''
  ) );
#1096 = PCURVE('',#880,#1097);
#1097 = DEFINITIONAL_REPRESENTATION('',(#1098),#1101);
#1098 = B_SPLINE_CURVE_WITH_KNOTS('',1,(#1099,#1100),.UNSPECIFIED.,.F.,
  .F.,(2,2),(4.099048308718,16.396193234871),.PIECEWISE_BEZIER_KNOTS.);
#1099 = CARTESIAN_POINT('',(-8.,-0.75));
#1100 = CARTESIAN_POINT('',(4.089552238806,-3.));
#1101 = ( GEOMETRIC_REPRESENTATION_CONTEXT(2) 
PARAMETRIC_REPRESENTATION_CONTEXT() REPRESENTATION_CONTEXT('2D SPACE',''
  ) );
#1102 = ORIENTED_EDGE('',*,*,#915,.F.);
#1103 = ORIENTED_EDGE('',*,*,#558,.T.);
#1104 = ORIENTED_EDGE('',*,*,#1105,.F.);
#1105 = EDGE_CURVE('',#498,#561,#1106,.T.);
#1106 = SEAM_CURVE('',#1107,(#1111,#1118),.PCURVE_S1.);
#1107 = LINE('',#1108,#1109);
#1108 = CARTESIAN_POINT('',(-8.,1.004210375301E-15,4.1));
#1109 = VECTOR('',#1110,1.);
#1110 = DIRECTION('',(0.983118627243,-4.481455353464E-17,-0.18296930007)
  );
#1111 = PCURVE('',#514,#1112);
#1112 = DEFINITIONAL_REPRESENTATION('',(#1113),#1117);
#1113 = LINE('',#1114,#1115);
#1114 = CARTESIAN_POINT('',(-6.28318530718,0.));
#1115 = VECTOR('',#1116,1.);
#1116 = DIRECTION('',(-0.,-1.));
#1117 = ( GEOMETRIC_REPRESENTATION_CONTEXT(2) 
PARAMETRIC_REPRESENTATION_CONTEXT() REPRESENTATION_CONTEXT('2D SPACE',''
  ) );
#1118 = PCURVE('',#514,#1119);
#1119 = DEFINITIONAL_REPRESENTATION('',(#1120),#1124);
#1120 = LINE('',#1121,#1122);
#1121 = CARTESIAN_POINT('',(0.,-0.));
#1122 = VECTOR('',#1123,1.);
#1123 = DIRECTION('',(-0.,-1.));
#1124 = ( GEOMETRIC_REPRESENTATION_CONTEXT(2) 
PARAMETRIC_REPRESENTATION_CONTEXT() REPRESENTATION_CONTEXT('2D SPACE',''
  ) );
#1125 = ORIENTED_EDGE('',*,*,#497,.T.);
#1126 = ORIENTED_EDGE('',*,*,#1105,.T.);
#1127 = ORIENTED_EDGE('',*,*,#733,.T.);
#1128 = ORIENTED_EDGE('',*,*,#996,.F.);
#1129 = ORIENTED_EDGE('',*,*,#1130,.F.);
#1130 = EDGE_CURVE('',#1056,#997,#1131,.T.);
#1131 = SURFACE_CURVE('',#1132,(#1136,#1142),.PCURVE_S1.);
#1132 = LINE('',#1133,#1134);
#1133 = CARTESIAN_POINT('',(14.029850746269,0.,0.));
#1134 = VECTOR('',#1135,1.);
#1135 = DIRECTION('',(-0.983118627243,0.18296930007,-0.));
#1136 = PCURVE('',#514,#1137);
#1137 = DEFINITIONAL_REPRESENTATION('',(#1138),#1141);
#1138 = B_SPLINE_CURVE_WITH_KNOTS('',1,(#1139,#1140),.UNSPECIFIED.,.F.,
  .F.,(2,2),(4.099048308718,16.396193234871),.PIECEWISE_BEZIER_KNOTS.);
#1139 = CARTESIAN_POINT('',(-4.712388980385,-18.));
#1140 = CARTESIAN_POINT('',(-4.712388980385,-5.910447761194));
#1141 = ( GEOMETRIC_REPRESENTATION_CONTEXT(2) 
PARAMETRIC_REPRESENTATION_CONTEXT() REPRESENTATION_CONTEXT('2D SPACE',''
  ) );
#1142 = PCURVE('',#880,#1143);
#1143 = DEFINITIONAL_REPRESENTATION('',(#1144),#1147);
#1144 = B_SPLINE_CURVE_WITH_KNOTS('',1,(#1145,#1146),.UNSPECIFIED.,.F.,
  .F.,(2,2),(4.099048308718,16.396193234871),.PIECEWISE_BEZIER_KNOTS.);
#1145 = CARTESIAN_POINT('',(-8.,0.75));
#1146 = CARTESIAN_POINT('',(4.089552238806,3.));
#1147 = ( GEOMETRIC_REPRESENTATION_CONTEXT(2) 
PARAMETRIC_REPRESENTATION_CONTEXT() REPRESENTATION_CONTEXT('2D SPACE',''
  ) );
#1148 = ADVANCED_FACE('',(#1149),#880,.F.);
#1149 = FACE_BOUND('',#1150,.F.);
#1150 = EDGE_LOOP('',(#1151,#1152,#1153,#1154,#1155,#1156));
#1151 = ORIENTED_EDGE('',*,*,#1130,.T.);
#1152 = ORIENTED_EDGE('',*,*,#1029,.T.);
#1153 = ORIENTED_EDGE('',*,*,#971,.T.);
#1154 = ORIENTED_EDGE('',*,*,#862,.T.);
#1155 = ORIENTED_EDGE('',*,*,#1084,.F.);
#1156 = ORIENTED_EDGE('',*,*,#1157,.T.);
#1157 = EDGE_CURVE('',#1054,#1056,#1158,.T.);
#1158 = SURFACE_CURVE('',#1159,(#1163,#1169),.PCURVE_S1.);
#1159 = LINE('',#1160,#1161);
#1160 = CARTESIAN_POINT('',(10.,3.249433242805E-17,0.));
#1161 = VECTOR('',#1162,1.);
#1162 = DIRECTION('',(0.,1.,0.));
#1163 = PCURVE('',#880,#1164);
#1164 = DEFINITIONAL_REPRESENTATION('',(#1165),#1168);
#1165 = B_SPLINE_CURVE_WITH_KNOTS('',1,(#1166,#1167),.UNSPECIFIED.,.F.,
  .F.,(2,2),(-0.75,0.75),.PIECEWISE_BEZIER_KNOTS.);
#1166 = CARTESIAN_POINT('',(-8.,-0.75));
#1167 = CARTESIAN_POINT('',(-8.,0.75));
#1168 = ( GEOMETRIC_REPRESENTATION_CONTEXT(2) 
PARAMETRIC_REPRESENTATION_CONTEXT() REPRESENTATION_CONTEXT('2D SPACE',''
  ) );
#1169 = PCURVE('',#1072,#1170);
#1170 = DEFINITIONAL_REPRESENTATION('',(#1171),#1174);
#1171 = B_SPLINE_CURVE_WITH_KNOTS('',1,(#1172,#1173),.UNSPECIFIED.,.F.,
  .F.,(2,2),(-0.75,0.75),.PIECEWISE_BEZIER_KNOTS.);
#1172 = CARTESIAN_POINT('',(0.,0.75));
#1173 = CARTESIAN_POINT('',(0.,-0.75));
#1174 = ( GEOMETRIC_REPRESENTATION_CONTEXT(2) 
PARAMETRIC_REPRESENTATION_CONTEXT() REPRESENTATION_CONTEXT('2D SPACE',''
  ) );
#1175 = ADVANCED_FACE('',(#1176),#1072,.F.);
#1176 = FACE_BOUND('',#1177,.F.);
#1177 = EDGE_LOOP('',(#1178,#1179));
#1178 = ORIENTED_EDGE('',*,*,#1157,.F.);
#1179 = ORIENTED_EDGE('',*,*,#1053,.T.);
#1180 = ( GEOMETRIC_REPRESENTATION_CONTEXT(3) 
GLOBAL_UNCERTAINTY_ASSIGNED_CONTEXT((#1184)) 
GLOBAL_UNIT_ASSIGNED_CONTEXT((#1181,#1182,#1183)) REPRESENTATION_CONTEXT
('Context #1','3D Context with UNIT and UNCERTAINTY') );
#1181 = ( LENGTH_UNIT() NAMED_UNIT(*) SI_UNIT(.MILLI.,.METRE.) );
#1182 = ( NAMED_UNIT(*) PLANE_ANGLE_UNIT() SI_UNIT($,.RADIAN.) );
#1183 = ( NAMED_UNIT(*) SI_UNIT($,.STERADIAN.) SOLID_ANGLE_UNIT() );
#1184 = UNCERTAINTY_MEASURE_WITH_UNIT(LENGTH_MEASURE(1.E-07),#1181,
  'distance_accuracy_value','confusion accuracy');
#1185 = PRODUCT_RELATED_PRODUCT_CATEGORY('part',$,(#7));
ENDSEC;
END-ISO-10303-21;
