ISO-10303-21;
HEADER;
FILE_DESCRIPTION(('Open CASCADE Model'),'2;1');
FILE_NAME('Open CASCADE Shape Model','2026-09-21T16:05:46',('Author'),(
    'Open CASCADE'),'Open CASCADE STEP processor 7.9','Open CASCADE 7.9'
  ,'Unknown');
FILE_SCHEMA(('AUTOMOTIVE_DESIGN { 1 0 10303 214 1 1 1 1 }'));
ENDSEC;
DATA;
#1 = APPLICATION_PROTOCOL_DEFINITION('international standard',
  'automotive_design',2000,#2);
#2 = APPLICATION_CONTEXT(
  'core data for automotive mechanical design processes');
#3 = SHAPE_DEFINITION_REPRESENTATION(#4,#10);
#4 = PRODUCT_DEFINITION_SHAPE('','',#5);
#5 = PRODUCT_DEFINITION('design','',#6,#9);
#6 = PRODUCT_DEFINITION_FORMATION('','',#7);
#7 = PRODUCT('Open CASCADE STEP translator 7.9 31',
  'Open CASCADE STEP translator 7.9 31','',(#8));
#8 = PRODUCT_CONTEXT('',#2,'mechanical');
#9 = PRODUCT_DEFINITION_CONTEXT('part definition',#2,'design');
#10 = SHAPE_REPRESENTATION('',(#11,#15,#19),#23);
#11 = AXIS2_PLACEMENT_3D('',#12,#13,#14);
#12 = CARTESIAN_POINT('',(0.,0.,0.));
#13 = DIRECTION('',(0.,0.,1.));
#14 = DIRECTION('',(1.,0.,-0.));
#15 = AXIS2_PLACEMENT_3D('',#16,#17,#18);
#16 = CARTESIAN_POINT('',(0.,0.,0.));
#17 = DIRECTION('',(0.,0.,1.));
#18 = DIRECTION('',(1.,0.,-0.));
#19 = AXIS2_PLACEMENT_3D('',#20,#21,#22);
#20 = CARTESIAN_POINT('',(0.,0.,0.));
#21 = DIRECTION('',(0.,0.,1.));
#22 = DIRECTION('',(1.,0.,-0.));
#23 = ( GEOMETRIC_REPRESENTATION_CONTEXT(3) 
GLOBAL_UNCERTAINTY_ASSIGNED_CONTEXT((#27)) GLOBAL_UNIT_ASSIGNED_CONTEXT(
(#24,#25,#26)) REPRESENTATION_CONTEXT('Context #1',
  '3D Context with UNIT and UNCERTAINTY') );
#24 = ( LENGTH_UNIT() NAMED_UNIT(*) SI_UNIT(.MILLI.,.METRE.) );
#25 = ( NAMED_UNIT(*) PLANE_ANGLE_UNIT() SI_UNIT($,.RADIAN.) );
#26 = ( NAMED_UNIT(*) SI_UNIT($,.STERADIAN.) SOLID_ANGLE_UNIT() );
#27 = UNCERTAINTY_MEASURE_WITH_UNIT(LENGTH_MEASURE(1.E-07),#24,
  'distance_accuracy_value','confusion accuracy');
#28 = PRODUCT_RELATED_PRODUCT_CATEGORY('part',$,(#7));
#29 = SHAPE_DEFINITION_REPRESENTATION(#30,#36);
#30 = PRODUCT_DEFINITION_SHAPE('','',#31);
#31 = PRODUCT_DEFINITION('design','',#32,#35);
#32 = PRODUCT_DEFINITION_FORMATION('','',#33);
#33 = PRODUCT('Open CASCADE STEP translator 7.9 31.1',
  'Open CASCADE STEP translator 7.9 31.1','',(#34));
#34 = PRODUCT_CONTEXT('',#2,'mechanical');
#35 = PRODUCT_DEFINITION_CONTEXT('part definition',#2,'design');
#36 = ADVANCED_BREP_SHAPE_REPRESENTATION('',(#11,#37),#1104);
#37 = MANIFOLD_SOLID_BREP('',#38);
#38 = CLOSED_SHELL('',(#39,#976,#1006,#1010,#1045,#1100));
#39 = ADVANCED_FACE('',(#40),#54,.T.);
#40 = FACE_BOUND('',#41,.T.);
#41 = EDGE_LOOP('',(#42,#72,#99,#100,#305,#328,#528,#551,#578,#579,#777,
    #778));
#42 = ORIENTED_EDGE('',*,*,#43,.T.);
#43 = EDGE_CURVE('',#44,#46,#48,.T.);
#44 = VERTEX_POINT('',#45);
#45 = CARTESIAN_POINT('',(44.289909235699,-6.036272957576E-15,
    102.95782165678));
#46 = VERTEX_POINT('',#47);
#47 = CARTESIAN_POINT('',(45.,-1.102182119233E-14,120.));
#48 = SEAM_CURVE('',#49,(#53,#65),.PCURVE_S1.);
#49 = LINE('',#50,#51);
#50 = CARTESIAN_POINT('',(40.,-9.797174393179E-15,0.));
#51 = VECTOR('',#52,1.);
#52 = DIRECTION('',(4.163054471218E-02,-1.019654266571E-17,
    0.999133073092));
#53 = PCURVE('',#54,#59);
#54 = CONICAL_SURFACE('',#55,40.,4.164257909859E-02);
#55 = AXIS2_PLACEMENT_3D('',#56,#57,#58);
#56 = CARTESIAN_POINT('',(0.,0.,0.));
#57 = DIRECTION('',(0.,0.,1.));
#58 = DIRECTION('',(1.,0.,-0.));
#59 = DEFINITIONAL_REPRESENTATION('',(#60),#64);
#60 = LINE('',#61,#62);
#61 = CARTESIAN_POINT('',(6.28318530718,-0.));
#62 = VECTOR('',#63,1.);
#63 = DIRECTION('',(0.,1.));
#64 = ( GEOMETRIC_REPRESENTATION_CONTEXT(2) 
PARAMETRIC_REPRESENTATION_CONTEXT() REPRESENTATION_CONTEXT('2D SPACE',''
  ) );
#65 = PCURVE('',#54,#66);
#66 = DEFINITIONAL_REPRESENTATION('',(#67),#71);
#67 = LINE('',#68,#69);
#68 = CARTESIAN_POINT('',(0.,-0.));
#69 = VECTOR('',#70,1.);
#70 = DIRECTION('',(0.,1.));
#71 = ( GEOMETRIC_REPRESENTATION_CONTEXT(2) 
PARAMETRIC_REPRESENTATION_CONTEXT() REPRESENTATION_CONTEXT('2D SPACE',''
  ) );
#72 = ORIENTED_EDGE('',*,*,#73,.F.);
#73 = EDGE_CURVE('',#46,#46,#74,.T.);
#74 = SURFACE_CURVE('',#75,(#80,#87),.PCURVE_S1.);
#75 = CIRCLE('',#76,45.);
#76 = AXIS2_PLACEMENT_3D('',#77,#78,#79);
#77 = CARTESIAN_POINT('',(0.,0.,120.));
#78 = DIRECTION('',(0.,0.,1.));
#79 = DIRECTION('',(1.,0.,-0.));
#80 = PCURVE('',#54,#81);
#81 = DEFINITIONAL_REPRESENTATION('',(#82),#86);
#82 = LINE('',#83,#84);
#83 = CARTESIAN_POINT('',(0.,120.));
#84 = VECTOR('',#85,1.);
#85 = DIRECTION('',(1.,0.));
#86 = ( GEOMETRIC_REPRESENTATION_CONTEXT(2) 
PARAMETRIC_REPRESENTATION_CONTEXT() REPRESENTATION_CONTEXT('2D SPACE',''
  ) );
#87 = PCURVE('',#88,#93);
#88 = PLANE('',#89);
#89 = AXIS2_PLACEMENT_3D('',#90,#91,#92);
#90 = CARTESIAN_POINT('',(0.,0.,120.));
#91 = DIRECTION('',(0.,0.,1.));
#92 = DIRECTION('',(1.,0.,-0.));
#93 = DEFINITIONAL_REPRESENTATION('',(#94),#98);
#94 = CIRCLE('',#95,45.);
#95 = AXIS2_PLACEMENT_2D('',#96,#97);
#96 = CARTESIAN_POINT('',(0.,0.));
#97 = DIRECTION('',(1.,0.));
#98 = ( GEOMETRIC_REPRESENTATION_CONTEXT(2) 
PARAMETRIC_REPRESENTATION_CONTEXT() REPRESENTATION_CONTEXT('2D SPACE',''
  ) );
#99 = ORIENTED_EDGE('',*,*,#43,.F.);
#100 = ORIENTED_EDGE('',*,*,#101,.T.);
#101 = EDGE_CURVE('',#44,#102,#104,.T.);
#102 = VERTEX_POINT('',#103);
#103 = CARTESIAN_POINT('',(43.873595312043,-1.07459316132E-14,
    92.966287489024));
#104 = SURFACE_CURVE('',#105,(#168,#234),.PCURVE_S1.);
#105 = B_SPLINE_CURVE_WITH_KNOTS('',6,(#106,#107,#108,#109,#110,#111,
    #112,#113,#114,#115,#116,#117,#118,#119,#120,#121,#122,#123,#124,
    #125,#126,#127,#128,#129,#130,#131,#132,#133,#134,#135,#136,#137,
    #138,#139,#140,#141,#142,#143,#144,#145,#146,#147,#148,#149,#150,
    #151,#152,#153,#154,#155,#156,#157,#158,#159,#160,#161,#162,#163,
    #164,#165,#166,#167),.UNSPECIFIED.,.F.,.F.,(7,5,5,5,5,5,5,5,5,5,5,5,
    7),(0.,9.721918091731E-02,0.160652145564,0.243197538272,
    0.308614591889,0.361475515131,0.501124338008,0.640078903479,
    0.692965550196,0.760468142083,0.842866702917,0.904407453685,1.),
  .UNSPECIFIED.);
#106 = CARTESIAN_POINT('',(44.289909235699,0.,102.95782165678));
#107 = CARTESIAN_POINT('',(44.28990923568,0.307815797398,102.95782165658
    ));
#108 = CARTESIAN_POINT('',(44.286400410412,0.6157913775,102.93522078893)
  );
#109 = CARTESIAN_POINT('',(44.279375704518,0.919305459751,
    102.88998153267));
#110 = CARTESIAN_POINT('',(44.269146105014,1.21478149605,102.82352262383
    ));
#111 = CARTESIAN_POINT('',(44.256187158184,1.49945924032,102.73787663027
    ));
#112 = CARTESIAN_POINT('',(44.231145303182,1.948686069518,
    102.56867217052));
#113 = CARTESIAN_POINT('',(44.220317339896,2.120701192867,
    102.49469351922));
#114 = CARTESIAN_POINT('',(44.208688878801,2.286913212166,
    102.41415925469));
#115 = CARTESIAN_POINT('',(44.196400588244,2.447049544413,
    102.32768633459));
#116 = CARTESIAN_POINT('',(44.183585594186,2.600970193528,
    102.23585711912));
#117 = CARTESIAN_POINT('',(44.153151916191,2.940780826868,
    102.01337633512));
#118 = CARTESIAN_POINT('',(44.135251625988,3.122304289415,
    101.87938166792));
#119 = CARTESIAN_POINT('',(44.116917817688,3.293144212354,
    101.73830517321));
#120 = CARTESIAN_POINT('',(44.098374484069,3.453391648342,
    101.59112702762));
#121 = CARTESIAN_POINT('',(44.079809801592,3.603240124289,
    101.43867424546));
#122 = CARTESIAN_POINT('',(44.046763607368,3.853652719306,
    101.15711087826));
#123 = CARTESIAN_POINT('',(44.032235635449,3.957981135642,101.0297325948
    ));
#124 = CARTESIAN_POINT('',(44.017866230043,4.056044452617,
    100.89979290074));
#125 = CARTESIAN_POINT('',(44.003720899581,4.14796080019,100.76758611649
    ));
#126 = CARTESIAN_POINT('',(43.989855416154,4.233846379898,
    100.63336845524));
#127 = CARTESIAN_POINT('',(43.965376689383,4.378432898151,
    100.38745311488));
#128 = CARTESIAN_POINT('',(43.954650350661,4.439186010567,
    100.27638032267));
#129 = CARTESIAN_POINT('',(43.944162548899,4.496131719282,
    100.16425627179));
#130 = CARTESIAN_POINT('',(43.933935272849,4.54932360237,100.0511881064)
  );
#131 = CARTESIAN_POINT('',(43.923987683765,4.598810566652,99.93727333515
    ));
#132 = CARTESIAN_POINT('',(43.888838449513,4.765701441588,
    99.519653554918));
#133 = CARTESIAN_POINT('',(43.86541167472,4.861196584613,99.211465908747
    ));
#134 = CARTESIAN_POINT('',(43.844351233197,4.931988148967,
    98.899574805427));
#135 = CARTESIAN_POINT('',(43.825857217522,4.978557064564,
    98.585341967666));
#136 = CARTESIAN_POINT('',(43.810045061775,5.00121781145,98.269985989278
    ));
#137 = CARTESIAN_POINT('',(43.783941972183,4.998709106189,
    97.640725560052));
#138 = CARTESIAN_POINT('',(43.773627988138,4.97377725829,97.32691827621)
  );
#139 = CARTESIAN_POINT('',(43.766061560062,4.925184586459,
    97.014200252143));
#140 = CARTESIAN_POINT('',(43.761229920678,4.852634335693,
    96.703775087688));
#141 = CARTESIAN_POINT('',(43.75904831204,4.755667383402,96.396989361023
    ));
#142 = CARTESIAN_POINT('',(43.759467289093,4.586928324532,
    95.980567412475));
#143 = CARTESIAN_POINT('',(43.759942719407,4.536755138223,
    95.866524041023));
#144 = CARTESIAN_POINT('',(43.760769046534,4.482883203124,
    95.753324577978));
#145 = CARTESIAN_POINT('',(43.761935186047,4.425264350006,
    95.641067166423));
#146 = CARTESIAN_POINT('',(43.763427999297,4.36384566468,95.529859714459
    ));
#147 = CARTESIAN_POINT('',(43.767535228786,4.215253350779,
    95.279369073083));
#148 = CARTESIAN_POINT('',(43.770345425946,4.125655736213,
    95.140825219507));
#149 = CARTESIAN_POINT('',(43.773631065048,4.029653467327,
    95.004428740984));
#150 = CARTESIAN_POINT('',(43.777353872812,3.927119740567,
    94.870464380985));
#151 = CARTESIAN_POINT('',(43.781468003673,3.81792535858,94.739261228047
    ));
#152 = CARTESIAN_POINT('',(43.791352033455,3.56035977462,94.454863016589
    ));
#153 = CARTESIAN_POINT('',(43.797286133275,3.408678294229,
    94.303223790352));
#154 = CARTESIAN_POINT('',(43.803623352468,3.246646028089,94.1569352557)
  );
#155 = CARTESIAN_POINT('',(43.81024220617,3.074073383591,94.016841885841
    ));
#156 = CARTESIAN_POINT('',(43.816997864507,2.890876474221,
    93.883946228478));
#157 = CARTESIAN_POINT('',(43.828744775232,2.552414827827,
    93.666350364886));
#158 = CARTESIAN_POINT('',(43.83374926618,2.401833115158,93.577975848853
    ));
#159 = CARTESIAN_POINT('',(43.838666212858,2.245424596049,
    93.494738155515));
#160 = CARTESIAN_POINT('',(43.843417092713,2.083324035907,
    93.417182871877));
#161 = CARTESIAN_POINT('',(43.847919309613,1.915787564111,
    93.345887019544));
#162 = CARTESIAN_POINT('',(43.858570868271,1.475182692054,
    93.181291946804));
#163 = CARTESIAN_POINT('',(43.864258801077,1.194788347344,
    93.097559435168));
#164 = CARTESIAN_POINT('',(43.868836554323,0.904000554102,
    93.032594354457));
#165 = CARTESIAN_POINT('',(43.872010310488,0.605477563049,
    92.988377700702));
#166 = CARTESIAN_POINT('',(43.873595312043,0.30266195964,92.966287489024
    ));
#167 = CARTESIAN_POINT('',(43.873595312043,-5.372965806598E-15,
    92.966287489024));
#168 = PCURVE('',#54,#169);
#169 = DEFINITIONAL_REPRESENTATION('',(#170),#233);
#170 = B_SPLINE_CURVE_WITH_KNOTS('',6,(#171,#172,#173,#174,#175,#176,
    #177,#178,#179,#180,#181,#182,#183,#184,#185,#186,#187,#188,#189,
    #190,#191,#192,#193,#194,#195,#196,#197,#198,#199,#200,#201,#202,
    #203,#204,#205,#206,#207,#208,#209,#210,#211,#212,#213,#214,#215,
    #216,#217,#218,#219,#220,#221,#222,#223,#224,#225,#226,#227,#228,
    #229,#230,#231,#232),.UNSPECIFIED.,.F.,.F.,(7,5,5,5,5,5,5,5,5,5,5,5,
    7),(0.,9.721918091731E-02,0.160652145564,0.243197538272,
    0.308614591889,0.361475515131,0.501124338008,0.640078903479,
    0.692965550196,0.760468142083,0.842866702917,0.904407453685,1.),
  .UNSPECIFIED.);
#171 = CARTESIAN_POINT('',(0.,102.95782165678));
#172 = CARTESIAN_POINT('',(6.950020957603E-03,102.95782165658));
#173 = CARTESIAN_POINT('',(1.390364935163E-02,102.93522078893));
#174 = CARTESIAN_POINT('',(2.075781420993E-02,102.88998153267));
#175 = CARTESIAN_POINT('',(2.743303391845E-02,102.82352262383));
#176 = CARTESIAN_POINT('',(3.386772153636E-02,102.73787663027));
#177 = CARTESIAN_POINT('',(4.402817318473E-02,102.56867217052));
#178 = CARTESIAN_POINT('',(4.792047430566E-02,102.49469351922));
#179 = CARTESIAN_POINT('',(5.168334923745E-02,102.41415925469));
#180 = CARTESIAN_POINT('',(5.531065003411E-02,102.32768633459));
#181 = CARTESIAN_POINT('',(5.879916569794E-02,102.23585711912));
#182 = CARTESIAN_POINT('',(6.650538241574E-02,102.01337633512));
#183 = CARTESIAN_POINT('',(7.062551130452E-02,101.87938166792));
#184 = CARTESIAN_POINT('',(7.450672212905E-02,101.73830517321));
#185 = CARTESIAN_POINT('',(7.815078192961E-02,101.59112702762));
#186 = CARTESIAN_POINT('',(8.156172405394E-02,101.43867424546));
#187 = CARTESIAN_POINT('',(8.726752923863E-02,101.15711087826));
#188 = CARTESIAN_POINT('',(8.964688154656E-02,101.0297325948));
#189 = CARTESIAN_POINT('',(9.188545288462E-02,100.89979290074));
#190 = CARTESIAN_POINT('',(9.398573828082E-02,100.76758611649));
#191 = CARTESIAN_POINT('',(9.595019106945E-02,100.63336845524));
#192 = CARTESIAN_POINT('',(9.926076470495E-02,100.38745311488));
#193 = CARTESIAN_POINT('',(0.10065316077,100.27638032267));
#194 = CARTESIAN_POINT('',(0.101959616313,100.16425627179));
#195 = CARTESIAN_POINT('',(0.10318125758,100.0511881064));
#196 = CARTESIAN_POINT('',(0.104319108452,99.93727333515));
#197 = CARTESIAN_POINT('',(0.108161158555,99.519653554918));
#198 = CARTESIAN_POINT('',(0.110369390048,99.211465908747));
#199 = CARTESIAN_POINT('',(0.112016936721,98.899574805427));
#200 = CARTESIAN_POINT('',(0.113113394686,98.585341967666));
#201 = CARTESIAN_POINT('',(0.113664824931,98.269985989278));
#202 = CARTESIAN_POINT('',(0.113675447115,97.640725560052));
#203 = CARTESIAN_POINT('',(0.113140053506,97.32691827621));
#204 = CARTESIAN_POINT('',(0.112063584444,97.014200252143));
#205 = CARTESIAN_POINT('',(0.110438658408,96.703775087688));
#206 = CARTESIAN_POINT('',(0.108254426921,96.396989361023));
#207 = CARTESIAN_POINT('',(0.104440109097,95.980567412475));
#208 = CARTESIAN_POINT('',(0.103304838721,95.866524041023));
#209 = CARTESIAN_POINT('',(0.102084827343,95.753324577978));
#210 = CARTESIAN_POINT('',(0.100778972082,95.641067166423));
#211 = CARTESIAN_POINT('',(9.938606618949E-02,95.529859714459));
#212 = CARTESIAN_POINT('',(9.601416354722E-02,95.279369073083));
#213 = CARTESIAN_POINT('',(9.397964142118E-02,95.140825219507));
#214 = CARTESIAN_POINT('',(9.179843271074E-02,95.004428740984));
#215 = CARTESIAN_POINT('',(8.946766520937E-02,94.870464380985));
#216 = CARTESIAN_POINT('',(8.698442201045E-02,94.739261228047));
#217 = CARTESIAN_POINT('',(8.112483783633E-02,94.454863016589));
#218 = CARTESIAN_POINT('',(7.767274020028E-02,94.303223790352));
#219 = CARTESIAN_POINT('',(7.398385676675E-02,94.1569352557));
#220 = CARTESIAN_POINT('',(7.005395234494E-02,94.016841885841));
#221 = CARTESIAN_POINT('',(6.588121350981E-02,93.883946228478));
#222 = CARTESIAN_POINT('',(5.81706703208E-02,93.666350364886));
#223 = CARTESIAN_POINT('',(5.473985834536E-02,93.577975848853));
#224 = CARTESIAN_POINT('',(5.117596017161E-02,93.494738155515));
#225 = CARTESIAN_POINT('',(4.748209147383E-02,93.417182871877));
#226 = CARTESIAN_POINT('',(4.366413222661E-02,93.345887019544));
#227 = CARTESIAN_POINT('',(3.36228217553E-02,93.181291946804));
#228 = CARTESIAN_POINT('',(2.723227525138E-02,93.097559435168));
#229 = CARTESIAN_POINT('',(2.060460008679E-02,93.032594354457));
#230 = CARTESIAN_POINT('',(1.380050036103E-02,92.988377700702));
#231 = CARTESIAN_POINT('',(6.898499142527E-03,92.966287489024));
#232 = CARTESIAN_POINT('',(0.,92.966287489024));
#233 = ( GEOMETRIC_REPRESENTATION_CONTEXT(2) 
PARAMETRIC_REPRESENTATION_CONTEXT() REPRESENTATION_CONTEXT('2D SPACE',''
  ) );
#234 = PCURVE('',#235,#240);
#235 = TOROIDAL_SURFACE('',#236,33.,5.);
#236 = AXIS2_PLACEMENT_3D('',#237,#238,#239);
#237 = CARTESIAN_POINT('',(42.5,0.,65.));
#238 = DIRECTION('',(0.,1.,0.));
#239 = DIRECTION('',(0.,-0.,1.));
#240 = DEFINITIONAL_REPRESENTATION('',(#241),#304);
#241 = B_SPLINE_CURVE_WITH_KNOTS('',6,(#242,#243,#244,#245,#246,#247,
    #248,#249,#250,#251,#252,#253,#254,#255,#256,#257,#258,#259,#260,
    #261,#262,#263,#264,#265,#266,#267,#268,#269,#270,#271,#272,#273,
    #274,#275,#276,#277,#278,#279,#280,#281,#282,#283,#284,#285,#286,
    #287,#288,#289,#290,#291,#292,#293,#294,#295,#296,#297,#298,#299,
    #300,#301,#302,#303),.UNSPECIFIED.,.F.,.F.,(7,5,5,5,5,5,5,5,5,5,5,5,
    7),(0.,9.721918091731E-02,0.160652145564,0.243197538272,
    0.308614591889,0.361475515131,0.501124338008,0.640078903479,
    0.692965550196,0.760468142083,0.842866702917,0.904407453685,1.),
  .UNSPECIFIED.);
#242 = CARTESIAN_POINT('',(4.712030974383E-02,6.283184658302E-10));
#243 = CARTESIAN_POINT('',(4.712030974357E-02,6.1563160108E-02));
#244 = CARTESIAN_POINT('',(4.705608797835E-02,0.12315811358));
#245 = CARTESIAN_POINT('',(4.692751695474E-02,0.184281736452));
#246 = CARTESIAN_POINT('',(4.674039546081E-02,0.244636680546));
#247 = CARTESIAN_POINT('',(4.650366201482E-02,0.303983962774));
#248 = CARTESIAN_POINT('',(4.604724097043E-02,0.400060241945));
#249 = CARTESIAN_POINT('',(4.585011650659E-02,0.437503328261));
#250 = CARTESIAN_POINT('',(4.563874391538E-02,0.474426135941));
#251 = CARTESIAN_POINT('',(4.541582426736E-02,0.510818146876));
#252 = CARTESIAN_POINT('',(4.518394430875E-02,0.546683182025));
#253 = CARTESIAN_POINT('',(4.463503050264E-02,0.628041337446));
#254 = CARTESIAN_POINT('',(4.431343290911E-02,0.673173377927));
#255 = CARTESIAN_POINT('',(4.398572621454E-02,0.717475418308));
#256 = CARTESIAN_POINT('',(4.36564538743E-02,0.760995457748));
#257 = CARTESIAN_POINT('',(4.332955904553E-02,0.803790415371));
#258 = CARTESIAN_POINT('',(4.275377233688E-02,0.879325633349));
#259 = CARTESIAN_POINT('',(4.25027955975E-02,0.912306559667));
#260 = CARTESIAN_POINT('',(4.225707520906E-02,0.944905419375));
#261 = CARTESIAN_POINT('',(4.20180990583E-02,0.977152283052));
#262 = CARTESIAN_POINT('',(4.178719149692E-02,1.00907655376));
#263 = CARTESIAN_POINT('',(4.138641160058E-02,1.066269587229));
#264 = CARTESIAN_POINT('',(4.121333627956E-02,1.091639168526));
#265 = CARTESIAN_POINT('',(4.10469239906E-02,1.116832913647));
#266 = CARTESIAN_POINT('',(4.088774781018E-02,1.141865684782));
#267 = CARTESIAN_POINT('',(4.073633252936E-02,1.166751850489));
#268 = CARTESIAN_POINT('',(4.0214905078E-02,1.256899302243));
#269 = CARTESIAN_POINT('',(3.989421920531E-02,1.321356209005));
#270 = CARTESIAN_POINT('',(3.963978110818E-02,1.385155569131));
#271 = CARTESIAN_POINT('',(3.945862001567E-02,1.448513824076));
#272 = CARTESIAN_POINT('',(3.935604399376E-02,1.511642180477));
#273 = CARTESIAN_POINT('',(3.931550847991E-02,1.63760321659));
#274 = CARTESIAN_POINT('',(3.937673971532E-02,1.700416737788));
#275 = CARTESIAN_POINT('',(3.952294566274E-02,1.763455411767));
#276 = CARTESIAN_POINT('',(3.975606665453E-02,1.826927409717));
#277 = CARTESIAN_POINT('',(4.007559540051E-02,1.891046034581));
#278 = CARTESIAN_POINT('',(4.06305212198E-02,1.980841811742));
#279 = CARTESIAN_POINT('',(4.079542801111E-02,2.005728730575));
#280 = CARTESIAN_POINT('',(4.097204053748E-02,2.030761651753));
#281 = CARTESIAN_POINT('',(4.11600386162E-02,2.055955011364));
#282 = CARTESIAN_POINT('',(4.135900138939E-02,2.081323763121));
#283 = CARTESIAN_POINT('',(4.183568544071E-02,2.139506741424));
#284 = CARTESIAN_POINT('',(4.211996189448E-02,2.172440099038));
#285 = CARTESIAN_POINT('',(4.242014026046E-02,2.205717411172));
#286 = CARTESIAN_POINT('',(4.273477928753E-02,2.239371248817));
#287 = CARTESIAN_POINT('',(4.306202073956E-02,2.273435031212));
#288 = CARTESIAN_POINT('',(4.381148994601E-02,2.350070955691));
#289 = CARTESIAN_POINT('',(4.423868381399E-02,2.392856667521));
#290 = CARTESIAN_POINT('',(4.467690910737E-02,2.436373083601));
#291 = CARTESIAN_POINT('',(4.512059710904E-02,2.48067768093));
#292 = CARTESIAN_POINT('',(4.556277412499E-02,2.525818690143));
#293 = CARTESIAN_POINT('',(4.631787716146E-02,2.606210142222));
#294 = CARTESIAN_POINT('',(4.663515391683E-02,2.641068189889));
#295 = CARTESIAN_POINT('',(4.694337379425E-02,2.676426766272));
#296 = CARTESIAN_POINT('',(4.723849370171E-02,2.712288992294));
#297 = CARTESIAN_POINT('',(4.751618058016E-02,2.748644671843));
#298 = CARTESIAN_POINT('',(4.816955498401E-02,2.842664971095));
#299 = CARTESIAN_POINT('',(4.851479434532E-02,2.901037591271));
#300 = CARTESIAN_POINT('',(4.879073521677E-02,2.960392697437));
#301 = CARTESIAN_POINT('',(4.89814354036E-02,3.020497287938));
#302 = CARTESIAN_POINT('',(4.9076673415E-02,3.081060261662));
#303 = CARTESIAN_POINT('',(4.9076673415E-02,3.14159265359));
#304 = ( GEOMETRIC_REPRESENTATION_CONTEXT(2) 
PARAMETRIC_REPRESENTATION_CONTEXT() REPRESENTATION_CONTEXT('2D SPACE',''
  ) );
#305 = ORIENTED_EDGE('',*,*,#306,.F.);
#306 = EDGE_CURVE('',#307,#102,#309,.T.);
#307 = VERTEX_POINT('',#308);
#308 = CARTESIAN_POINT('',(41.542349228685,-1.017494100239E-14,
    37.016381488446));
#309 = SEAM_CURVE('',#310,(#314,#321),.PCURVE_S1.);
#310 = LINE('',#311,#312);
#311 = CARTESIAN_POINT('',(40.,-9.797174393179E-15,0.));
#312 = VECTOR('',#313,1.);
#313 = DIRECTION('',(4.163054471218E-02,-1.019654266571E-17,
    0.999133073092));
#314 = PCURVE('',#54,#315);
#315 = DEFINITIONAL_REPRESENTATION('',(#316),#320);
#316 = LINE('',#317,#318);
#317 = CARTESIAN_POINT('',(6.28318530718,-0.));
#318 = VECTOR('',#319,1.);
#319 = DIRECTION('',(0.,1.));
#320 = ( GEOMETRIC_REPRESENTATION_CONTEXT(2) 
PARAMETRIC_REPRESENTATION_CONTEXT() REPRESENTATION_CONTEXT('2D SPACE',''
  ) );
#321 = PCURVE('',#54,#322);
#322 = DEFINITIONAL_REPRESENTATION('',(#323),#327);
#323 = LINE('',#324,#325);
#324 = CARTESIAN_POINT('',(0.,-0.));
#325 = VECTOR('',#326,1.);
#326 = DIRECTION('',(0.,1.));
#327 = ( GEOMETRIC_REPRESENTATION_CONTEXT(2) 
PARAMETRIC_REPRESENTATION_CONTEXT() REPRESENTATION_CONTEXT('2D SPACE',''
  ) );
#328 = ORIENTED_EDGE('',*,*,#329,.F.);
#329 = EDGE_CURVE('',#330,#307,#332,.T.);
#330 = VERTEX_POINT('',#331);
#331 = CARTESIAN_POINT('',(41.126035305029,-5.648810149366E-15,
    27.024847320689));
#332 = SURFACE_CURVE('',#333,(#396,#462),.PCURVE_S1.);
#333 = B_SPLINE_CURVE_WITH_KNOTS('',6,(#334,#335,#336,#337,#338,#339,
    #340,#341,#342,#343,#344,#345,#346,#347,#348,#349,#350,#351,#352,
    #353,#354,#355,#356,#357,#358,#359,#360,#361,#362,#363,#364,#365,
    #366,#367,#368,#369,#370,#371,#372,#373,#374,#375,#376,#377,#378,
    #379,#380,#381,#382,#383,#384,#385,#386,#387,#388,#389,#390,#391,
    #392,#393,#394,#395),.UNSPECIFIED.,.F.,.F.,(7,5,5,5,5,5,5,5,5,5,5,5,
    7),(0.,9.72521851324E-02,0.158899774479,0.241454593189,0.30690533603
    ,0.359795781656,0.497162294149,0.638870295866,0.691711435076,
    0.759159131572,0.841523977706,0.903077778436,1.),.UNSPECIFIED.);
#334 = CARTESIAN_POINT('',(41.126035305029,-5.036486749792E-15,
    27.024847320689));
#335 = CARTESIAN_POINT('',(41.126035305025,0.30793736815,27.024847320883
    ));
#336 = CARTESIAN_POINT('',(41.124220164583,0.616036778631,
    27.047686940092));
#337 = CARTESIAN_POINT('',(41.120585440671,0.919616532758,
    27.093404600361));
#338 = CARTESIAN_POINT('',(41.115346688326,1.215073534604,
    27.160531904743));
#339 = CARTESIAN_POINT('',(41.108843826985,1.499643463575,27.24697422681
    ));
#340 = CARTESIAN_POINT('',(41.096751033591,1.943518375379,
    27.415692842107));
#341 = CARTESIAN_POINT('',(41.091695754809,2.110639217953,
    27.487946083412));
#342 = CARTESIAN_POINT('',(41.086366479949,2.272272062708,27.56642065038
    ));
#343 = CARTESIAN_POINT('',(41.080853237204,2.428169299767,
    27.650539814723));
#344 = CARTESIAN_POINT('',(41.075241327196,2.578203292666,
    27.739759468782));
#345 = CARTESIAN_POINT('',(41.06206012511,2.915343381116,27.959271597128
    ));
#346 = CARTESIAN_POINT('',(41.054473507312,3.097738912109,
    28.093213533499));
#347 = CARTESIAN_POINT('',(41.047028408158,3.26946528834,28.23429779336)
  );
#348 = CARTESIAN_POINT('',(41.039881350118,3.430616332751,
    28.381526244749));
#349 = CARTESIAN_POINT('',(41.033163288953,3.581388767003,
    28.534058734618));
#350 = CARTESIAN_POINT('',(41.02207693128,3.833544788909,28.815853359112
    ));
#351 = CARTESIAN_POINT('',(41.017510755231,3.938678307224,
    28.943377124769));
#352 = CARTESIAN_POINT('',(41.013334195538,4.037557573547,
    29.073472879688));
#353 = CARTESIAN_POINT('',(41.009592194757,4.130301425845,29.20584254367
    ));
#354 = CARTESIAN_POINT('',(41.006322475506,4.217026251143,
    29.340227063685));
#355 = CARTESIAN_POINT('',(41.001321476153,4.363154064034,29.58645236523
    ));
#356 = CARTESIAN_POINT('',(40.999415494569,4.42460480982,29.697667625584
    ));
#357 = CARTESIAN_POINT('',(40.997855163561,4.482255239051,29.80993429785
    ));
#358 = CARTESIAN_POINT('',(40.996654796585,4.536158620637,
    29.923144272474));
#359 = CARTESIAN_POINT('',(40.995826494264,4.586363381813,
    30.037199250637));
#360 = CARTESIAN_POINT('',(40.994220889144,4.753811570747,
    30.450197955325));
#361 = CARTESIAN_POINT('',(40.995638631112,4.850035799478,
    30.753437915032));
#362 = CARTESIAN_POINT('',(40.999807648017,4.922396394446,
    31.060255308644));
#363 = CARTESIAN_POINT('',(41.006820335208,4.971339190874,
    31.369345451179));
#364 = CARTESIAN_POINT('',(41.016695536383,4.997150360959,
    31.679542078167));
#365 = CARTESIAN_POINT('',(41.042495613608,5.002565539735,
    32.309918096353));
#366 = CARTESIAN_POINT('',(41.058597699395,4.980682503525,
    32.630002287723));
#367 = CARTESIAN_POINT('',(41.077655721779,4.934182939037,
    32.948965759995));
#368 = CARTESIAN_POINT('',(41.099546339285,4.862738113271,
    33.265534022461));
#369 = CARTESIAN_POINT('',(41.124050058607,4.765849963483,
    33.578283541086));
#370 = CARTESIAN_POINT('',(41.160828931593,4.59666499409,34.000203120527
    ));
#371 = CARTESIAN_POINT('',(41.171135443302,4.547052940539,
    34.114037407362));
#372 = CARTESIAN_POINT('',(41.181741713754,4.493736921401,
    34.227021223426));
#373 = CARTESIAN_POINT('',(41.192627441058,4.436668444524,
    34.339057058907));
#374 = CARTESIAN_POINT('',(41.20376933143,4.375794460234,34.45003784027)
  );
#375 = CARTESIAN_POINT('',(41.229656296108,4.228425376795,
    34.700009884446));
#376 = CARTESIAN_POINT('',(41.244545442865,4.139502091565,
    34.838259195561));
#377 = CARTESIAN_POINT('',(41.25975400329,4.044164597608,34.974356481201
    ));
#378 = CARTESIAN_POINT('',(41.275216915845,3.94228672179,35.108019999603
    ));
#379 = CARTESIAN_POINT('',(41.290857471939,3.833740484225,
    35.238924784599));
#380 = CARTESIAN_POINT('',(41.325793577998,3.577544673912,
    35.522740948284));
#381 = CARTESIAN_POINT('',(41.345129930426,3.426573244884,
    35.674097198662));
#382 = CARTESIAN_POINT('',(41.364435245058,3.265237785956,
    35.820119516612));
#383 = CARTESIAN_POINT('',(41.3835094913,3.093352627642,35.959976818626)
  );
#384 = CARTESIAN_POINT('',(41.402115228199,2.910837413715,36.09268474695
    ));
#385 = CARTESIAN_POINT('',(41.433331278622,2.573471811937,
    36.310134349898));
#386 = CARTESIAN_POINT('',(41.446267257377,2.423297969459,
    36.398513531737));
#387 = CARTESIAN_POINT('',(41.458674251982,2.267288552737,36.4817986748)
  );
#388 = CARTESIAN_POINT('',(41.470423684466,2.105577543144,
    36.559454998658));
#389 = CARTESIAN_POINT('',(41.481380101456,1.938418048209,36.63091701871
    ));
#390 = CARTESIAN_POINT('',(41.507200373288,1.49506498994,36.797506791764
    ));
#391 = CARTESIAN_POINT('',(41.520706134755,1.211174145627,
    36.882729661913));
#392 = CARTESIAN_POINT('',(41.531368803072,0.916553376792,
    36.948866015915));
#393 = CARTESIAN_POINT('',(41.538691535937,0.613941546438,
    36.993888772226));
#394 = CARTESIAN_POINT('',(41.542349228685,0.306891366167,
    37.016381488446));
#395 = CARTESIAN_POINT('',(41.542349228685,-5.087470501197E-15,
    37.016381488446));
#396 = PCURVE('',#54,#397);
#397 = DEFINITIONAL_REPRESENTATION('',(#398),#461);
#398 = B_SPLINE_CURVE_WITH_KNOTS('',6,(#399,#400,#401,#402,#403,#404,
    #405,#406,#407,#408,#409,#410,#411,#412,#413,#414,#415,#416,#417,
    #418,#419,#420,#421,#422,#423,#424,#425,#426,#427,#428,#429,#430,
    #431,#432,#433,#434,#435,#436,#437,#438,#439,#440,#441,#442,#443,
    #444,#445,#446,#447,#448,#449,#450,#451,#452,#453,#454,#455,#456,
    #457,#458,#459,#460),.UNSPECIFIED.,.F.,.F.,(7,5,5,5,5,5,5,5,5,5,5,5,
    7),(0.,9.72521851324E-02,0.158899774479,0.241454593189,0.30690533603
    ,0.359795781656,0.497162294149,0.638870295866,0.691711435076,
    0.759159131572,0.841523977706,0.903077778436,1.),.UNSPECIFIED.);
#399 = CARTESIAN_POINT('',(0.,27.024847320689));
#400 = CARTESIAN_POINT('',(7.487650240671E-03,27.024847320883));
#401 = CARTESIAN_POINT('',(1.497924075357E-02,27.047686940092));
#402 = CARTESIAN_POINT('',(2.236090865839E-02,27.093404600361));
#403 = CARTESIAN_POINT('',(2.954502311594E-02,27.160531904743));
#404 = CARTESIAN_POINT('',(3.646425136194E-02,27.24697422681));
#405 = CARTESIAN_POINT('',(4.725638423315E-02,27.415692842107));
#406 = CARTESIAN_POINT('',(5.131952877922E-02,27.487946083412));
#407 = CARTESIAN_POINT('',(5.524905799825E-02,27.56642065038));
#408 = CARTESIAN_POINT('',(5.90389011025E-02,27.650539814723));
#409 = CARTESIAN_POINT('',(6.268590044007E-02,27.739759468782));
#410 = CARTESIAN_POINT('',(7.088016315392E-02,27.959271597128));
#411 = CARTESIAN_POINT('',(7.531262553645E-02,28.093213533499));
#412 = CARTESIAN_POINT('',(7.948493970891E-02,28.23429779336));
#413 = CARTESIAN_POINT('',(8.339925973515E-02,28.381526244749));
#414 = CARTESIAN_POINT('',(8.706025515286E-02,28.534058734618));
#415 = CARTESIAN_POINT('',(9.318050036744E-02,28.815853359112));
#416 = CARTESIAN_POINT('',(9.573132354779E-02,28.943377124769));
#417 = CARTESIAN_POINT('',(9.81293635411E-02,29.073472879688));
#418 = CARTESIAN_POINT('',(0.100377474008,29.20584254367));
#419 = CARTESIAN_POINT('',(0.102478459401,29.340227063685));
#420 = CARTESIAN_POINT('',(0.10601616032,29.58645236523));
#421 = CARTESIAN_POINT('',(0.107502940246,29.697667625584));
#422 = CARTESIAN_POINT('',(0.108896794305,29.80993429785));
#423 = CARTESIAN_POINT('',(0.11019901533,29.923144272474));
#424 = CARTESIAN_POINT('',(0.111410783579,30.037199250637));
#425 = CARTESIAN_POINT('',(0.115448208548,30.450197955325));
#426 = CARTESIAN_POINT('',(0.117759840783,30.753437915032));
#427 = CARTESIAN_POINT('',(0.119487906884,31.060255308644));
#428 = CARTESIAN_POINT('',(0.120643634142,31.369345451179));
#429 = CARTESIAN_POINT('',(0.12123463839,31.679542078167));
#430 = CARTESIAN_POINT('',(0.12128918379,32.309918096353));
#431 = CARTESIAN_POINT('',(0.120716492121,32.630002287724));
#432 = CARTESIAN_POINT('',(0.119544805986,32.948965759995));
#433 = CARTESIAN_POINT('',(0.117767460298,33.265534022461));
#434 = CARTESIAN_POINT('',(0.115374004754,33.578283541086));
#435 = CARTESIAN_POINT('',(0.111214774149,34.000203120527));
#436 = CARTESIAN_POINT('',(0.109996722968,34.114037407362));
#437 = CARTESIAN_POINT('',(0.108689334768,34.227021223426));
#438 = CARTESIAN_POINT('',(0.107291536677,34.339057058907));
#439 = CARTESIAN_POINT('',(0.10580214987,34.45003784027));
#440 = CARTESIAN_POINT('',(0.102200254597,34.700009884446));
#441 = CARTESIAN_POINT('',(0.100029370688,34.838259195561));
#442 = CARTESIAN_POINT('',(9.770448807437E-02,34.974356481201));
#443 = CARTESIAN_POINT('',(9.52227900848E-02,35.108019999603));
#444 = CARTESIAN_POINT('',(9.258141887457E-02,35.238924784599));
#445 = CARTESIAN_POINT('',(8.635345167088E-02,35.522740948284));
#446 = CARTESIAN_POINT('',(8.268741879933E-02,35.674097198662));
#447 = CARTESIAN_POINT('',(7.877387848493E-02,35.820119516612));
#448 = CARTESIAN_POINT('',(7.460875292571E-02,35.959976818626));
#449 = CARTESIAN_POINT('',(7.019044151675E-02,36.09268474695));
#450 = CARTESIAN_POINT('',(6.203112274183E-02,36.310134349898));
#451 = CARTESIAN_POINT('',(5.84014046662E-02,36.398513531737));
#452 = CARTESIAN_POINT('',(5.463292949974E-02,36.4817986748));
#453 = CARTESIAN_POINT('',(5.07289731647E-02,36.559454998658));
#454 = CARTESIAN_POINT('',(4.669561945881E-02,36.63091701871));
#455 = CARTESIAN_POINT('',(3.600308627996E-02,36.797506791764));
#456 = CARTESIAN_POINT('',(2.916107599728E-02,36.882729661913));
#457 = CARTESIAN_POINT('',(2.206458547175E-02,36.948866015915));
#458 = CARTESIAN_POINT('',(1.477869083553E-02,36.993888772226));
#459 = CARTESIAN_POINT('',(7.387434073065E-03,37.016381488446));
#460 = CARTESIAN_POINT('',(0.,37.016381488446));
#461 = ( GEOMETRIC_REPRESENTATION_CONTEXT(2) 
PARAMETRIC_REPRESENTATION_CONTEXT() REPRESENTATION_CONTEXT('2D SPACE',''
  ) );
#462 = PCURVE('',#235,#463);
#463 = DEFINITIONAL_REPRESENTATION('',(#464),#527);
#464 = B_SPLINE_CURVE_WITH_KNOTS('',6,(#465,#466,#467,#468,#469,#470,
    #471,#472,#473,#474,#475,#476,#477,#478,#479,#480,#481,#482,#483,
    #484,#485,#486,#487,#488,#489,#490,#491,#492,#493,#494,#495,#496,
    #497,#498,#499,#500,#501,#502,#503,#504,#505,#506,#507,#508,#509,
    #510,#511,#512,#513,#514,#515,#516,#517,#518,#519,#520,#521,#522,
    #523,#524,#525,#526),.UNSPECIFIED.,.F.,.F.,(7,5,5,5,5,5,5,5,5,5,5,5,
    7),(0.,9.72521851324E-02,0.158899774479,0.241454593189,0.30690533603
    ,0.359795781656,0.497162294149,0.638870295866,0.691711435076,
    0.759159131572,0.841523977706,0.903077778436,1.),.UNSPECIFIED.);
#465 = CARTESIAN_POINT('',(3.177757502043,6.283184654141E-10));
#466 = CARTESIAN_POINT('',(3.177757502043,6.158747425822E-02));
#467 = CARTESIAN_POINT('',(3.177826971368,0.123207189104));
#468 = CARTESIAN_POINT('',(3.177966050641,0.184344468248));
#469 = CARTESIAN_POINT('',(3.178168343639,0.244697060722));
#470 = CARTESIAN_POINT('',(3.178424042547,0.304023362724));
#471 = CARTESIAN_POINT('',(3.178911025725,0.398955025579));
#472 = CARTESIAN_POINT('',(3.179117085691,0.435313813333));
#473 = CARTESIAN_POINT('',(3.179337616579,0.471176021267));
#474 = CARTESIAN_POINT('',(3.179569929804,0.506532357546));
#475 = CARTESIAN_POINT('',(3.179811452861,0.541386653993));
#476 = CARTESIAN_POINT('',(3.180392553084,0.621774618056));
#477 = CARTESIAN_POINT('',(3.180737558182,0.666914888858));
#478 = CARTESIAN_POINT('',(3.181089360447,0.711218138733));
#479 = CARTESIAN_POINT('',(3.181443039843,0.754733559284));
#480 = CARTESIAN_POINT('',(3.181794337264,0.797519366212));
#481 = CARTESIAN_POINT('',(3.182413514607,0.873046189156));
#482 = CARTESIAN_POINT('',(3.182683569075,0.906028545535));
#483 = CARTESIAN_POINT('',(3.182948069023,0.938627212308));
#484 = CARTESIAN_POINT('',(3.183205412785,0.970872826302));
#485 = CARTESIAN_POINT('',(3.183454177365,1.002795279011));
#486 = CARTESIAN_POINT('',(3.183886174519,1.059985951813));
#487 = CARTESIAN_POINT('',(3.184072815833,1.085354997708));
#488 = CARTESIAN_POINT('',(3.184252358567,1.110548337479));
#489 = CARTESIAN_POINT('',(3.184424188518,1.135581029697));
#490 = CARTESIAN_POINT('',(3.18458774389,1.160467610644));
#491 = CARTESIAN_POINT('',(3.185144485975,1.249514180533));
#492 = CARTESIAN_POINT('',(3.185487131355,1.312905261032));
#493 = CARTESIAN_POINT('',(3.185761624074,1.37566284393));
#494 = CARTESIAN_POINT('',(3.185960817607,1.437994588608));
#495 = CARTESIAN_POINT('',(3.186079294982,1.500102494212));
#496 = CARTESIAN_POINT('',(3.186148324852,1.626287071673));
#497 = CARTESIAN_POINT('',(3.186093440279,1.690344018958));
#498 = CARTESIAN_POINT('',(3.185944570606,1.754633819689));
#499 = CARTESIAN_POINT('',(3.185699473264,1.819375560348));
#500 = CARTESIAN_POINT('',(3.18535870482,1.88479305645));
#501 = CARTESIAN_POINT('',(3.184765757256,1.975930613535));
#502 = CARTESIAN_POINT('',(3.184592051222,2.000817096637));
#503 = CARTESIAN_POINT('',(3.184405923923,2.025850110951));
#504 = CARTESIAN_POINT('',(3.184207716683,2.051043905489));
#505 = CARTESIAN_POINT('',(3.183997876792,2.076413223629));
#506 = CARTESIAN_POINT('',(3.183494970829,2.134598801158));
#507 = CARTESIAN_POINT('',(3.183194948143,2.167534176911));
#508 = CARTESIAN_POINT('',(3.182878052482,2.2008128623));
#509 = CARTESIAN_POINT('',(3.182545808846,2.23446689076));
#510 = CARTESIAN_POINT('',(3.182200178453,2.268529074571));
#511 = CARTESIAN_POINT('',(3.181408231768,2.34517287396));
#512 = CARTESIAN_POINT('',(3.180956614343,2.38796750853));
#513 = CARTESIAN_POINT('',(3.180493200012,2.431488336944));
#514 = CARTESIAN_POINT('',(3.180023844895,2.475791638006));
#515 = CARTESIAN_POINT('',(3.179555865972,2.520924562402));
#516 = CARTESIAN_POINT('',(3.178755936328,2.601309500667));
#517 = CARTESIAN_POINT('',(3.178419526848,2.636173301306));
#518 = CARTESIAN_POINT('',(3.178092500893,2.671533647226));
#519 = CARTESIAN_POINT('',(3.177779094022,2.707393627712));
#520 = CARTESIAN_POINT('',(3.177483845321,2.743743384954));
#521 = CARTESIAN_POINT('',(3.176782228129,2.838524374396));
#522 = CARTESIAN_POINT('',(3.176409108115,2.897692545735));
#523 = CARTESIAN_POINT('',(3.176110614594,2.957865113435));
#524 = CARTESIAN_POINT('',(3.175904214763,3.018804502649));
#525 = CARTESIAN_POINT('',(3.175801138372,3.080214380356));
#526 = CARTESIAN_POINT('',(3.175801138372,3.14159265359));
#527 = ( GEOMETRIC_REPRESENTATION_CONTEXT(2) 
PARAMETRIC_REPRESENTATION_CONTEXT() REPRESENTATION_CONTEXT('2D SPACE',''
  ) );
#528 = ORIENTED_EDGE('',*,*,#529,.F.);
#529 = EDGE_CURVE('',#530,#330,#532,.T.);
#530 = VERTEX_POINT('',#531);
#531 = CARTESIAN_POINT('',(40.,-9.797174393179E-15,0.));
#532 = SEAM_CURVE('',#533,(#537,#544),.PCURVE_S1.);
#533 = LINE('',#534,#535);
#534 = CARTESIAN_POINT('',(40.,-9.797174393179E-15,0.));
#535 = VECTOR('',#536,1.);
#536 = DIRECTION('',(4.163054471218E-02,-1.019654266571E-17,
    0.999133073092));
#537 = PCURVE('',#54,#538);
#538 = DEFINITIONAL_REPRESENTATION('',(#539),#543);
#539 = LINE('',#540,#541);
#540 = CARTESIAN_POINT('',(6.28318530718,-0.));
#541 = VECTOR('',#542,1.);
#542 = DIRECTION('',(0.,1.));
#543 = ( GEOMETRIC_REPRESENTATION_CONTEXT(2) 
PARAMETRIC_REPRESENTATION_CONTEXT() REPRESENTATION_CONTEXT('2D SPACE',''
  ) );
#544 = PCURVE('',#54,#545);
#545 = DEFINITIONAL_REPRESENTATION('',(#546),#550);
#546 = LINE('',#547,#548);
#547 = CARTESIAN_POINT('',(0.,-0.));
#548 = VECTOR('',#549,1.);
#549 = DIRECTION('',(0.,1.));
#550 = ( GEOMETRIC_REPRESENTATION_CONTEXT(2) 
PARAMETRIC_REPRESENTATION_CONTEXT() REPRESENTATION_CONTEXT('2D SPACE',''
  ) );
#551 = ORIENTED_EDGE('',*,*,#552,.T.);
#552 = EDGE_CURVE('',#530,#530,#553,.T.);
#553 = SURFACE_CURVE('',#554,(#559,#566),.PCURVE_S1.);
#554 = CIRCLE('',#555,40.);
#555 = AXIS2_PLACEMENT_3D('',#556,#557,#558);
#556 = CARTESIAN_POINT('',(0.,0.,0.));
#557 = DIRECTION('',(0.,0.,1.));
#558 = DIRECTION('',(1.,0.,-0.));
#559 = PCURVE('',#54,#560);
#560 = DEFINITIONAL_REPRESENTATION('',(#561),#565);
#561 = LINE('',#562,#563);
#562 = CARTESIAN_POINT('',(0.,0.));
#563 = VECTOR('',#564,1.);
#564 = DIRECTION('',(1.,0.));
#565 = ( GEOMETRIC_REPRESENTATION_CONTEXT(2) 
PARAMETRIC_REPRESENTATION_CONTEXT() REPRESENTATION_CONTEXT('2D SPACE',''
  ) );
#566 = PCURVE('',#567,#572);
#567 = PLANE('',#568);
#568 = AXIS2_PLACEMENT_3D('',#569,#570,#571);
#569 = CARTESIAN_POINT('',(0.,0.,0.));
#570 = DIRECTION('',(0.,0.,1.));
#571 = DIRECTION('',(1.,0.,-0.));
#572 = DEFINITIONAL_REPRESENTATION('',(#573),#577);
#573 = CIRCLE('',#574,40.);
#574 = AXIS2_PLACEMENT_2D('',#575,#576);
#575 = CARTESIAN_POINT('',(0.,0.));
#576 = DIRECTION('',(1.,0.));
#577 = ( GEOMETRIC_REPRESENTATION_CONTEXT(2) 
PARAMETRIC_REPRESENTATION_CONTEXT() REPRESENTATION_CONTEXT('2D SPACE',''
  ) );
#578 = ORIENTED_EDGE('',*,*,#529,.T.);
#579 = ORIENTED_EDGE('',*,*,#580,.F.);
#580 = EDGE_CURVE('',#307,#330,#581,.T.);
#581 = SURFACE_CURVE('',#582,(#645,#711),.PCURVE_S1.);
#582 = B_SPLINE_CURVE_WITH_KNOTS('',6,(#583,#584,#585,#586,#587,#588,
    #589,#590,#591,#592,#593,#594,#595,#596,#597,#598,#599,#600,#601,
    #602,#603,#604,#605,#606,#607,#608,#609,#610,#611,#612,#613,#614,
    #615,#616,#617,#618,#619,#620,#621,#622,#623,#624,#625,#626,#627,
    #628,#629,#630,#631,#632,#633,#634,#635,#636,#637,#638,#639,#640,
    #641,#642,#643,#644),.UNSPECIFIED.,.F.,.F.,(7,5,5,5,5,5,5,5,5,5,5,5,
    7),(0.,9.726978918041E-02,0.158848228293,0.241247285171,
    0.308718474624,0.361573671274,0.502784604941,0.64015297138,
    0.693045047824,0.758498450164,0.841057310517,0.902707839259,1.),
  .UNSPECIFIED.);
#583 = CARTESIAN_POINT('',(41.542349228685,-5.329070518201E-15,
    37.016381488446));
#584 = CARTESIAN_POINT('',(41.542349228685,-0.307993394414,
    37.016381488446));
#585 = CARTESIAN_POINT('',(41.538665223434,-0.616145509782,
    36.993726944956));
#586 = CARTESIAN_POINT('',(41.531289816241,-0.919811662298,
    36.948380434275));
#587 = CARTESIAN_POINT('',(41.520552799872,-1.215402463108,
    36.881778481971));
#588 = CARTESIAN_POINT('',(41.506957746809,-1.500156655182,
    36.795975689495));
#589 = CARTESIAN_POINT('',(41.481009277806,-1.944182996713,
    36.628502181675));
#590 = CARTESIAN_POINT('',(41.470024963437,-2.111255278432,
    36.556830733014));
#591 = CARTESIAN_POINT('',(41.458250134637,-2.272868017988,
    36.478973116301));
#592 = CARTESIAN_POINT('',(41.445820306038,-2.428770153852,
    36.395495034762));
#593 = CARTESIAN_POINT('',(41.432864024008,-2.5788294078,36.306931103519
    ));
#594 = CARTESIAN_POINT('',(41.401605957784,-2.915916182491,
    36.089065877673));
#595 = CARTESIAN_POINT('',(41.382980431148,-3.098262136353,
    35.956133057439));
#596 = CARTESIAN_POINT('',(41.363890589569,-3.269970169792,
    35.816063805925));
#597 = CARTESIAN_POINT('',(41.344573599798,-3.431122620811,
    35.669841347811));
#598 = CARTESIAN_POINT('',(41.325229190809,-3.581906336269,
    35.51829557883));
#599 = CARTESIAN_POINT('',(41.290285595458,-3.83774562555,
    35.234160783694));
#600 = CARTESIAN_POINT('',(41.274644487265,-3.946125317465,
    35.10312414267));
#601 = CARTESIAN_POINT('',(41.259183100502,-4.047835174574,
    34.96933504469));
#602 = CARTESIAN_POINT('',(41.24397799306,-4.143003331255,
    34.833117921655));
#603 = CARTESIAN_POINT('',(41.229094090178,-4.231755985384,
    34.694754067068));
#604 = CARTESIAN_POINT('',(41.203220394391,-4.378813010381,
    34.444595600511));
#605 = CARTESIAN_POINT('',(41.192085844408,-4.439546737548,
    34.333541218527));
#606 = CARTESIAN_POINT('',(41.181208380599,-4.496474716391,
    34.221434806711));
#607 = CARTESIAN_POINT('',(41.170611237415,-4.549649933036,
    34.108383268809));
#608 = CARTESIAN_POINT('',(41.160314662315,-4.599120798562,
    33.994483974398));
#609 = CARTESIAN_POINT('',(41.12367613192,-4.767320672956,
    33.573494711841));
#610 = CARTESIAN_POINT('',(41.099290218381,-4.863560617641,
    33.261796899102));
#611 = CARTESIAN_POINT('',(41.077501008158,-4.934539917986,
    32.946319720885));
#612 = CARTESIAN_POINT('',(41.058525134198,-4.980750441615,
    32.628470617868));
#613 = CARTESIAN_POINT('',(41.042484505471,-5.002516276431,
    32.309510441623));
#614 = CARTESIAN_POINT('',(41.016719235137,-4.997200886123,
    31.680253352215));
#615 = CARTESIAN_POINT('',(41.006838455534,-4.97143355138,
    31.370050982622));
#616 = CARTESIAN_POINT('',(40.999820274822,-4.922534292271,
    31.060953429871));
#617 = CARTESIAN_POINT('',(40.995645922953,-4.85021721486,
    30.754126892294));
#618 = CARTESIAN_POINT('',(40.99422308251,-4.754036740471,
    30.450875882598));
#619 = CARTESIAN_POINT('',(40.995822085949,-4.586649049044,
    30.037856825639));
#620 = CARTESIAN_POINT('',(40.996648620384,-4.536460470132,
    29.92379445013));
#621 = CARTESIAN_POINT('',(40.997847285917,-4.482573229724,
    29.810576762615));
#622 = CARTESIAN_POINT('',(40.999405986896,-4.424938910737,
    29.698302045112));
#623 = CARTESIAN_POINT('',(41.001310415141,-4.363504252401,
    29.587078386823));
#624 = CARTESIAN_POINT('',(41.006308150114,-4.217411605755,
    29.340832117882));
#625 = CARTESIAN_POINT('',(41.009576212019,-4.130705733327,
    29.206434862691));
#626 = CARTESIAN_POINT('',(41.013316701039,-4.037980700131,
    29.074051883107));
#627 = CARTESIAN_POINT('',(41.017491905161,-3.939120118017,
    28.943942183538));
#628 = CARTESIAN_POINT('',(41.022056893269,-3.834005134533,
    28.816403786434));
#629 = CARTESIAN_POINT('',(41.033141022533,-3.581889447001,
    28.534573065881));
#630 = CARTESIAN_POINT('',(41.039858158613,-3.4311385341,28.382018745526
    ));
#631 = CARTESIAN_POINT('',(41.047004607644,-3.27000848083,
    28.234767228208));
#632 = CARTESIAN_POINT('',(41.054449438231,-3.098302432992,
    28.093658526234));
#633 = CARTESIAN_POINT('',(41.062036149859,-2.915926340935,
    27.959690636428));
#634 = CARTESIAN_POINT('',(41.075218165676,-2.57881821954,
    27.740130478374));
#635 = CARTESIAN_POINT('',(41.080830629018,-2.428797321848,
    27.650889453902));
#636 = CARTESIAN_POINT('',(41.086344640768,-2.272912342548,
    27.566747966082));
#637 = CARTESIAN_POINT('',(41.09167490281,-2.111290721069,27.48825010241
    ));
#638 = CARTESIAN_POINT('',(41.096731382308,-1.944179829811,
    27.415972615989));
#639 = CARTESIAN_POINT('',(41.108830471471,-1.500227855117,
    27.247151754608));
#640 = CARTESIAN_POINT('',(41.115338081668,-1.21555888546,
    27.160642204312));
#641 = CARTESIAN_POINT('',(41.12058095527,-0.919990728225,
    27.093461005607));
#642 = CARTESIAN_POINT('',(41.124218673688,-0.616290127958,
    27.04770570461));
#643 = CARTESIAN_POINT('',(41.126035305026,-0.308063807363,
    27.024847320816));
#644 = CARTESIAN_POINT('',(41.126035305029,0.,27.024847320689));
#645 = PCURVE('',#54,#646);
#646 = DEFINITIONAL_REPRESENTATION('',(#647),#710);
#647 = B_SPLINE_CURVE_WITH_KNOTS('',6,(#648,#649,#650,#651,#652,#653,
    #654,#655,#656,#657,#658,#659,#660,#661,#662,#663,#664,#665,#666,
    #667,#668,#669,#670,#671,#672,#673,#674,#675,#676,#677,#678,#679,
    #680,#681,#682,#683,#684,#685,#686,#687,#688,#689,#690,#691,#692,
    #693,#694,#695,#696,#697,#698,#699,#700,#701,#702,#703,#704,#705,
    #706,#707,#708,#709),.UNSPECIFIED.,.F.,.F.,(7,5,5,5,5,5,5,5,5,5,5,5,
    7),(0.,9.726978918041E-02,0.158848228293,0.241247285171,
    0.308718474624,0.361573671274,0.502784604941,0.64015297138,
    0.693045047824,0.758498450164,0.841057310517,0.902707839259,1.),
  .UNSPECIFIED.);
#648 = CARTESIAN_POINT('',(6.28318530718,37.016381488446));
#649 = CARTESIAN_POINT('',(6.27577134528,37.016381488446));
#650 = CARTESIAN_POINT('',(6.268353562936,36.993726944957));
#651 = CARTESIAN_POINT('',(6.261042272881,36.948380434275));
#652 = CARTESIAN_POINT('',(6.253922384004,36.881778481971));
#653 = CARTESIAN_POINT('',(6.247059506964,36.795975689495));
#654 = CARTESIAN_POINT('',(6.236350597414,36.628502181675));
#655 = CARTESIAN_POINT('',(6.232319289425,36.556830733014));
#656 = CARTESIAN_POINT('',(6.228417642864,36.478973116301));
#657 = CARTESIAN_POINT('',(6.224651693438,36.395495034762));
#658 = CARTESIAN_POINT('',(6.221024677085,36.306931103519));
#659 = CARTESIAN_POINT('',(6.212871939456,36.089065877673));
#660 = CARTESIAN_POINT('',(6.208457628959,35.956133057439));
#661 = CARTESIAN_POINT('',(6.204296697054,35.816063805925));
#662 = CARTESIAN_POINT('',(6.200387496837,35.669841347811));
#663 = CARTESIAN_POINT('',(6.196725923143,35.51829557883));
#664 = CARTESIAN_POINT('',(6.190506443594,35.234160783694));
#665 = CARTESIAN_POINT('',(6.187869044425,35.10312414267));
#666 = CARTESIAN_POINT('',(6.185391358771,34.96933504469));
#667 = CARTESIAN_POINT('',(6.183070525284,34.833117921655));
#668 = CARTESIAN_POINT('',(6.180903726821,34.694754067068));
#669 = CARTESIAN_POINT('',(6.177309315549,34.444595600511));
#670 = CARTESIAN_POINT('',(6.175823297114,34.333541218527));
#671 = CARTESIAN_POINT('',(6.174428876445,34.221434806711));
#672 = CARTESIAN_POINT('',(6.173124876238,34.108383268809));
#673 = CARTESIAN_POINT('',(6.171910225549,33.994483974398));
#674 = CARTESIAN_POINT('',(6.167774964481,33.573494711841));
#675 = CARTESIAN_POINT('',(6.165397371983,33.261796899102));
#676 = CARTESIAN_POINT('',(6.163631480098,32.946319720885));
#677 = CARTESIAN_POINT('',(6.162466969716,32.628470617868));
#678 = CARTESIAN_POINT('',(6.161897274034,32.309510441623));
#679 = CARTESIAN_POINT('',(6.161949524689,31.680253352215));
#680 = CARTESIAN_POINT('',(6.162539458598,31.370050982622));
#681 = CARTESIAN_POINT('',(6.163694121733,31.060953429871));
#682 = CARTESIAN_POINT('',(6.165421123487,30.754126892294));
#683 = CARTESIAN_POINT('',(6.167731685219,30.450875882598));
#684 = CARTESIAN_POINT('',(6.171767629693,30.037856825639));
#685 = CARTESIAN_POINT('',(6.172979001712,29.92379445013));
#686 = CARTESIAN_POINT('',(6.17428082752,29.810576762615));
#687 = CARTESIAN_POINT('',(6.175674287147,29.698302045112));
#688 = CARTESIAN_POINT('',(6.17716067324,29.587078386823));
#689 = CARTESIAN_POINT('',(6.180697513174,29.340832117882));
#690 = CARTESIAN_POINT('',(6.182798034522,29.206434862691));
#691 = CARTESIAN_POINT('',(6.185045684327,29.074051883107));
#692 = CARTESIAN_POINT('',(6.187443267088,28.943942183538));
#693 = CARTESIAN_POINT('',(6.189993636837,28.816403786434));
#694 = CARTESIAN_POINT('',(6.196112895448,28.534573065881));
#695 = CARTESIAN_POINT('',(6.199773364584,28.382018745526));
#696 = CARTESIAN_POINT('',(6.203687171552,28.234767228208));
#697 = CARTESIAN_POINT('',(6.207858989126,28.093658526234));
#698 = CARTESIAN_POINT('',(6.212290976883,27.959690636428));
#699 = CARTESIAN_POINT('',(6.220484459453,27.740130478374));
#700 = CARTESIAN_POINT('',(6.224131139338,27.650889453902));
#701 = CARTESIAN_POINT('',(6.227920683527,27.566747966082));
#702 = CARTESIAN_POINT('',(6.231849939145,27.48825010241));
#703 = CARTESIAN_POINT('',(6.23591284116,27.415972615989));
#704 = CARTESIAN_POINT('',(6.246706846521,27.247151754608));
#705 = CARTESIAN_POINT('',(6.25362848263,27.160642204312));
#706 = CARTESIAN_POINT('',(6.260815299803,27.093461005606));
#707 = CARTESIAN_POINT('',(6.268199906111,27.047705704611));
#708 = CARTESIAN_POINT('',(6.275694582507,27.024847320816));
#709 = CARTESIAN_POINT('',(6.28318530718,27.024847320689));
#710 = ( GEOMETRIC_REPRESENTATION_CONTEXT(2) 
PARAMETRIC_REPRESENTATION_CONTEXT() REPRESENTATION_CONTEXT('2D SPACE',''
  ) );
#711 = PCURVE('',#235,#712);
#712 = DEFINITIONAL_REPRESENTATION('',(#713),#776);
#713 = B_SPLINE_CURVE_WITH_KNOTS('',6,(#714,#715,#716,#717,#718,#719,
    #720,#721,#722,#723,#724,#725,#726,#727,#728,#729,#730,#731,#732,
    #733,#734,#735,#736,#737,#738,#739,#740,#741,#742,#743,#744,#745,
    #746,#747,#748,#749,#750,#751,#752,#753,#754,#755,#756,#757,#758,
    #759,#760,#761,#762,#763,#764,#765,#766,#767,#768,#769,#770,#771,
    #772,#773,#774,#775),.UNSPECIFIED.,.F.,.F.,(7,5,5,5,5,5,5,5,5,5,5,5,
    7),(0.,9.726978918041E-02,0.158848228293,0.241247285171,
    0.308718474624,0.361573671274,0.502784604941,0.64015297138,
    0.693045047824,0.758498450164,0.841057310517,0.902707839259,1.),
  .UNSPECIFIED.);
#714 = CARTESIAN_POINT('',(3.175801138372,3.14159265359));
#715 = CARTESIAN_POINT('',(3.175801138372,3.203191332473));
#716 = CARTESIAN_POINT('',(3.175904956167,3.264821595363));
#717 = CARTESIAN_POINT('',(3.176112841208,3.325976358748));
#718 = CARTESIAN_POINT('',(3.176413400172,3.386356417436));
#719 = CARTESIAN_POINT('',(3.176788930786,3.445722274668));
#720 = CARTESIAN_POINT('',(3.177493850339,3.540692044286));
#721 = CARTESIAN_POINT('',(3.177789764298,3.577042405916));
#722 = CARTESIAN_POINT('',(3.178103745395,3.612902286814));
#723 = CARTESIAN_POINT('',(3.178431253786,3.648262074644));
#724 = CARTESIAN_POINT('',(3.178768056517,3.683125059836));
#725 = CARTESIAN_POINT('',(3.179568713942,3.763508605863));
#726 = CARTESIAN_POINT('',(3.180036960318,3.808640853634));
#727 = CARTESIAN_POINT('',(3.180506440579,3.852943670866));
#728 = CARTESIAN_POINT('',(3.180969850967,3.896464442541));
#729 = CARTESIAN_POINT('',(3.181421349339,3.939259590683));
#730 = CARTESIAN_POINT('',(3.182212868005,4.01590322375));
#731 = CARTESIAN_POINT('',(3.182558224935,4.049964567575));
#732 = CARTESIAN_POINT('',(3.182890134693,4.083618300668));
#733 = CARTESIAN_POINT('',(3.183206642697,4.116897260746));
#734 = CARTESIAN_POINT('',(3.183506229922,4.149833495621));
#735 = CARTESIAN_POINT('',(3.184008265173,4.208019554401));
#736 = CARTESIAN_POINT('',(3.184217688119,4.233388299595));
#737 = CARTESIAN_POINT('',(3.18441545679,4.258581915362));
#738 = CARTESIAN_POINT('',(3.184601126326,4.283615144436));
#739 = CARTESIAN_POINT('',(3.184774357607,4.308502234908));
#740 = CARTESIAN_POINT('',(3.185363877469,4.399393011443));
#741 = CARTESIAN_POINT('',(3.185702288085,4.464572903681));
#742 = CARTESIAN_POINT('',(3.185945694937,4.529083766612));
#743 = CARTESIAN_POINT('',(3.186093562672,4.593147138306));
#744 = CARTESIAN_POINT('',(3.186148113127,4.656979865465));
#745 = CARTESIAN_POINT('',(3.18607953504,4.782940407298));
#746 = CARTESIAN_POINT('',(3.185961211648,4.845048772258));
#747 = CARTESIAN_POINT('',(3.185762162294,4.90738066229));
#748 = CARTESIAN_POINT('',(3.185487802392,4.970138073579));
#749 = CARTESIAN_POINT('',(3.185145276857,5.033528659721));
#750 = CARTESIAN_POINT('',(3.184588677502,5.122574497659));
#751 = CARTESIAN_POINT('',(3.184425157358,5.147461138929));
#752 = CARTESIAN_POINT('',(3.184253360041,5.172493845187));
#753 = CARTESIAN_POINT('',(3.184073847252,5.197687152535));
#754 = CARTESIAN_POINT('',(3.183887233095,5.223056119398));
#755 = CARTESIAN_POINT('',(3.18345528788,5.28024682081));
#756 = CARTESIAN_POINT('',(3.183206546345,5.312169362308));
#757 = CARTESIAN_POINT('',(3.182949220823,5.344415000014));
#758 = CARTESIAN_POINT('',(3.182684734111,5.377013626881));
#759 = CARTESIAN_POINT('',(3.182414687644,5.409995882354));
#760 = CARTESIAN_POINT('',(3.181795513118,5.485522698743));
#761 = CARTESIAN_POINT('',(3.181444207171,5.528308577341));
#762 = CARTESIAN_POINT('',(3.181090510016,5.571824000851));
#763 = CARTESIAN_POINT('',(3.180738680257,5.61612720156));
#764 = CARTESIAN_POINT('',(3.18039363748,5.661267398326));
#765 = CARTESIAN_POINT('',(3.179812453537,5.741655220932));
#766 = CARTESIAN_POINT('',(3.179570889046,5.776509439839));
#767 = CARTESIAN_POINT('',(3.179338528444,5.811865727685));
#768 = CARTESIAN_POINT('',(3.179117944226,5.847727939773));
#769 = CARTESIAN_POINT('',(3.178911825161,5.884086812968));
#770 = CARTESIAN_POINT('',(3.178424567688,5.979040111685));
#771 = CARTESIAN_POINT('',(3.178168676011,6.038389103176));
#772 = CARTESIAN_POINT('',(3.17796622225,6.098765479591));
#773 = CARTESIAN_POINT('',(3.177827028436,6.15992744807));
#774 = CARTESIAN_POINT('',(3.177757502043,6.221572545294));
#775 = CARTESIAN_POINT('',(3.177757502043,6.283185306767));
#776 = ( GEOMETRIC_REPRESENTATION_CONTEXT(2) 
PARAMETRIC_REPRESENTATION_CONTEXT() REPRESENTATION_CONTEXT('2D SPACE',''
  ) );
#777 = ORIENTED_EDGE('',*,*,#306,.T.);
#778 = ORIENTED_EDGE('',*,*,#779,.T.);
#779 = EDGE_CURVE('',#102,#44,#780,.T.);
#780 = SURFACE_CURVE('',#781,(#844,#910),.PCURVE_S1.);
#781 = B_SPLINE_CURVE_WITH_KNOTS('',6,(#782,#783,#784,#785,#786,#787,
    #788,#789,#790,#791,#792,#793,#794,#795,#796,#797,#798,#799,#800,
    #801,#802,#803,#804,#805,#806,#807,#808,#809,#810,#811,#812,#813,
    #814,#815,#816,#817,#818,#819,#820,#821,#822,#823,#824,#825,#826,
    #827,#828,#829,#830,#831,#832,#833,#834,#835,#836,#837,#838,#839,
    #840,#841,#842,#843),.UNSPECIFIED.,.F.,.F.,(7,5,5,5,5,5,5,5,5,5,5,5,
    7),(0.,9.600729150274E-02,0.157577654407,0.24001732388,
    0.305382015657,0.358214727106,0.498306088944,0.637571940058,
    0.69046299365,0.757979931941,0.840426586622,0.902035612373,1.),
  .UNSPECIFIED.);
#782 = CARTESIAN_POINT('',(43.873595312043,-5.329070518201E-15,
    92.966287489024));
#783 = CARTESIAN_POINT('',(43.873595312043,-0.303976675813,
    92.966287489024));
#784 = CARTESIAN_POINT('',(43.871996512857,-0.608109038027,
    92.988570048002));
#785 = CARTESIAN_POINT('',(43.868795085319,-0.907890635907,
    93.033171965573));
#786 = CARTESIAN_POINT('',(43.86417912511,-1.199838552885,
    93.098690422662));
#787 = CARTESIAN_POINT('',(43.858447171635,-1.481268818617,
    93.183113240128));
#788 = CARTESIAN_POINT('',(43.847737015967,-1.922685586308,
    93.348763700535));
#789 = CARTESIAN_POINT('',(43.843223557195,-2.090119188308,
    93.420312093105));
#790 = CARTESIAN_POINT('',(43.838463479152,-2.252103547263,
    93.498109994554));
#791 = CARTESIAN_POINT('',(43.833539426278,-2.408385024849,
    93.581580111484));
#792 = CARTESIAN_POINT('',(43.82852989995,-2.558830926089,
    93.670177063051));
#793 = CARTESIAN_POINT('',(43.816775804176,-2.896961804903,
    93.888273189509));
#794 = CARTESIAN_POINT('',(43.810019595977,-3.079957737784,
    94.02143935419));
#795 = CARTESIAN_POINT('',(43.80340368204,-3.252320030456,
    94.161787450623));
#796 = CARTESIAN_POINT('',(43.797072686046,-3.414134956533,
    94.308316338178));
#797 = CARTESIAN_POINT('',(43.791147861577,-3.565593511379,
    94.460183014453));
#798 = CARTESIAN_POINT('',(43.781428691066,-3.819021352149,
    94.740850135807));
#799 = CARTESIAN_POINT('',(43.77744776444,-3.924732674588,
    94.867901033267));
#800 = CARTESIAN_POINT('',(43.773833450102,-4.024198091659,
    94.997542800174));
#801 = CARTESIAN_POINT('',(43.770627468909,-4.117534897953,
    95.129476200395));
#802 = CARTESIAN_POINT('',(43.767864862315,-4.204858428886,
    95.263441164497));
#803 = CARTESIAN_POINT('',(43.763724060496,-4.352092869599,
    95.508960997477));
#804 = CARTESIAN_POINT('',(43.762182092121,-4.414047990789,95.6198853831
    ));
#805 = CARTESIAN_POINT('',(43.760964405909,-4.472204190842,
    95.731871496143));
#806 = CARTESIAN_POINT('',(43.760084304172,-4.526614641721,
    95.844810752574));
#807 = CARTESIAN_POINT('',(43.759553025894,-4.577327837802,
    95.958604450731));
#808 = CARTESIAN_POINT('',(43.758920279203,-4.749171378768,
    96.376929578383));
#809 = CARTESIAN_POINT('',(43.760978358907,-4.848245581481,
    96.686022167982));
#810 = CARTESIAN_POINT('',(43.765726151295,-4.922480903601,
    96.998871113898));
#811 = CARTESIAN_POINT('',(43.773252592815,-4.972353195697,
    97.314090399524));
#812 = CARTESIAN_POINT('',(43.783571991976,-4.998173115578,
    97.630444258785));
#813 = CARTESIAN_POINT('',(43.809634305452,-5.001663799688,
    98.26140553182));
#814 = CARTESIAN_POINT('',(43.825340904763,-4.979616892984,
    98.575915497477));
#815 = CARTESIAN_POINT('',(43.843716401715,-4.933796070148,
    98.889330002832));
#816 = CARTESIAN_POINT('',(43.864647350487,-4.863893831355,
    99.200441944374));
#817 = CARTESIAN_POINT('',(43.88793683546,-4.769437219974,
    99.507904336125));
#818 = CARTESIAN_POINT('',(43.92292437074,-4.604051151238,
    99.925004779245));
#819 = CARTESIAN_POINT('',(43.932852216794,-4.554867060347,
    100.03905823076));
#820 = CARTESIAN_POINT('',(43.943061380326,-4.501977261232,
    100.15227089537));
#821 = CARTESIAN_POINT('',(43.953532810191,-4.445333027301,
    100.26454556827));
#822 = CARTESIAN_POINT('',(43.964244638064,-4.384880922428,
    100.37577547304));
#823 = CARTESIAN_POINT('',(43.989121495377,-4.238458884619,
    100.62635020945));
#824 = CARTESIAN_POINT('',(44.003421764339,-4.150057891439,
    100.76495941999));
#825 = CARTESIAN_POINT('',(44.018021755672,-4.055235806504,
    100.90143405736));
#826 = CARTESIAN_POINT('',(44.032860275552,-3.953864896371,
    101.03549281556));
#827 = CARTESIAN_POINT('',(44.047865072831,-3.845815291387,
    101.16681109662));
#828 = CARTESIAN_POINT('',(44.081374466963,-3.590699652572,
    101.45158180059));
#829 = CARTESIAN_POINT('',(44.099916889524,-3.440306136632,
    101.60348861724));
#830 = CARTESIAN_POINT('',(44.118428097111,-3.279527045184,
    101.75009010676));
#831 = CARTESIAN_POINT('',(44.136719074998,-3.108172230619,
    101.8905558303));
#832 = CARTESIAN_POINT('',(44.154565063089,-2.926156335303,
    102.02390234478));
#833 = CARTESIAN_POINT('',(44.184518058959,-2.589613967544,
    102.24251376328));
#834 = CARTESIAN_POINT('',(44.196934272029,-2.439780952897,
    102.33140320705));
#835 = CARTESIAN_POINT('',(44.208848556291,-2.284090897433,
    102.41521773112));
#836 = CARTESIAN_POINT('',(44.220138891666,-2.122674934412,
    102.49342356048));
#837 = CARTESIAN_POINT('',(44.230676549798,-1.955782576527,
    102.56545611975));
#838 = CARTESIAN_POINT('',(44.255688774628,-1.510367499876,
    102.73458221982));
#839 = CARTESIAN_POINT('',(44.268831189497,-1.2238415072,102.82147641009
    ));
#840 = CARTESIAN_POINT('',(44.279213365043,-0.926289136927,
    102.88893617949));
#841 = CARTESIAN_POINT('',(44.286346376292,-0.620517644189,
    102.93487270397));
#842 = CARTESIAN_POINT('',(44.289909235698,-0.310176855464,
    102.95782165676));
#843 = CARTESIAN_POINT('',(44.289909235699,0.,102.95782165678));
#844 = PCURVE('',#54,#845);
#845 = DEFINITIONAL_REPRESENTATION('',(#846),#909);
#846 = B_SPLINE_CURVE_WITH_KNOTS('',6,(#847,#848,#849,#850,#851,#852,
    #853,#854,#855,#856,#857,#858,#859,#860,#861,#862,#863,#864,#865,
    #866,#867,#868,#869,#870,#871,#872,#873,#874,#875,#876,#877,#878,
    #879,#880,#881,#882,#883,#884,#885,#886,#887,#888,#889,#890,#891,
    #892,#893,#894,#895,#896,#897,#898,#899,#900,#901,#902,#903,#904,
    #905,#906,#907,#908),.UNSPECIFIED.,.F.,.F.,(7,5,5,5,5,5,5,5,5,5,5,5,
    7),(0.,9.600729150274E-02,0.157577654407,0.24001732388,
    0.305382015657,0.358214727106,0.498306088944,0.637571940058,
    0.69046299365,0.757979931941,0.840426586622,0.902035612373,1.),
  .UNSPECIFIED.);
#847 = CARTESIAN_POINT('',(6.28318530718,92.966287489024));
#848 = CARTESIAN_POINT('',(6.276256842037,92.966287489024));
#849 = CARTESIAN_POINT('',(6.269324828259,92.988570048002));
#850 = CARTESIAN_POINT('',(6.262492042221,93.033171965573));
#851 = CARTESIAN_POINT('',(6.255837926968,93.098690422662));
#852 = CARTESIAN_POINT('',(6.249423774842,93.183113240128));
#853 = CARTESIAN_POINT('',(6.23936397602,93.348763700535));
#854 = CARTESIAN_POINT('',(6.23554836807,93.420312093105));
#855 = CARTESIAN_POINT('',(6.231857155836,93.498109994554));
#856 = CARTESIAN_POINT('',(6.228296162637,93.581580111484));
#857 = CARTESIAN_POINT('',(6.224868457038,93.670177063051));
#858 = CARTESIAN_POINT('',(6.217165482029,93.888273189509));
#859 = CARTESIAN_POINT('',(6.212997343465,94.02143935419));
#860 = CARTESIAN_POINT('',(6.209072255915,94.161787450623));
#861 = CARTESIAN_POINT('',(6.205388351514,94.308316338178));
#862 = CARTESIAN_POINT('',(6.201941362953,94.460183014453));
#863 = CARTESIAN_POINT('',(6.196175984088,94.740850135807));
#864 = CARTESIAN_POINT('',(6.193771955777,94.867901033267));
#865 = CARTESIAN_POINT('',(6.191510908373,94.997542800174));
#866 = CARTESIAN_POINT('',(6.189390193784,95.129476200395));
#867 = CARTESIAN_POINT('',(6.187407199916,95.263441164497));
#868 = CARTESIAN_POINT('',(6.18406582227,95.508960997476));
#869 = CARTESIAN_POINT('',(6.182660613128,95.6198853831));
#870 = CARTESIAN_POINT('',(6.181342432872,95.731871496143));
#871 = CARTESIAN_POINT('',(6.180110069278,95.844810752574));
#872 = CARTESIAN_POINT('',(6.178962412485,95.958604450731));
#873 = CARTESIAN_POINT('',(6.175077262414,96.376929578383));
#874 = CARTESIAN_POINT('',(6.172845062623,96.686022167982));
#875 = CARTESIAN_POINT('',(6.171181851538,96.998871113897));
#876 = CARTESIAN_POINT('',(6.170076396591,97.314090399524));
#877 = CARTESIAN_POINT('',(6.169520988747,97.630444258785));
#878 = CARTESIAN_POINT('',(6.169509373214,98.26140553182));
#879 = CARTESIAN_POINT('',(6.170046708438,98.575915497477));
#880 = CARTESIAN_POINT('',(6.171126030018,98.889330002832));
#881 = CARTESIAN_POINT('',(6.172753252655,99.200441944374));
#882 = CARTESIAN_POINT('',(6.174937806508,99.507904336125));
#883 = CARTESIAN_POINT('',(6.178745673014,99.925004779245));
#884 = CARTESIAN_POINT('',(6.179876683035,100.03905823076));
#885 = CARTESIAN_POINT('',(6.181091507133,100.15227089537));
#886 = CARTESIAN_POINT('',(6.182391165158,100.26454556826));
#887 = CARTESIAN_POINT('',(6.183776780166,100.37577547304));
#888 = CARTESIAN_POINT('',(6.187129647384,100.62635020945));
#889 = CARTESIAN_POINT('',(6.189151722169,100.76495941999));
#890 = CARTESIAN_POINT('',(6.191318425363,100.90143405736));
#891 = CARTESIAN_POINT('',(6.193632453604,101.03549281556));
#892 = CARTESIAN_POINT('',(6.196096549705,101.16681109662));
#893 = CARTESIAN_POINT('',(6.201909068683,101.45158180059));
#894 = CARTESIAN_POINT('',(6.205332170016,101.60348861724));
#895 = CARTESIAN_POINT('',(6.208988072494,101.75009010676));
#896 = CARTESIAN_POINT('',(6.212880735536,101.8905558303));
#897 = CARTESIAN_POINT('',(6.217011801005,102.02390234478));
#898 = CARTESIAN_POINT('',(6.224643495628,102.24251376328));
#899 = CARTESIAN_POINT('',(6.228039252564,102.33140320705));
#900 = CARTESIAN_POINT('',(6.231565783788,102.41521773112));
#901 = CARTESIAN_POINT('',(6.235220083985,102.49342356048));
#902 = CARTESIAN_POINT('',(6.238996525528,102.56545611975));
#903 = CARTESIAN_POINT('',(6.249071019783,102.73458221982));
#904 = CARTESIAN_POINT('',(6.255547593886,102.82147641009));
#905 = CARTESIAN_POINT('',(6.262269782469,102.88893617949));
#906 = CARTESIAN_POINT('',(6.269174945804,102.93487270397));
#907 = CARTESIAN_POINT('',(6.276181977057,102.95782165676));
#908 = CARTESIAN_POINT('',(6.28318530718,102.95782165678));
#909 = ( GEOMETRIC_REPRESENTATION_CONTEXT(2) 
PARAMETRIC_REPRESENTATION_CONTEXT() REPRESENTATION_CONTEXT('2D SPACE',''
  ) );
#910 = PCURVE('',#235,#911);
#911 = DEFINITIONAL_REPRESENTATION('',(#912),#975);
#912 = B_SPLINE_CURVE_WITH_KNOTS('',6,(#913,#914,#915,#916,#917,#918,
    #919,#920,#921,#922,#923,#924,#925,#926,#927,#928,#929,#930,#931,
    #932,#933,#934,#935,#936,#937,#938,#939,#940,#941,#942,#943,#944,
    #945,#946,#947,#948,#949,#950,#951,#952,#953,#954,#955,#956,#957,
    #958,#959,#960,#961,#962,#963,#964,#965,#966,#967,#968,#969,#970,
    #971,#972,#973,#974),.UNSPECIFIED.,.F.,.F.,(7,5,5,5,5,5,5,5,5,5,5,5,
    7),(0.,9.600729150274E-02,0.157577654407,0.24001732388,
    0.305382015657,0.358214727106,0.498306088944,0.637571940058,
    0.69046299365,0.757979931941,0.840426586622,0.902035612373,1.),
  .UNSPECIFIED.);
#913 = CARTESIAN_POINT('',(4.9076673415E-02,3.14159265359));
#914 = CARTESIAN_POINT('',(4.9076673415E-02,3.202387988752));
#915 = CARTESIAN_POINT('',(4.898060634167E-02,3.26321430994));
#916 = CARTESIAN_POINT('',(4.878824350145E-02,3.323575869333));
#917 = CARTESIAN_POINT('',(4.850999146601E-02,3.383178655023));
#918 = CARTESIAN_POINT('',(4.816204668802E-02,3.441787555228));
#919 = CARTESIAN_POINT('',(4.750494595998E-02,3.53603347539));
#920 = CARTESIAN_POINT('',(4.722649861415E-02,3.572389897495));
#921 = CARTESIAN_POINT('',(4.693072177003E-02,3.608252006431));
#922 = CARTESIAN_POINT('',(4.662194939792E-02,3.643609907565));
#923 = CARTESIAN_POINT('',(4.630422159525E-02,3.678466968553));
#924 = CARTESIAN_POINT('',(4.554828176038E-02,3.758856717452));
#925 = CARTESIAN_POINT('',(4.510579546617E-02,3.803996891716));
#926 = CARTESIAN_POINT('',(4.466196000811E-02,3.848300897402));
#927 = CARTESIAN_POINT('',(4.422373383984E-02,3.891817250431));
#928 = CARTESIAN_POINT('',(4.379666960582E-02,3.934603600767));
#929 = CARTESIAN_POINT('',(4.305849418017E-02,4.010132483461));
#930 = CARTESIAN_POINT('',(4.274172380746E-02,4.043116608867));
#931 = CARTESIAN_POINT('',(4.243675447011E-02,4.075716160735));
#932 = CARTESIAN_POINT('',(4.214527881729E-02,4.107961531571));
#933 = CARTESIAN_POINT('',(4.186862138821E-02,4.139882379166));
#934 = CARTESIAN_POINT('',(4.139698451973E-02,4.1970730071));
#935 = CARTESIAN_POINT('',(4.119652352253E-02,4.22244407369));
#936 = CARTESIAN_POINT('',(4.10069484207E-02,4.247638209631));
#937 = CARTESIAN_POINT('',(4.082868899289E-02,4.27267037263));
#938 = CARTESIAN_POINT('',(4.066207348772E-02,4.297555003886));
#939 = CARTESIAN_POINT('',(4.009700672047E-02,4.387935911406));
#940 = CARTESIAN_POINT('',(3.977024588484E-02,4.452615170918));
#941 = CARTESIAN_POINT('',(3.953127652781E-02,4.516628140201));
#942 = CARTESIAN_POINT('',(3.938069462736E-02,4.580193316615));
#943 = CARTESIAN_POINT('',(3.93165492658E-02,4.643524024264));
#944 = CARTESIAN_POINT('',(3.935383911018E-02,4.769825575383));
#945 = CARTESIAN_POINT('',(3.945429474067E-02,4.832777244796));
#946 = CARTESIAN_POINT('',(3.963299540853E-02,4.895953300352));
#947 = CARTESIAN_POINT('',(3.988469910038E-02,4.959563138633));
#948 = CARTESIAN_POINT('',(4.020246360882E-02,5.023821329597));
#949 = CARTESIAN_POINT('',(4.072022991226E-02,5.113759992089));
#950 = CARTESIAN_POINT('',(4.087102609897E-02,5.138647428556));
#951 = CARTESIAN_POINT('',(4.10296285666E-02,5.163680619796));
#952 = CARTESIAN_POINT('',(4.119551408455E-02,5.188873932451));
#953 = CARTESIAN_POINT('',(4.136811128467E-02,5.214242227572));
#954 = CARTESIAN_POINT('',(4.177490274628E-02,5.272427184602));
#955 = CARTESIAN_POINT('',(4.201292308571E-02,5.305362746418));
#956 = CARTESIAN_POINT('',(4.225957557512E-02,5.338641224153));
#957 = CARTESIAN_POINT('',(4.251340625568E-02,5.372294887493));
#958 = CARTESIAN_POINT('',(4.277277545011E-02,5.406356759065));
#959 = CARTESIAN_POINT('',(4.335707460378E-02,5.482998952481));
#960 = CARTESIAN_POINT('',(4.368377747478E-02,5.525792394795));
#961 = CARTESIAN_POINT('',(4.401264226338E-02,5.569312585654));
#962 = CARTESIAN_POINT('',(4.433971442367E-02,5.613616027798));
#963 = CARTESIAN_POINT('',(4.466044039735E-02,5.658750044244));
#964 = CARTESIAN_POINT('',(4.520082662708E-02,5.739135387473));
#965 = CARTESIAN_POINT('',(4.542551960407E-02,5.773997982236));
#966 = CARTESIAN_POINT('',(4.564166187741E-02,5.809357693189));
#967 = CARTESIAN_POINT('',(4.584688304818E-02,5.845217741169));
#968 = CARTESIAN_POINT('',(4.603871105653E-02,5.881568525876));
#969 = CARTESIAN_POINT('',(4.649455770981E-02,5.976926578622));
#970 = CARTESIAN_POINT('',(4.673463498615E-02,6.036697678319));
#971 = CARTESIAN_POINT('',(4.692454572896E-02,6.097497062058));
#972 = CARTESIAN_POINT('',(4.705509898603E-02,6.159081946813));
#973 = CARTESIAN_POINT('',(4.712030974384E-02,6.221149936049));
#974 = CARTESIAN_POINT('',(4.712030974385E-02,6.283185307142));
#975 = ( GEOMETRIC_REPRESENTATION_CONTEXT(2) 
PARAMETRIC_REPRESENTATION_CONTEXT() REPRESENTATION_CONTEXT('2D SPACE',''
  ) );
#976 = ADVANCED_FACE('',(#977),#235,.T.);
#977 = FACE_BOUND('',#978,.T.);
#978 = EDGE_LOOP('',(#979,#980,#1002,#1003,#1004,#1005));
#979 = ORIENTED_EDGE('',*,*,#101,.F.);
#980 = ORIENTED_EDGE('',*,*,#981,.T.);
#981 = EDGE_CURVE('',#44,#330,#982,.T.);
#982 = SEAM_CURVE('',#983,(#988,#995),.PCURVE_S1.);
#983 = CIRCLE('',#984,38.);
#984 = AXIS2_PLACEMENT_3D('',#985,#986,#987);
#985 = CARTESIAN_POINT('',(42.5,-1.224646799147E-15,65.));
#986 = DIRECTION('',(0.,1.,0.));
#987 = DIRECTION('',(0.,-0.,1.));
#988 = PCURVE('',#235,#989);
#989 = DEFINITIONAL_REPRESENTATION('',(#990),#994);
#990 = LINE('',#991,#992);
#991 = CARTESIAN_POINT('',(0.,6.28318530718));
#992 = VECTOR('',#993,1.);
#993 = DIRECTION('',(1.,0.));
#994 = ( GEOMETRIC_REPRESENTATION_CONTEXT(2) 
PARAMETRIC_REPRESENTATION_CONTEXT() REPRESENTATION_CONTEXT('2D SPACE',''
  ) );
#995 = PCURVE('',#235,#996);
#996 = DEFINITIONAL_REPRESENTATION('',(#997),#1001);
#997 = LINE('',#998,#999);
#998 = CARTESIAN_POINT('',(0.,0.));
#999 = VECTOR('',#1000,1.);
#1000 = DIRECTION('',(1.,0.));
#1001 = ( GEOMETRIC_REPRESENTATION_CONTEXT(2) 
PARAMETRIC_REPRESENTATION_CONTEXT() REPRESENTATION_CONTEXT('2D SPACE',''
  ) );
#1002 = ORIENTED_EDGE('',*,*,#329,.T.);
#1003 = ORIENTED_EDGE('',*,*,#580,.T.);
#1004 = ORIENTED_EDGE('',*,*,#981,.F.);
#1005 = ORIENTED_EDGE('',*,*,#779,.F.);
#1006 = ADVANCED_FACE('',(#1007),#567,.F.);
#1007 = FACE_BOUND('',#1008,.T.);
#1008 = EDGE_LOOP('',(#1009));
#1009 = ORIENTED_EDGE('',*,*,#552,.F.);
#1010 = ADVANCED_FACE('',(#1011,#1014),#88,.T.);
#1011 = FACE_BOUND('',#1012,.T.);
#1012 = EDGE_LOOP('',(#1013));
#1013 = ORIENTED_EDGE('',*,*,#73,.T.);
#1014 = FACE_BOUND('',#1015,.T.);
#1015 = EDGE_LOOP('',(#1016));
#1016 = ORIENTED_EDGE('',*,*,#1017,.F.);
#1017 = EDGE_CURVE('',#1018,#1018,#1020,.T.);
#1018 = VERTEX_POINT('',#1019);
#1019 = CARTESIAN_POINT('',(42.,-1.028703311284E-14,120.));
#1020 = SURFACE_CURVE('',#1021,(#1026,#1033),.PCURVE_S1.);
#1021 = CIRCLE('',#1022,42.);
#1022 = AXIS2_PLACEMENT_3D('',#1023,#1024,#1025);
#1023 = CARTESIAN_POINT('',(0.,0.,120.));
#1024 = DIRECTION('',(0.,0.,1.));
#1025 = DIRECTION('',(1.,0.,-0.));
#1026 = PCURVE('',#88,#1027);
#1027 = DEFINITIONAL_REPRESENTATION('',(#1028),#1032);
#1028 = CIRCLE('',#1029,42.);
#1029 = AXIS2_PLACEMENT_2D('',#1030,#1031);
#1030 = CARTESIAN_POINT('',(0.,0.));
#1031 = DIRECTION('',(1.,0.));
#1032 = ( GEOMETRIC_REPRESENTATION_CONTEXT(2) 
PARAMETRIC_REPRESENTATION_CONTEXT() REPRESENTATION_CONTEXT('2D SPACE',''
  ) );
#1033 = PCURVE('',#1034,#1039);
#1034 = CONICAL_SURFACE('',#1035,37.,4.307678392376E-02);
#1035 = AXIS2_PLACEMENT_3D('',#1036,#1037,#1038);
#1036 = CARTESIAN_POINT('',(0.,0.,4.));
#1037 = DIRECTION('',(0.,0.,1.));
#1038 = DIRECTION('',(1.,0.,-0.));
#1039 = DEFINITIONAL_REPRESENTATION('',(#1040),#1044);
#1040 = LINE('',#1041,#1042);
#1041 = CARTESIAN_POINT('',(0.,116.));
#1042 = VECTOR('',#1043,1.);
#1043 = DIRECTION('',(1.,0.));
#1044 = ( GEOMETRIC_REPRESENTATION_CONTEXT(2) 
PARAMETRIC_REPRESENTATION_CONTEXT() REPRESENTATION_CONTEXT('2D SPACE',''
  ) );
#1045 = ADVANCED_FACE('',(#1046),#1034,.F.);
#1046 = FACE_BOUND('',#1047,.F.);
#1047 = EDGE_LOOP('',(#1048,#1049,#1072,#1099));
#1048 = ORIENTED_EDGE('',*,*,#1017,.F.);
#1049 = ORIENTED_EDGE('',*,*,#1050,.F.);
#1050 = EDGE_CURVE('',#1051,#1018,#1053,.T.);
#1051 = VERTEX_POINT('',#1052);
#1052 = CARTESIAN_POINT('',(37.,-9.06238631369E-15,4.));
#1053 = SEAM_CURVE('',#1054,(#1058,#1065),.PCURVE_S1.);
#1054 = LINE('',#1055,#1056);
#1055 = CARTESIAN_POINT('',(37.,-9.06238631369E-15,4.));
#1056 = VECTOR('',#1057,1.);
#1057 = DIRECTION('',(4.306346287952E-02,-1.054750639512E-17,
    0.999072338805));
#1058 = PCURVE('',#1034,#1059);
#1059 = DEFINITIONAL_REPRESENTATION('',(#1060),#1064);
#1060 = LINE('',#1061,#1062);
#1061 = CARTESIAN_POINT('',(6.28318530718,-0.));
#1062 = VECTOR('',#1063,1.);
#1063 = DIRECTION('',(0.,1.));
#1064 = ( GEOMETRIC_REPRESENTATION_CONTEXT(2) 
PARAMETRIC_REPRESENTATION_CONTEXT() REPRESENTATION_CONTEXT('2D SPACE',''
  ) );
#1065 = PCURVE('',#1034,#1066);
#1066 = DEFINITIONAL_REPRESENTATION('',(#1067),#1071);
#1067 = LINE('',#1068,#1069);
#1068 = CARTESIAN_POINT('',(0.,-0.));
#1069 = VECTOR('',#1070,1.);
#1070 = DIRECTION('',(0.,1.));
#1071 = ( GEOMETRIC_REPRESENTATION_CONTEXT(2) 
PARAMETRIC_REPRESENTATION_CONTEXT() REPRESENTATION_CONTEXT('2D SPACE',''
  ) );
#1072 = ORIENTED_EDGE('',*,*,#1073,.T.);
#1073 = EDGE_CURVE('',#1051,#1051,#1074,.T.);
#1074 = SURFACE_CURVE('',#1075,(#1080,#1087),.PCURVE_S1.);
#1075 = CIRCLE('',#1076,37.);
#1076 = AXIS2_PLACEMENT_3D('',#1077,#1078,#1079);
#1077 = CARTESIAN_POINT('',(0.,0.,4.));
#1078 = DIRECTION('',(0.,0.,1.));
#1079 = DIRECTION('',(1.,0.,-0.));
#1080 = PCURVE('',#1034,#1081);
#1081 = DEFINITIONAL_REPRESENTATION('',(#1082),#1086);
#1082 = LINE('',#1083,#1084);
#1083 = CARTESIAN_POINT('',(0.,0.));
#1084 = VECTOR('',#1085,1.);
#1085 = DIRECTION('',(1.,0.));
#1086 = ( GEOMETRIC_REPRESENTATION_CONTEXT(2) 
PARAMETRIC_REPRESENTATION_CONTEXT() REPRESENTATION_CONTEXT('2D SPACE',''
  ) );
#1087 = PCURVE('',#1088,#1093);
#1088 = PLANE('',#1089);
#1089 = AXIS2_PLACEMENT_3D('',#1090,#1091,#1092);
#1090 = CARTESIAN_POINT('',(0.,0.,4.));
#1091 = DIRECTION('',(0.,0.,1.));
#1092 = DIRECTION('',(1.,0.,-0.));
#1093 = DEFINITIONAL_REPRESENTATION('',(#1094),#1098);
#1094 = CIRCLE('',#1095,37.);
#1095 = AXIS2_PLACEMENT_2D('',#1096,#1097);
#1096 = CARTESIAN_POINT('',(0.,0.));
#1097 = DIRECTION('',(1.,0.));
#1098 = ( GEOMETRIC_REPRESENTATION_CONTEXT(2) 
PARAMETRIC_REPRESENTATION_CONTEXT() REPRESENTATION_CONTEXT('2D SPACE',''
  ) );
#1099 = ORIENTED_EDGE('',*,*,#1050,.T.);
#1100 = ADVANCED_FACE('',(#1101),#1088,.T.);
#1101 = FACE_BOUND('',#1102,.F.);
#1102 = EDGE_LOOP('',(#1103));
#1103 = ORIENTED_EDGE('',*,*,#1073,.F.);
#1104 = ( GEOMETRIC_REPRESENTATION_CONTEXT(3) 
GLOBAL_UNCERTAINTY_ASSIGNED_CONTEXT((#1108)) 
GLOBAL_UNIT_ASSIGNED_CONTEXT((#1105,#1106,#1107)) REPRESENTATION_CONTEXT
('Context #1','3D Context with UNIT and UNCERTAINTY') );
#1105 = ( LENGTH_UNIT() NAMED_UNIT(*) SI_UNIT(.MILLI.,.METRE.) );
#1106 = ( NAMED_UNIT(*) PLANE_ANGLE_UNIT() SI_UNIT($,.RADIAN.) );
#1107 = ( NAMED_UNIT(*) SI_UNIT($,.STERADIAN.) SOLID_ANGLE_UNIT() );
#1108 = UNCERTAINTY_MEASURE_WITH_UNIT(LENGTH_MEASURE(1.E-07),#1105,
  'distance_accuracy_value','confusion accuracy');
#1109 = CONTEXT_DEPENDENT_SHAPE_REPRESENTATION(#1110,#1112);
#1110 = ( REPRESENTATION_RELATIONSHIP('','',#36,#10) 
REPRESENTATION_RELATIONSHIP_WITH_TRANSFORMATION(#1111) 
SHAPE_REPRESENTATION_RELATIONSHIP() );
#1111 = ITEM_DEFINED_TRANSFORMATION('','',#11,#15);
#1112 = PRODUCT_DEFINITION_SHAPE('Placement','Placement of an item',
  #1113);
#1113 = NEXT_ASSEMBLY_USAGE_OCCURRENCE('37','','',#5,#31,$);
#1114 = PRODUCT_RELATED_PRODUCT_CATEGORY('part',$,(#33));
#1115 = SHAPE_DEFINITION_REPRESENTATION(#1116,#1122);
#1116 = PRODUCT_DEFINITION_SHAPE('','',#1117);
#1117 = PRODUCT_DEFINITION('design','',#1118,#1121);
#1118 = PRODUCT_DEFINITION_FORMATION('','',#1119);
#1119 = PRODUCT('Open CASCADE STEP translator 7.9 31.2',
  'Open CASCADE STEP translator 7.9 31.2','',(#1120));
#1120 = PRODUCT_CONTEXT('',#2,'mechanical');
#1121 = PRODUCT_DEFINITION_CONTEXT('part definition',#2,'design');
#1122 = ADVANCED_BREP_SHAPE_REPRESENTATION('',(#11,#1123),#1491);
#1123 = MANIFOLD_SOLID_BREP('',#1124);
#1124 = CLOSED_SHELL('',(#1125,#1213,#1279,#1318,#1377,#1431,#1481));
#1125 = ADVANCED_FACE('',(#1126),#1139,.T.);
#1126 = FACE_BOUND('',#1127,.T.);
#1127 = EDGE_LOOP('',(#1128,#1162,#1185,#1212));
#1128 = ORIENTED_EDGE('',*,*,#1129,.F.);
#1129 = EDGE_CURVE('',#1130,#1130,#1132,.T.);
#1130 = VERTEX_POINT('',#1131);
#1131 = CARTESIAN_POINT('',(47.,-1.151167991199E-14,126.));
#1132 = SURFACE_CURVE('',#1133,(#1138,#1150),.PCURVE_S1.);
#1133 = CIRCLE('',#1134,47.);
#1134 = AXIS2_PLACEMENT_3D('',#1135,#1136,#1137);
#1135 = CARTESIAN_POINT('',(0.,0.,126.));
#1136 = DIRECTION('',(0.,0.,1.));
#1137 = DIRECTION('',(1.,0.,-0.));
#1138 = PCURVE('',#1139,#1144);
#1139 = CYLINDRICAL_SURFACE('',#1140,47.);
#1140 = AXIS2_PLACEMENT_3D('',#1141,#1142,#1143);
#1141 = CARTESIAN_POINT('',(0.,0.,120.));
#1142 = DIRECTION('',(0.,0.,1.));
#1143 = DIRECTION('',(1.,0.,-0.));
#1144 = DEFINITIONAL_REPRESENTATION('',(#1145),#1149);
#1145 = LINE('',#1146,#1147);
#1146 = CARTESIAN_POINT('',(0.,6.));
#1147 = VECTOR('',#1148,1.);
#1148 = DIRECTION('',(1.,0.));
#1149 = ( GEOMETRIC_REPRESENTATION_CONTEXT(2) 
PARAMETRIC_REPRESENTATION_CONTEXT() REPRESENTATION_CONTEXT('2D SPACE',''
  ) );
#1150 = PCURVE('',#1151,#1156);
#1151 = PLANE('',#1152);
#1152 = AXIS2_PLACEMENT_3D('',#1153,#1154,#1155);
#1153 = CARTESIAN_POINT('',(0.,0.,126.));
#1154 = DIRECTION('',(0.,0.,1.));
#1155 = DIRECTION('',(1.,0.,-0.));
#1156 = DEFINITIONAL_REPRESENTATION('',(#1157),#1161);
#1157 = CIRCLE('',#1158,47.);
#1158 = AXIS2_PLACEMENT_2D('',#1159,#1160);
#1159 = CARTESIAN_POINT('',(0.,0.));
#1160 = DIRECTION('',(1.,0.));
#1161 = ( GEOMETRIC_REPRESENTATION_CONTEXT(2) 
PARAMETRIC_REPRESENTATION_CONTEXT() REPRESENTATION_CONTEXT('2D SPACE',''
  ) );
#1162 = ORIENTED_EDGE('',*,*,#1163,.F.);
#1163 = EDGE_CURVE('',#1164,#1130,#1166,.T.);
#1164 = VERTEX_POINT('',#1165);
#1165 = CARTESIAN_POINT('',(47.,-1.151167991199E-14,120.));
#1166 = SEAM_CURVE('',#1167,(#1171,#1178),.PCURVE_S1.);
#1167 = LINE('',#1168,#1169);
#1168 = CARTESIAN_POINT('',(47.,-1.151167991199E-14,120.));
#1169 = VECTOR('',#1170,1.);
#1170 = DIRECTION('',(0.,0.,1.));
#1171 = PCURVE('',#1139,#1172);
#1172 = DEFINITIONAL_REPRESENTATION('',(#1173),#1177);
#1173 = LINE('',#1174,#1175);
#1174 = CARTESIAN_POINT('',(6.28318530718,-0.));
#1175 = VECTOR('',#1176,1.);
#1176 = DIRECTION('',(0.,1.));
#1177 = ( GEOMETRIC_REPRESENTATION_CONTEXT(2) 
PARAMETRIC_REPRESENTATION_CONTEXT() REPRESENTATION_CONTEXT('2D SPACE',''
  ) );
#1178 = PCURVE('',#1139,#1179);
#1179 = DEFINITIONAL_REPRESENTATION('',(#1180),#1184);
#1180 = LINE('',#1181,#1182);
#1181 = CARTESIAN_POINT('',(0.,-0.));
#1182 = VECTOR('',#1183,1.);
#1183 = DIRECTION('',(0.,1.));
#1184 = ( GEOMETRIC_REPRESENTATION_CONTEXT(2) 
PARAMETRIC_REPRESENTATION_CONTEXT() REPRESENTATION_CONTEXT('2D SPACE',''
  ) );
#1185 = ORIENTED_EDGE('',*,*,#1186,.T.);
#1186 = EDGE_CURVE('',#1164,#1164,#1187,.T.);
#1187 = SURFACE_CURVE('',#1188,(#1193,#1200),.PCURVE_S1.);
#1188 = CIRCLE('',#1189,47.);
#1189 = AXIS2_PLACEMENT_3D('',#1190,#1191,#1192);
#1190 = CARTESIAN_POINT('',(0.,0.,120.));
#1191 = DIRECTION('',(0.,0.,1.));
#1192 = DIRECTION('',(1.,0.,-0.));
#1193 = PCURVE('',#1139,#1194);
#1194 = DEFINITIONAL_REPRESENTATION('',(#1195),#1199);
#1195 = LINE('',#1196,#1197);
#1196 = CARTESIAN_POINT('',(0.,0.));
#1197 = VECTOR('',#1198,1.);
#1198 = DIRECTION('',(1.,0.));
#1199 = ( GEOMETRIC_REPRESENTATION_CONTEXT(2) 
PARAMETRIC_REPRESENTATION_CONTEXT() REPRESENTATION_CONTEXT('2D SPACE',''
  ) );
#1200 = PCURVE('',#1201,#1206);
#1201 = PLANE('',#1202);
#1202 = AXIS2_PLACEMENT_3D('',#1203,#1204,#1205);
#1203 = CARTESIAN_POINT('',(0.,0.,120.));
#1204 = DIRECTION('',(0.,0.,1.));
#1205 = DIRECTION('',(1.,0.,-0.));
#1206 = DEFINITIONAL_REPRESENTATION('',(#1207),#1211);
#1207 = CIRCLE('',#1208,47.);
#1208 = AXIS2_PLACEMENT_2D('',#1209,#1210);
#1209 = CARTESIAN_POINT('',(0.,0.));
#1210 = DIRECTION('',(1.,0.));
#1211 = ( GEOMETRIC_REPRESENTATION_CONTEXT(2) 
PARAMETRIC_REPRESENTATION_CONTEXT() REPRESENTATION_CONTEXT('2D SPACE',''
  ) );
#1212 = ORIENTED_EDGE('',*,*,#1163,.T.);
#1213 = ADVANCED_FACE('',(#1214,#1217,#1248),#1151,.T.);
#1214 = FACE_BOUND('',#1215,.T.);
#1215 = EDGE_LOOP('',(#1216));
#1216 = ORIENTED_EDGE('',*,*,#1129,.T.);
#1217 = FACE_BOUND('',#1218,.T.);
#1218 = EDGE_LOOP('',(#1219));
#1219 = ORIENTED_EDGE('',*,*,#1220,.F.);
#1220 = EDGE_CURVE('',#1221,#1221,#1223,.T.);
#1221 = VERTEX_POINT('',#1222);
#1222 = CARTESIAN_POINT('',(-14.5,-3.673940397442E-16,126.));
#1223 = SURFACE_CURVE('',#1224,(#1229,#1236),.PCURVE_S1.);
#1224 = CIRCLE('',#1225,1.5);
#1225 = AXIS2_PLACEMENT_3D('',#1226,#1227,#1228);
#1226 = CARTESIAN_POINT('',(-16.,0.,126.));
#1227 = DIRECTION('',(0.,0.,1.));
#1228 = DIRECTION('',(1.,0.,-0.));
#1229 = PCURVE('',#1151,#1230);
#1230 = DEFINITIONAL_REPRESENTATION('',(#1231),#1235);
#1231 = CIRCLE('',#1232,1.5);
#1232 = AXIS2_PLACEMENT_2D('',#1233,#1234);
#1233 = CARTESIAN_POINT('',(-16.,0.));
#1234 = DIRECTION('',(1.,0.));
#1235 = ( GEOMETRIC_REPRESENTATION_CONTEXT(2) 
PARAMETRIC_REPRESENTATION_CONTEXT() REPRESENTATION_CONTEXT('2D SPACE',''
  ) );
#1236 = PCURVE('',#1237,#1242);
#1237 = CYLINDRICAL_SURFACE('',#1238,1.5);
#1238 = AXIS2_PLACEMENT_3D('',#1239,#1240,#1241);
#1239 = CARTESIAN_POINT('',(-16.,0.,115.));
#1240 = DIRECTION('',(0.,0.,1.));
#1241 = DIRECTION('',(1.,0.,-0.));
#1242 = DEFINITIONAL_REPRESENTATION('',(#1243),#1247);
#1243 = LINE('',#1244,#1245);
#1244 = CARTESIAN_POINT('',(0.,11.));
#1245 = VECTOR('',#1246,1.);
#1246 = DIRECTION('',(1.,0.));
#1247 = ( GEOMETRIC_REPRESENTATION_CONTEXT(2) 
PARAMETRIC_REPRESENTATION_CONTEXT() REPRESENTATION_CONTEXT('2D SPACE',''
  ) );
#1248 = FACE_BOUND('',#1249,.T.);
#1249 = EDGE_LOOP('',(#1250));
#1250 = ORIENTED_EDGE('',*,*,#1251,.F.);
#1251 = EDGE_CURVE('',#1252,#1252,#1254,.T.);
#1252 = VERTEX_POINT('',#1253);
#1253 = CARTESIAN_POINT('',(32.,-1.714505518806E-15,126.));
#1254 = SURFACE_CURVE('',#1255,(#1260,#1267),.PCURVE_S1.);
#1255 = CIRCLE('',#1256,7.);
#1256 = AXIS2_PLACEMENT_3D('',#1257,#1258,#1259);
#1257 = CARTESIAN_POINT('',(25.,0.,126.));
#1258 = DIRECTION('',(0.,0.,1.));
#1259 = DIRECTION('',(1.,0.,-0.));
#1260 = PCURVE('',#1151,#1261);
#1261 = DEFINITIONAL_REPRESENTATION('',(#1262),#1266);
#1262 = CIRCLE('',#1263,7.);
#1263 = AXIS2_PLACEMENT_2D('',#1264,#1265);
#1264 = CARTESIAN_POINT('',(25.,0.));
#1265 = DIRECTION('',(1.,0.));
#1266 = ( GEOMETRIC_REPRESENTATION_CONTEXT(2) 
PARAMETRIC_REPRESENTATION_CONTEXT() REPRESENTATION_CONTEXT('2D SPACE',''
  ) );
#1267 = PCURVE('',#1268,#1273);
#1268 = CYLINDRICAL_SURFACE('',#1269,7.);
#1269 = AXIS2_PLACEMENT_3D('',#1270,#1271,#1272);
#1270 = CARTESIAN_POINT('',(25.,0.,115.));
#1271 = DIRECTION('',(0.,0.,1.));
#1272 = DIRECTION('',(1.,0.,-0.));
#1273 = DEFINITIONAL_REPRESENTATION('',(#1274),#1278);
#1274 = LINE('',#1275,#1276);
#1275 = CARTESIAN_POINT('',(0.,11.));
#1276 = VECTOR('',#1277,1.);
#1277 = DIRECTION('',(1.,0.));
#1278 = ( GEOMETRIC_REPRESENTATION_CONTEXT(2) 
PARAMETRIC_REPRESENTATION_CONTEXT() REPRESENTATION_CONTEXT('2D SPACE',''
  ) );
#1279 = ADVANCED_FACE('',(#1280,#1283),#1201,.F.);
#1280 = FACE_BOUND('',#1281,.F.);
#1281 = EDGE_LOOP('',(#1282));
#1282 = ORIENTED_EDGE('',*,*,#1186,.T.);
#1283 = FACE_BOUND('',#1284,.F.);
#1284 = EDGE_LOOP('',(#1285));
#1285 = ORIENTED_EDGE('',*,*,#1286,.T.);
#1286 = EDGE_CURVE('',#1287,#1287,#1289,.T.);
#1287 = VERTEX_POINT('',#1288);
#1288 = CARTESIAN_POINT('',(-41.,-1.004210375301E-14,120.));
#1289 = SURFACE_CURVE('',#1290,(#1295,#1306),.PCURVE_S1.);
#1290 = CIRCLE('',#1291,41.);
#1291 = AXIS2_PLACEMENT_3D('',#1292,#1293,#1294);
#1292 = CARTESIAN_POINT('',(0.,0.,120.));
#1293 = DIRECTION('',(0.,0.,-1.));
#1294 = DIRECTION('',(-1.,0.,-0.));
#1295 = PCURVE('',#1201,#1296);
#1296 = DEFINITIONAL_REPRESENTATION('',(#1297),#1305);
#1297 = ( BOUNDED_CURVE() B_SPLINE_CURVE(2,(#1298,#1299,#1300,#1301,
#1302,#1303,#1304),.UNSPECIFIED.,.T.,.F.) B_SPLINE_CURVE_WITH_KNOTS((1,2
    ,2,2,2,1),(-2.094395102393,0.,2.094395102393,4.188790204786,
6.28318530718,8.377580409573),.UNSPECIFIED.) CURVE() 
GEOMETRIC_REPRESENTATION_ITEM() RATIONAL_B_SPLINE_CURVE((1.,0.5,1.,0.5,
1.,0.5,1.)) REPRESENTATION_ITEM('') );
#1298 = CARTESIAN_POINT('',(-41.,0.));
#1299 = CARTESIAN_POINT('',(-41.,71.014083110324));
#1300 = CARTESIAN_POINT('',(20.5,35.507041555162));
#1301 = CARTESIAN_POINT('',(82.,1.004210375301E-14));
#1302 = CARTESIAN_POINT('',(20.5,-35.50704155516));
#1303 = CARTESIAN_POINT('',(-41.,-71.01408311032));
#1304 = CARTESIAN_POINT('',(-41.,0.));
#1305 = ( GEOMETRIC_REPRESENTATION_CONTEXT(2) 
PARAMETRIC_REPRESENTATION_CONTEXT() REPRESENTATION_CONTEXT('2D SPACE',''
  ) );
#1306 = PCURVE('',#1307,#1312);
#1307 = CYLINDRICAL_SURFACE('',#1308,41.);
#1308 = AXIS2_PLACEMENT_3D('',#1309,#1310,#1311);
#1309 = CARTESIAN_POINT('',(0.,0.,120.));
#1310 = DIRECTION('',(0.,0.,-1.));
#1311 = DIRECTION('',(-1.,0.,-0.));
#1312 = DEFINITIONAL_REPRESENTATION('',(#1313),#1317);
#1313 = LINE('',#1314,#1315);
#1314 = CARTESIAN_POINT('',(0.,0.));
#1315 = VECTOR('',#1316,1.);
#1316 = DIRECTION('',(1.,0.));
#1317 = ( GEOMETRIC_REPRESENTATION_CONTEXT(2) 
PARAMETRIC_REPRESENTATION_CONTEXT() REPRESENTATION_CONTEXT('2D SPACE',''
  ) );
#1318 = ADVANCED_FACE('',(#1319),#1237,.F.);
#1319 = FACE_BOUND('',#1320,.F.);
#1320 = EDGE_LOOP('',(#1321,#1322,#1345,#1376));
#1321 = ORIENTED_EDGE('',*,*,#1220,.F.);
#1322 = ORIENTED_EDGE('',*,*,#1323,.F.);
#1323 = EDGE_CURVE('',#1324,#1221,#1326,.T.);
#1324 = VERTEX_POINT('',#1325);
#1325 = CARTESIAN_POINT('',(-14.5,-3.673940397442E-16,115.));
#1326 = SEAM_CURVE('',#1327,(#1331,#1338),.PCURVE_S1.);
#1327 = LINE('',#1328,#1329);
#1328 = CARTESIAN_POINT('',(-14.5,-3.673940397442E-16,115.));
#1329 = VECTOR('',#1330,1.);
#1330 = DIRECTION('',(0.,0.,1.));
#1331 = PCURVE('',#1237,#1332);
#1332 = DEFINITIONAL_REPRESENTATION('',(#1333),#1337);
#1333 = LINE('',#1334,#1335);
#1334 = CARTESIAN_POINT('',(6.28318530718,-0.));
#1335 = VECTOR('',#1336,1.);
#1336 = DIRECTION('',(0.,1.));
#1337 = ( GEOMETRIC_REPRESENTATION_CONTEXT(2) 
PARAMETRIC_REPRESENTATION_CONTEXT() REPRESENTATION_CONTEXT('2D SPACE',''
  ) );
#1338 = PCURVE('',#1237,#1339);
#1339 = DEFINITIONAL_REPRESENTATION('',(#1340),#1344);
#1340 = LINE('',#1341,#1342);
#1341 = CARTESIAN_POINT('',(0.,-0.));
#1342 = VECTOR('',#1343,1.);
#1343 = DIRECTION('',(0.,1.));
#1344 = ( GEOMETRIC_REPRESENTATION_CONTEXT(2) 
PARAMETRIC_REPRESENTATION_CONTEXT() REPRESENTATION_CONTEXT('2D SPACE',''
  ) );
#1345 = ORIENTED_EDGE('',*,*,#1346,.T.);
#1346 = EDGE_CURVE('',#1324,#1324,#1347,.T.);
#1347 = SURFACE_CURVE('',#1348,(#1353,#1360),.PCURVE_S1.);
#1348 = CIRCLE('',#1349,1.5);
#1349 = AXIS2_PLACEMENT_3D('',#1350,#1351,#1352);
#1350 = CARTESIAN_POINT('',(-16.,0.,115.));
#1351 = DIRECTION('',(0.,0.,1.));
#1352 = DIRECTION('',(1.,0.,-0.));
#1353 = PCURVE('',#1237,#1354);
#1354 = DEFINITIONAL_REPRESENTATION('',(#1355),#1359);
#1355 = LINE('',#1356,#1357);
#1356 = CARTESIAN_POINT('',(0.,0.));
#1357 = VECTOR('',#1358,1.);
#1358 = DIRECTION('',(1.,0.));
#1359 = ( GEOMETRIC_REPRESENTATION_CONTEXT(2) 
PARAMETRIC_REPRESENTATION_CONTEXT() REPRESENTATION_CONTEXT('2D SPACE',''
  ) );
#1360 = PCURVE('',#1361,#1366);
#1361 = PLANE('',#1362);
#1362 = AXIS2_PLACEMENT_3D('',#1363,#1364,#1365);
#1363 = CARTESIAN_POINT('',(0.,0.,115.));
#1364 = DIRECTION('',(0.,0.,-1.));
#1365 = DIRECTION('',(-1.,0.,-0.));
#1366 = DEFINITIONAL_REPRESENTATION('',(#1367),#1375);
#1367 = ( BOUNDED_CURVE() B_SPLINE_CURVE(2,(#1368,#1369,#1370,#1371,
#1372,#1373,#1374),.UNSPECIFIED.,.T.,.F.) B_SPLINE_CURVE_WITH_KNOTS((1,2
    ,2,2,2,1),(-2.094395102393,0.,2.094395102393,4.188790204786,
6.28318530718,8.377580409573),.UNSPECIFIED.) CURVE() 
GEOMETRIC_REPRESENTATION_ITEM() RATIONAL_B_SPLINE_CURVE((1.,0.5,1.,0.5,
1.,0.5,1.)) REPRESENTATION_ITEM('') );
#1368 = CARTESIAN_POINT('',(14.5,0.));
#1369 = CARTESIAN_POINT('',(14.5,2.598076211353));
#1370 = CARTESIAN_POINT('',(16.75,1.299038105677));
#1371 = CARTESIAN_POINT('',(19.,3.673940397442E-16));
#1372 = CARTESIAN_POINT('',(16.75,-1.299038105677));
#1373 = CARTESIAN_POINT('',(14.5,-2.598076211353));
#1374 = CARTESIAN_POINT('',(14.5,0.));
#1375 = ( GEOMETRIC_REPRESENTATION_CONTEXT(2) 
PARAMETRIC_REPRESENTATION_CONTEXT() REPRESENTATION_CONTEXT('2D SPACE',''
  ) );
#1376 = ORIENTED_EDGE('',*,*,#1323,.T.);
#1377 = ADVANCED_FACE('',(#1378),#1268,.F.);
#1378 = FACE_BOUND('',#1379,.F.);
#1379 = EDGE_LOOP('',(#1380,#1381,#1404,#1430));
#1380 = ORIENTED_EDGE('',*,*,#1251,.F.);
#1381 = ORIENTED_EDGE('',*,*,#1382,.F.);
#1382 = EDGE_CURVE('',#1383,#1252,#1385,.T.);
#1383 = VERTEX_POINT('',#1384);
#1384 = CARTESIAN_POINT('',(32.,-1.714505518806E-15,115.));
#1385 = SEAM_CURVE('',#1386,(#1390,#1397),.PCURVE_S1.);
#1386 = LINE('',#1387,#1388);
#1387 = CARTESIAN_POINT('',(32.,-1.714505518806E-15,115.));
#1388 = VECTOR('',#1389,1.);
#1389 = DIRECTION('',(0.,0.,1.));
#1390 = PCURVE('',#1268,#1391);
#1391 = DEFINITIONAL_REPRESENTATION('',(#1392),#1396);
#1392 = LINE('',#1393,#1394);
#1393 = CARTESIAN_POINT('',(6.28318530718,-0.));
#1394 = VECTOR('',#1395,1.);
#1395 = DIRECTION('',(0.,1.));
#1396 = ( GEOMETRIC_REPRESENTATION_CONTEXT(2) 
PARAMETRIC_REPRESENTATION_CONTEXT() REPRESENTATION_CONTEXT('2D SPACE',''
  ) );
#1397 = PCURVE('',#1268,#1398);
#1398 = DEFINITIONAL_REPRESENTATION('',(#1399),#1403);
#1399 = LINE('',#1400,#1401);
#1400 = CARTESIAN_POINT('',(0.,-0.));
#1401 = VECTOR('',#1402,1.);
#1402 = DIRECTION('',(0.,1.));
#1403 = ( GEOMETRIC_REPRESENTATION_CONTEXT(2) 
PARAMETRIC_REPRESENTATION_CONTEXT() REPRESENTATION_CONTEXT('2D SPACE',''
  ) );
#1404 = ORIENTED_EDGE('',*,*,#1405,.T.);
#1405 = EDGE_CURVE('',#1383,#1383,#1406,.T.);
#1406 = SURFACE_CURVE('',#1407,(#1412,#1419),.PCURVE_S1.);
#1407 = CIRCLE('',#1408,7.);
#1408 = AXIS2_PLACEMENT_3D('',#1409,#1410,#1411);
#1409 = CARTESIAN_POINT('',(25.,0.,115.));
#1410 = DIRECTION('',(0.,0.,1.));
#1411 = DIRECTION('',(1.,0.,-0.));
#1412 = PCURVE('',#1268,#1413);
#1413 = DEFINITIONAL_REPRESENTATION('',(#1414),#1418);
#1414 = LINE('',#1415,#1416);
#1415 = CARTESIAN_POINT('',(0.,0.));
#1416 = VECTOR('',#1417,1.);
#1417 = DIRECTION('',(1.,0.));
#1418 = ( GEOMETRIC_REPRESENTATION_CONTEXT(2) 
PARAMETRIC_REPRESENTATION_CONTEXT() REPRESENTATION_CONTEXT('2D SPACE',''
  ) );
#1419 = PCURVE('',#1361,#1420);
#1420 = DEFINITIONAL_REPRESENTATION('',(#1421),#1429);
#1421 = ( BOUNDED_CURVE() B_SPLINE_CURVE(2,(#1422,#1423,#1424,#1425,
#1426,#1427,#1428),.UNSPECIFIED.,.T.,.F.) B_SPLINE_CURVE_WITH_KNOTS((1,2
    ,2,2,2,1),(-2.094395102393,0.,2.094395102393,4.188790204786,
6.28318530718,8.377580409573),.UNSPECIFIED.) CURVE() 
GEOMETRIC_REPRESENTATION_ITEM() RATIONAL_B_SPLINE_CURVE((1.,0.5,1.,0.5,
1.,0.5,1.)) REPRESENTATION_ITEM('') );
#1422 = CARTESIAN_POINT('',(-32.,0.));
#1423 = CARTESIAN_POINT('',(-32.,12.124355652982));
#1424 = CARTESIAN_POINT('',(-21.5,6.062177826491));
#1425 = CARTESIAN_POINT('',(-11.,1.714505518806E-15));
#1426 = CARTESIAN_POINT('',(-21.5,-6.062177826491));
#1427 = CARTESIAN_POINT('',(-32.,-12.12435565298));
#1428 = CARTESIAN_POINT('',(-32.,0.));
#1429 = ( GEOMETRIC_REPRESENTATION_CONTEXT(2) 
PARAMETRIC_REPRESENTATION_CONTEXT() REPRESENTATION_CONTEXT('2D SPACE',''
  ) );
#1430 = ORIENTED_EDGE('',*,*,#1382,.T.);
#1431 = ADVANCED_FACE('',(#1432),#1307,.T.);
#1432 = FACE_BOUND('',#1433,.T.);
#1433 = EDGE_LOOP('',(#1434,#1458,#1479,#1480));
#1434 = ORIENTED_EDGE('',*,*,#1435,.F.);
#1435 = EDGE_CURVE('',#1436,#1436,#1438,.T.);
#1436 = VERTEX_POINT('',#1437);
#1437 = CARTESIAN_POINT('',(-41.,-1.004210375301E-14,115.));
#1438 = SURFACE_CURVE('',#1439,(#1444,#1451),.PCURVE_S1.);
#1439 = CIRCLE('',#1440,41.);
#1440 = AXIS2_PLACEMENT_3D('',#1441,#1442,#1443);
#1441 = CARTESIAN_POINT('',(0.,0.,115.));
#1442 = DIRECTION('',(0.,0.,-1.));
#1443 = DIRECTION('',(-1.,0.,-0.));
#1444 = PCURVE('',#1307,#1445);
#1445 = DEFINITIONAL_REPRESENTATION('',(#1446),#1450);
#1446 = LINE('',#1447,#1448);
#1447 = CARTESIAN_POINT('',(0.,5.));
#1448 = VECTOR('',#1449,1.);
#1449 = DIRECTION('',(1.,0.));
#1450 = ( GEOMETRIC_REPRESENTATION_CONTEXT(2) 
PARAMETRIC_REPRESENTATION_CONTEXT() REPRESENTATION_CONTEXT('2D SPACE',''
  ) );
#1451 = PCURVE('',#1361,#1452);
#1452 = DEFINITIONAL_REPRESENTATION('',(#1453),#1457);
#1453 = CIRCLE('',#1454,41.);
#1454 = AXIS2_PLACEMENT_2D('',#1455,#1456);
#1455 = CARTESIAN_POINT('',(0.,0.));
#1456 = DIRECTION('',(1.,0.));
#1457 = ( GEOMETRIC_REPRESENTATION_CONTEXT(2) 
PARAMETRIC_REPRESENTATION_CONTEXT() REPRESENTATION_CONTEXT('2D SPACE',''
  ) );
#1458 = ORIENTED_EDGE('',*,*,#1459,.F.);
#1459 = EDGE_CURVE('',#1287,#1436,#1460,.T.);
#1460 = SEAM_CURVE('',#1461,(#1465,#1472),.PCURVE_S1.);
#1461 = LINE('',#1462,#1463);
#1462 = CARTESIAN_POINT('',(-41.,-1.004210375301E-14,120.));
#1463 = VECTOR('',#1464,1.);
#1464 = DIRECTION('',(0.,0.,-1.));
#1465 = PCURVE('',#1307,#1466);
#1466 = DEFINITIONAL_REPRESENTATION('',(#1467),#1471);
#1467 = LINE('',#1468,#1469);
#1468 = CARTESIAN_POINT('',(6.28318530718,-0.));
#1469 = VECTOR('',#1470,1.);
#1470 = DIRECTION('',(0.,1.));
#1471 = ( GEOMETRIC_REPRESENTATION_CONTEXT(2) 
PARAMETRIC_REPRESENTATION_CONTEXT() REPRESENTATION_CONTEXT('2D SPACE',''
  ) );
#1472 = PCURVE('',#1307,#1473);
#1473 = DEFINITIONAL_REPRESENTATION('',(#1474),#1478);
#1474 = LINE('',#1475,#1476);
#1475 = CARTESIAN_POINT('',(0.,-0.));
#1476 = VECTOR('',#1477,1.);
#1477 = DIRECTION('',(0.,1.));
#1478 = ( GEOMETRIC_REPRESENTATION_CONTEXT(2) 
PARAMETRIC_REPRESENTATION_CONTEXT() REPRESENTATION_CONTEXT('2D SPACE',''
  ) );
#1479 = ORIENTED_EDGE('',*,*,#1286,.T.);
#1480 = ORIENTED_EDGE('',*,*,#1459,.T.);
#1481 = ADVANCED_FACE('',(#1482,#1485,#1488),#1361,.T.);
#1482 = FACE_BOUND('',#1483,.T.);
#1483 = EDGE_LOOP('',(#1484));
#1484 = ORIENTED_EDGE('',*,*,#1435,.T.);
#1485 = FACE_BOUND('',#1486,.T.);
#1486 = EDGE_LOOP('',(#1487));
#1487 = ORIENTED_EDGE('',*,*,#1405,.T.);
#1488 = FACE_BOUND('',#1489,.T.);
#1489 = EDGE_LOOP('',(#1490));
#1490 = ORIENTED_EDGE('',*,*,#1346,.T.);
#1491 = ( GEOMETRIC_REPRESENTATION_CONTEXT(3) 
GLOBAL_UNCERTAINTY_ASSIGNED_CONTEXT((#1495)) 
GLOBAL_UNIT_ASSIGNED_CONTEXT((#1492,#1493,#1494)) REPRESENTATION_CONTEXT
('Context #1','3D Context with UNIT and UNCERTAINTY') );
#1492 = ( LENGTH_UNIT() NAMED_UNIT(*) SI_UNIT(.MILLI.,.METRE.) );
#1493 = ( NAMED_UNIT(*) PLANE_ANGLE_UNIT() SI_UNIT($,.RADIAN.) );
#1494 = ( NAMED_UNIT(*) SI_UNIT($,.STERADIAN.) SOLID_ANGLE_UNIT() );
#1495 = UNCERTAINTY_MEASURE_WITH_UNIT(LENGTH_MEASURE(1.E-07),#1492,
  'distance_accuracy_value','confusion accuracy');
#1496 = CONTEXT_DEPENDENT_SHAPE_REPRESENTATION(#1497,#1499);
#1497 = ( REPRESENTATION_RELATIONSHIP('','',#1122,#10) 
REPRESENTATION_RELATIONSHIP_WITH_TRANSFORMATION(#1498) 
SHAPE_REPRESENTATION_RELATIONSHIP() );
#1498 = ITEM_DEFINED_TRANSFORMATION('','',#11,#19);
#1499 = PRODUCT_DEFINITION_SHAPE('Placement','Placement of an item',
  #1500);
#1500 = NEXT_ASSEMBLY_USAGE_OCCURRENCE('38','','',#5,#1117,$);
#1501 = PRODUCT_RELATED_PRODUCT_CATEGORY('part',$,(#1119));
ENDSEC;
END-ISO-10303-21;
